<?xml version="1.0" encoding="utf-8" standalone="no"?>
<!DOCTYPE svg PUBLIC "-//W3C//DTD SVG 1.1//EN"
  "http://www.w3.org/Graphics/SVG/1.1/DTD/svg11.dtd">
<svg xmlns:xlink="http://www.w3.org/1999/xlink" width="144pt" height="144pt" viewBox="0 0 144 144" xmlns="http://www.w3.org/2000/svg" version="1.1">
 <metadata>
  <rdf:RDF xmlns:dc="http://purl.org/dc/elements/1.1/" xmlns:cc="http://creativecommons.org/ns#" xmlns:rdf="http://www.w3.org/1999/02/22-rdf-syntax-ns#">
   <cc:Work>
    <dc:type rdf:resource="http://purl.org/dc/dcmitype/StillImage"/>
    <dc:date>2025-01-15T21:17:14.488252</dc:date>
    <dc:format>image/svg+xml</dc:format>
    <dc:creator>
     <cc:Agent>
      <dc:title>Matplotlib v3.10.0, https://matplotlib.org/</dc:title>
     </cc:Agent>
    </dc:creator>
   </cc:Work>
  </rdf:RDF>
 </metadata>
 <defs>
  <style type="text/css">*{stroke-linejoin: round; stroke-linecap: butt}</style>
 </defs>
 <g id="figure_1">
  <g id="patch_1">
   <path d="M 0 144 
L 144 144 
L 144 0 
L 0 0 
z
" style="fill: #ffffff"/>
  </g>
  <g id="axes_1">
   <g id="patch_2">
    <path d="M 31.97 109.96 
L 135.36 109.96 
L 135.36 8.64 
L 31.97 8.64 
z
" style="fill: #ffffff"/>
   </g>
   <g id="patch_3">
    <path d="M 59.514551 109.96 
L 61.766424 109.96 
L 61.766424 85.83619 
L 59.514551 85.83619 
z
" clip-path="url(#pb201e7ede7)" style="opacity: 0.7; stroke: #000000; stroke-linejoin: miter"/>
   </g>
   <g id="patch_4">
    <path d="M 61.766424 109.96 
L 64.018282 109.96 
L 64.018282 85.836024 
L 61.766424 85.836024 
z
" clip-path="url(#pb201e7ede7)" style="opacity: 0.7; stroke: #000000; stroke-linejoin: miter"/>
   </g>
   <g id="patch_5">
    <path d="M 64.018282 109.96 
L 66.27014 109.96 
L 66.27014 109.96 
L 64.018282 109.96 
z
" clip-path="url(#pb201e7ede7)" style="opacity: 0.7; stroke: #000000; stroke-linejoin: miter"/>
   </g>
   <g id="patch_6">
    <path d="M 66.27014 109.96 
L 68.522013 109.96 
L 68.522013 109.96 
L 66.27014 109.96 
z
" clip-path="url(#pb201e7ede7)" style="opacity: 0.7; stroke: #000000; stroke-linejoin: miter"/>
   </g>
   <g id="patch_7">
    <path d="M 68.522013 109.96 
L 70.773887 109.96 
L 70.773887 13.464762 
L 68.522013 13.464762 
z
" clip-path="url(#pb201e7ede7)" style="opacity: 0.7; stroke: #000000; stroke-linejoin: miter"/>
   </g>
   <g id="patch_8">
    <path d="M 70.773887 109.96 
L 73.025745 109.96 
L 73.025745 85.836024 
L 70.773887 85.836024 
z
" clip-path="url(#pb201e7ede7)" style="opacity: 0.7; stroke: #000000; stroke-linejoin: miter"/>
   </g>
   <g id="patch_9">
    <path d="M 73.025745 109.96 
L 75.277603 109.96 
L 75.277603 85.836024 
L 73.025745 85.836024 
z
" clip-path="url(#pb201e7ede7)" style="opacity: 0.7; stroke: #000000; stroke-linejoin: miter"/>
   </g>
   <g id="patch_10">
    <path d="M 75.277603 109.96 
L 77.529476 109.96 
L 77.529476 61.712381 
L 75.277603 61.712381 
z
" clip-path="url(#pb201e7ede7)" style="opacity: 0.7; stroke: #000000; stroke-linejoin: miter"/>
   </g>
   <g id="patch_11">
    <path d="M 77.529476 109.96 
L 79.781349 109.96 
L 79.781349 85.83619 
L 77.529476 85.83619 
z
" clip-path="url(#pb201e7ede7)" style="opacity: 0.7; stroke: #000000; stroke-linejoin: miter"/>
   </g>
   <g id="patch_12">
    <path d="M 79.781349 109.96 
L 82.033207 109.96 
L 82.033207 85.836024 
L 79.781349 85.836024 
z
" clip-path="url(#pb201e7ede7)" style="opacity: 0.7; stroke: #000000; stroke-linejoin: miter"/>
   </g>
   <g id="patch_13">
    <path d="M 82.033207 109.96 
L 84.285065 109.96 
L 84.285065 85.836024 
L 82.033207 85.836024 
z
" clip-path="url(#pb201e7ede7)" style="opacity: 0.7; stroke: #000000; stroke-linejoin: miter"/>
   </g>
   <g id="patch_14">
    <path d="M 84.285065 109.96 
L 86.536938 109.96 
L 86.536938 61.712381 
L 84.285065 61.712381 
z
" clip-path="url(#pb201e7ede7)" style="opacity: 0.7; stroke: #000000; stroke-linejoin: miter"/>
   </g>
   <g id="patch_15">
    <path d="M 86.536938 109.96 
L 88.788812 109.96 
L 88.788812 109.96 
L 86.536938 109.96 
z
" clip-path="url(#pb201e7ede7)" style="opacity: 0.7; stroke: #000000; stroke-linejoin: miter"/>
   </g>
   <g id="patch_16">
    <path d="M 88.788812 109.96 
L 91.04067 109.96 
L 91.04067 109.96 
L 88.788812 109.96 
z
" clip-path="url(#pb201e7ede7)" style="opacity: 0.7; stroke: #000000; stroke-linejoin: miter"/>
   </g>
   <g id="patch_17">
    <path d="M 91.04067 109.96 
L 93.292528 109.96 
L 93.292528 109.96 
L 91.04067 109.96 
z
" clip-path="url(#pb201e7ede7)" style="opacity: 0.7; stroke: #000000; stroke-linejoin: miter"/>
   </g>
   <g id="patch_18">
    <path d="M 93.292528 109.96 
L 95.544401 109.96 
L 95.544401 109.96 
L 93.292528 109.96 
z
" clip-path="url(#pb201e7ede7)" style="opacity: 0.7; stroke: #000000; stroke-linejoin: miter"/>
   </g>
   <g id="patch_19">
    <path d="M 95.544401 109.96 
L 97.796274 109.96 
L 97.796274 85.83619 
L 95.544401 85.83619 
z
" clip-path="url(#pb201e7ede7)" style="opacity: 0.7; stroke: #000000; stroke-linejoin: miter"/>
   </g>
   <g id="patch_20">
    <path d="M 97.796274 109.96 
L 100.048132 109.96 
L 100.048132 109.96 
L 97.796274 109.96 
z
" clip-path="url(#pb201e7ede7)" style="opacity: 0.7; stroke: #000000; stroke-linejoin: miter"/>
   </g>
   <g id="patch_21">
    <path d="M 100.048132 109.96 
L 102.29999 109.96 
L 102.29999 85.836024 
L 100.048132 85.836024 
z
" clip-path="url(#pb201e7ede7)" style="opacity: 0.7; stroke: #000000; stroke-linejoin: miter"/>
   </g>
   <g id="patch_22">
    <path d="M 102.29999 109.96 
L 104.551863 109.96 
L 104.551863 85.83619 
L 102.29999 85.83619 
z
" clip-path="url(#pb201e7ede7)" style="opacity: 0.7; stroke: #000000; stroke-linejoin: miter"/>
   </g>
   <g id="patch_23">
    <path d="M 67.347134 109.96 
L 70.512804 109.96 
L 70.512804 75.63945 
L 67.347134 75.63945 
z
" clip-path="url(#pb201e7ede7)" style="fill: #008000; opacity: 0.7; stroke: #000000; stroke-linejoin: miter"/>
   </g>
   <g id="patch_24">
    <path d="M 70.512804 109.96 
L 73.678459 109.96 
L 73.678459 92.799641 
L 70.512804 92.799641 
z
" clip-path="url(#pb201e7ede7)" style="fill: #008000; opacity: 0.7; stroke: #000000; stroke-linejoin: miter"/>
   </g>
   <g id="patch_25">
    <path d="M 73.678459 109.96 
L 76.844129 109.96 
L 76.844129 75.63945 
L 73.678459 75.63945 
z
" clip-path="url(#pb201e7ede7)" style="fill: #008000; opacity: 0.7; stroke: #000000; stroke-linejoin: miter"/>
   </g>
   <g id="patch_26">
    <path d="M 76.844129 109.96 
L 80.009798 109.96 
L 80.009798 109.96 
L 76.844129 109.96 
z
" clip-path="url(#pb201e7ede7)" style="fill: #008000; opacity: 0.7; stroke: #000000; stroke-linejoin: miter"/>
   </g>
   <g id="patch_27">
    <path d="M 80.009798 109.96 
L 83.175468 109.96 
L 83.175468 41.318901 
L 80.009798 41.318901 
z
" clip-path="url(#pb201e7ede7)" style="fill: #008000; opacity: 0.7; stroke: #000000; stroke-linejoin: miter"/>
   </g>
   <g id="patch_28">
    <path d="M 83.175468 109.96 
L 86.341138 109.96 
L 86.341138 109.96 
L 83.175468 109.96 
z
" clip-path="url(#pb201e7ede7)" style="fill: #008000; opacity: 0.7; stroke: #000000; stroke-linejoin: miter"/>
   </g>
   <g id="patch_29">
    <path d="M 86.341138 109.96 
L 89.506793 109.96 
L 89.506793 92.799641 
L 86.341138 92.799641 
z
" clip-path="url(#pb201e7ede7)" style="fill: #008000; opacity: 0.7; stroke: #000000; stroke-linejoin: miter"/>
   </g>
   <g id="patch_30">
    <path d="M 89.506793 109.96 
L 92.672463 109.96 
L 92.672463 75.63945 
L 89.506793 75.63945 
z
" clip-path="url(#pb201e7ede7)" style="fill: #008000; opacity: 0.7; stroke: #000000; stroke-linejoin: miter"/>
   </g>
   <g id="patch_31">
    <path d="M 92.672463 109.96 
L 95.838132 109.96 
L 95.838132 109.96 
L 92.672463 109.96 
z
" clip-path="url(#pb201e7ede7)" style="fill: #008000; opacity: 0.7; stroke: #000000; stroke-linejoin: miter"/>
   </g>
   <g id="patch_32">
    <path d="M 95.838132 109.96 
L 99.003787 109.96 
L 99.003787 92.799641 
L 95.838132 92.799641 
z
" clip-path="url(#pb201e7ede7)" style="fill: #008000; opacity: 0.7; stroke: #000000; stroke-linejoin: miter"/>
   </g>
   <g id="patch_33">
    <path d="M 99.003787 109.96 
L 102.169457 109.96 
L 102.169457 75.63945 
L 99.003787 75.63945 
z
" clip-path="url(#pb201e7ede7)" style="fill: #008000; opacity: 0.7; stroke: #000000; stroke-linejoin: miter"/>
   </g>
   <g id="patch_34">
    <path d="M 102.169457 109.96 
L 105.335127 109.96 
L 105.335127 109.96 
L 102.169457 109.96 
z
" clip-path="url(#pb201e7ede7)" style="fill: #008000; opacity: 0.7; stroke: #000000; stroke-linejoin: miter"/>
   </g>
   <g id="patch_35">
    <path d="M 105.335127 109.96 
L 108.500796 109.96 
L 108.500796 92.799725 
L 105.335127 92.799725 
z
" clip-path="url(#pb201e7ede7)" style="fill: #008000; opacity: 0.7; stroke: #000000; stroke-linejoin: miter"/>
   </g>
   <g id="patch_36">
    <path d="M 108.500796 109.96 
L 111.666466 109.96 
L 111.666466 109.96 
L 108.500796 109.96 
z
" clip-path="url(#pb201e7ede7)" style="fill: #008000; opacity: 0.7; stroke: #000000; stroke-linejoin: miter"/>
   </g>
   <g id="patch_37">
    <path d="M 111.666466 109.96 
L 114.832121 109.96 
L 114.832121 109.96 
L 111.666466 109.96 
z
" clip-path="url(#pb201e7ede7)" style="fill: #008000; opacity: 0.7; stroke: #000000; stroke-linejoin: miter"/>
   </g>
   <g id="patch_38">
    <path d="M 114.832121 109.96 
L 117.997791 109.96 
L 117.997791 109.96 
L 114.832121 109.96 
z
" clip-path="url(#pb201e7ede7)" style="fill: #008000; opacity: 0.7; stroke: #000000; stroke-linejoin: miter"/>
   </g>
   <g id="patch_39">
    <path d="M 117.997791 109.96 
L 121.16346 109.96 
L 121.16346 92.799725 
L 117.997791 92.799725 
z
" clip-path="url(#pb201e7ede7)" style="fill: #008000; opacity: 0.7; stroke: #000000; stroke-linejoin: miter"/>
   </g>
   <g id="patch_40">
    <path d="M 121.16346 109.96 
L 124.329115 109.96 
L 124.329115 109.96 
L 121.16346 109.96 
z
" clip-path="url(#pb201e7ede7)" style="fill: #008000; opacity: 0.7; stroke: #000000; stroke-linejoin: miter"/>
   </g>
   <g id="patch_41">
    <path d="M 124.329115 109.96 
L 127.494785 109.96 
L 127.494785 109.96 
L 124.329115 109.96 
z
" clip-path="url(#pb201e7ede7)" style="fill: #008000; opacity: 0.7; stroke: #000000; stroke-linejoin: miter"/>
   </g>
   <g id="patch_42">
    <path d="M 127.494785 109.96 
L 130.660455 109.96 
L 130.660455 92.799725 
L 127.494785 92.799725 
z
" clip-path="url(#pb201e7ede7)" style="fill: #008000; opacity: 0.7; stroke: #000000; stroke-linejoin: miter"/>
   </g>
   <g id="patch_43">
    <path d="M 36.669545 109.96 
L 39.247768 109.96 
L 39.247768 91.899796 
L 36.669545 91.899796 
z
" clip-path="url(#pb201e7ede7)" style="fill: #ff0000; opacity: 0.7; stroke: #000000; stroke-linejoin: miter"/>
   </g>
   <g id="patch_44">
    <path d="M 39.247768 109.96 
L 41.825991 109.96 
L 41.825991 109.96 
L 39.247768 109.96 
z
" clip-path="url(#pb201e7ede7)" style="fill: #ff0000; opacity: 0.7; stroke: #000000; stroke-linejoin: miter"/>
   </g>
   <g id="patch_45">
    <path d="M 41.825991 109.96 
L 44.404213 109.96 
L 44.404213 55.779387 
L 41.825991 55.779387 
z
" clip-path="url(#pb201e7ede7)" style="fill: #ff0000; opacity: 0.7; stroke: #000000; stroke-linejoin: miter"/>
   </g>
   <g id="patch_46">
    <path d="M 44.404213 109.96 
L 46.982436 109.96 
L 46.982436 109.96 
L 44.404213 109.96 
z
" clip-path="url(#pb201e7ede7)" style="fill: #ff0000; opacity: 0.7; stroke: #000000; stroke-linejoin: miter"/>
   </g>
   <g id="patch_47">
    <path d="M 46.982436 109.96 
L 49.560659 109.96 
L 49.560659 91.899796 
L 46.982436 91.899796 
z
" clip-path="url(#pb201e7ede7)" style="fill: #ff0000; opacity: 0.7; stroke: #000000; stroke-linejoin: miter"/>
   </g>
   <g id="patch_48">
    <path d="M 49.560659 109.96 
L 52.138881 109.96 
L 52.138881 109.96 
L 49.560659 109.96 
z
" clip-path="url(#pb201e7ede7)" style="fill: #ff0000; opacity: 0.7; stroke: #000000; stroke-linejoin: miter"/>
   </g>
   <g id="patch_49">
    <path d="M 52.138881 109.96 
L 54.717104 109.96 
L 54.717104 37.719183 
L 52.138881 37.719183 
z
" clip-path="url(#pb201e7ede7)" style="fill: #ff0000; opacity: 0.7; stroke: #000000; stroke-linejoin: miter"/>
   </g>
   <g id="patch_50">
    <path d="M 54.717104 109.96 
L 57.295326 109.96 
L 57.295326 73.839591 
L 54.717104 73.839591 
z
" clip-path="url(#pb201e7ede7)" style="fill: #ff0000; opacity: 0.7; stroke: #000000; stroke-linejoin: miter"/>
   </g>
   <g id="patch_51">
    <path d="M 57.295326 109.96 
L 59.873549 109.96 
L 59.873549 73.839591 
L 57.295326 73.839591 
z
" clip-path="url(#pb201e7ede7)" style="fill: #ff0000; opacity: 0.7; stroke: #000000; stroke-linejoin: miter"/>
   </g>
   <g id="patch_52">
    <path d="M 59.873549 109.96 
L 62.451772 109.96 
L 62.451772 91.899796 
L 59.873549 91.899796 
z
" clip-path="url(#pb201e7ede7)" style="fill: #ff0000; opacity: 0.7; stroke: #000000; stroke-linejoin: miter"/>
   </g>
   <g id="patch_53">
    <path d="M 62.451772 109.96 
L 65.029994 109.96 
L 65.029994 109.96 
L 62.451772 109.96 
z
" clip-path="url(#pb201e7ede7)" style="fill: #ff0000; opacity: 0.7; stroke: #000000; stroke-linejoin: miter"/>
   </g>
   <g id="patch_54">
    <path d="M 65.029994 109.96 
L 67.608217 109.96 
L 67.608217 109.96 
L 65.029994 109.96 
z
" clip-path="url(#pb201e7ede7)" style="fill: #ff0000; opacity: 0.7; stroke: #000000; stroke-linejoin: miter"/>
   </g>
   <g id="patch_55">
    <path d="M 67.608217 109.96 
L 70.18644 109.96 
L 70.18644 91.899796 
L 67.608217 91.899796 
z
" clip-path="url(#pb201e7ede7)" style="fill: #ff0000; opacity: 0.7; stroke: #000000; stroke-linejoin: miter"/>
   </g>
   <g id="patch_56">
    <path d="M 70.18644 109.96 
L 72.764662 109.96 
L 72.764662 91.899796 
L 70.18644 91.899796 
z
" clip-path="url(#pb201e7ede7)" style="fill: #ff0000; opacity: 0.7; stroke: #000000; stroke-linejoin: miter"/>
   </g>
   <g id="patch_57">
    <path d="M 72.764662 109.96 
L 75.342885 109.96 
L 75.342885 91.899796 
L 72.764662 91.899796 
z
" clip-path="url(#pb201e7ede7)" style="fill: #ff0000; opacity: 0.7; stroke: #000000; stroke-linejoin: miter"/>
   </g>
   <g id="patch_58">
    <path d="M 75.342885 109.96 
L 77.921107 109.96 
L 77.921107 91.899796 
L 75.342885 91.899796 
z
" clip-path="url(#pb201e7ede7)" style="fill: #ff0000; opacity: 0.7; stroke: #000000; stroke-linejoin: miter"/>
   </g>
   <g id="patch_59">
    <path d="M 77.921107 109.96 
L 80.49933 109.96 
L 80.49933 109.96 
L 77.921107 109.96 
z
" clip-path="url(#pb201e7ede7)" style="fill: #ff0000; opacity: 0.7; stroke: #000000; stroke-linejoin: miter"/>
   </g>
   <g id="patch_60">
    <path d="M 80.49933 109.96 
L 83.077553 109.96 
L 83.077553 91.899796 
L 80.49933 91.899796 
z
" clip-path="url(#pb201e7ede7)" style="fill: #ff0000; opacity: 0.7; stroke: #000000; stroke-linejoin: miter"/>
   </g>
   <g id="patch_61">
    <path d="M 83.077553 109.96 
L 85.655775 109.96 
L 85.655775 91.899796 
L 83.077553 91.899796 
z
" clip-path="url(#pb201e7ede7)" style="fill: #ff0000; opacity: 0.7; stroke: #000000; stroke-linejoin: miter"/>
   </g>
   <g id="patch_62">
    <path d="M 85.655775 109.96 
L 88.233998 109.96 
L 88.233998 91.899796 
L 85.655775 91.899796 
z
" clip-path="url(#pb201e7ede7)" style="fill: #ff0000; opacity: 0.7; stroke: #000000; stroke-linejoin: miter"/>
   </g>
   <g id="matplotlib.axis_1">
    <g id="xtick_1">
     <g id="line2d_1">
      <defs>
       <path id="m2f68b967b8" d="M 0 0 
L 0 3.5 
" style="stroke: #000000; stroke-width: 0.8"/>
      </defs>
      <g>
       <use xlink:href="#m2f68b967b8" x="64.083564" y="109.96" style="stroke: #000000; stroke-width: 0.8"/>
      </g>
     </g>
     <g id="text_1">
      <!-- 3.0 -->
      <g transform="translate(57.722314 123.03875) scale(0.08 -0.08)">
       <defs>
        <path id="DejaVuSans-33" d="M 2597 2516 
Q 3050 2419 3304 2112 
Q 3559 1806 3559 1356 
Q 3559 666 3084 287 
Q 2609 -91 1734 -91 
Q 1441 -91 1130 -33 
Q 819 25 488 141 
L 488 750 
Q 750 597 1062 519 
Q 1375 441 1716 441 
Q 2309 441 2620 675 
Q 2931 909 2931 1356 
Q 2931 1769 2642 2001 
Q 2353 2234 1838 2234 
L 1294 2234 
L 1294 2753 
L 1863 2753 
Q 2328 2753 2575 2939 
Q 2822 3125 2822 3475 
Q 2822 3834 2567 4026 
Q 2313 4219 1838 4219 
Q 1578 4219 1281 4162 
Q 984 4106 628 3988 
L 628 4550 
Q 988 4650 1302 4700 
Q 1616 4750 1894 4750 
Q 2613 4750 3031 4423 
Q 3450 4097 3450 3541 
Q 3450 3153 3228 2886 
Q 3006 2619 2597 2516 
z
" transform="scale(0.015625)"/>
        <path id="DejaVuSans-2e" d="M 684 794 
L 1344 794 
L 1344 0 
L 684 0 
L 684 794 
z
" transform="scale(0.015625)"/>
        <path id="DejaVuSans-30" d="M 2034 4250 
Q 1547 4250 1301 3770 
Q 1056 3291 1056 2328 
Q 1056 1369 1301 889 
Q 1547 409 2034 409 
Q 2525 409 2770 889 
Q 3016 1369 3016 2328 
Q 3016 3291 2770 3770 
Q 2525 4250 2034 4250 
z
M 2034 4750 
Q 2819 4750 3233 4129 
Q 3647 3509 3647 2328 
Q 3647 1150 3233 529 
Q 2819 -91 2034 -91 
Q 1250 -91 836 529 
Q 422 1150 422 2328 
Q 422 3509 836 4129 
Q 1250 4750 2034 4750 
z
" transform="scale(0.015625)"/>
       </defs>
       <use xlink:href="#DejaVuSans-33"/>
       <use xlink:href="#DejaVuSans-2e" transform="translate(63.623047 0)"/>
       <use xlink:href="#DejaVuSans-30" transform="translate(95.410156 0)"/>
      </g>
     </g>
    </g>
    <g id="xtick_2">
     <g id="line2d_2">
      <g>
       <use xlink:href="#m2f68b967b8" x="96.719296" y="109.96" style="stroke: #000000; stroke-width: 0.8"/>
      </g>
     </g>
     <g id="text_2">
      <!-- 3.5 -->
      <g transform="translate(90.358046 123.03875) scale(0.08 -0.08)">
       <defs>
        <path id="DejaVuSans-35" d="M 691 4666 
L 3169 4666 
L 3169 4134 
L 1269 4134 
L 1269 2991 
Q 1406 3038 1543 3061 
Q 1681 3084 1819 3084 
Q 2600 3084 3056 2656 
Q 3513 2228 3513 1497 
Q 3513 744 3044 326 
Q 2575 -91 1722 -91 
Q 1428 -91 1123 -41 
Q 819 9 494 109 
L 494 744 
Q 775 591 1075 516 
Q 1375 441 1709 441 
Q 2250 441 2565 725 
Q 2881 1009 2881 1497 
Q 2881 1984 2565 2268 
Q 2250 2553 1709 2553 
Q 1456 2553 1204 2497 
Q 953 2441 691 2322 
L 691 4666 
z
" transform="scale(0.015625)"/>
       </defs>
       <use xlink:href="#DejaVuSans-33"/>
       <use xlink:href="#DejaVuSans-2e" transform="translate(63.623047 0)"/>
       <use xlink:href="#DejaVuSans-35" transform="translate(95.410156 0)"/>
      </g>
     </g>
    </g>
    <g id="xtick_3">
     <g id="line2d_3">
      <g>
       <use xlink:href="#m2f68b967b8" x="129.355027" y="109.96" style="stroke: #000000; stroke-width: 0.8"/>
      </g>
     </g>
     <g id="text_3">
      <!-- 4.0 -->
      <g transform="translate(122.993777 123.03875) scale(0.08 -0.08)">
       <defs>
        <path id="DejaVuSans-34" d="M 2419 4116 
L 825 1625 
L 2419 1625 
L 2419 4116 
z
M 2253 4666 
L 3047 4666 
L 3047 1625 
L 3713 1625 
L 3713 1100 
L 3047 1100 
L 3047 0 
L 2419 0 
L 2419 1100 
L 313 1100 
L 313 1709 
L 2253 4666 
z
" transform="scale(0.015625)"/>
       </defs>
       <use xlink:href="#DejaVuSans-34"/>
       <use xlink:href="#DejaVuSans-2e" transform="translate(63.623047 0)"/>
       <use xlink:href="#DejaVuSans-30" transform="translate(95.410156 0)"/>
      </g>
     </g>
    </g>
    <g id="text_4">
     <!-- Response time from cue (s) -->
     <g transform="translate(28.625 134.78125) scale(0.08 -0.08)">
      <defs>
       <path id="DejaVuSans-52" d="M 2841 2188 
Q 3044 2119 3236 1894 
Q 3428 1669 3622 1275 
L 4263 0 
L 3584 0 
L 2988 1197 
Q 2756 1666 2539 1819 
Q 2322 1972 1947 1972 
L 1259 1972 
L 1259 0 
L 628 0 
L 628 4666 
L 2053 4666 
Q 2853 4666 3247 4331 
Q 3641 3997 3641 3322 
Q 3641 2881 3436 2590 
Q 3231 2300 2841 2188 
z
M 1259 4147 
L 1259 2491 
L 2053 2491 
Q 2509 2491 2742 2702 
Q 2975 2913 2975 3322 
Q 2975 3731 2742 3939 
Q 2509 4147 2053 4147 
L 1259 4147 
z
" transform="scale(0.015625)"/>
       <path id="DejaVuSans-65" d="M 3597 1894 
L 3597 1613 
L 953 1613 
Q 991 1019 1311 708 
Q 1631 397 2203 397 
Q 2534 397 2845 478 
Q 3156 559 3463 722 
L 3463 178 
Q 3153 47 2828 -22 
Q 2503 -91 2169 -91 
Q 1331 -91 842 396 
Q 353 884 353 1716 
Q 353 2575 817 3079 
Q 1281 3584 2069 3584 
Q 2775 3584 3186 3129 
Q 3597 2675 3597 1894 
z
M 3022 2063 
Q 3016 2534 2758 2815 
Q 2500 3097 2075 3097 
Q 1594 3097 1305 2825 
Q 1016 2553 972 2059 
L 3022 2063 
z
" transform="scale(0.015625)"/>
       <path id="DejaVuSans-73" d="M 2834 3397 
L 2834 2853 
Q 2591 2978 2328 3040 
Q 2066 3103 1784 3103 
Q 1356 3103 1142 2972 
Q 928 2841 928 2578 
Q 928 2378 1081 2264 
Q 1234 2150 1697 2047 
L 1894 2003 
Q 2506 1872 2764 1633 
Q 3022 1394 3022 966 
Q 3022 478 2636 193 
Q 2250 -91 1575 -91 
Q 1294 -91 989 -36 
Q 684 19 347 128 
L 347 722 
Q 666 556 975 473 
Q 1284 391 1588 391 
Q 1994 391 2212 530 
Q 2431 669 2431 922 
Q 2431 1156 2273 1281 
Q 2116 1406 1581 1522 
L 1381 1569 
Q 847 1681 609 1914 
Q 372 2147 372 2553 
Q 372 3047 722 3315 
Q 1072 3584 1716 3584 
Q 2034 3584 2315 3537 
Q 2597 3491 2834 3397 
z
" transform="scale(0.015625)"/>
       <path id="DejaVuSans-70" d="M 1159 525 
L 1159 -1331 
L 581 -1331 
L 581 3500 
L 1159 3500 
L 1159 2969 
Q 1341 3281 1617 3432 
Q 1894 3584 2278 3584 
Q 2916 3584 3314 3078 
Q 3713 2572 3713 1747 
Q 3713 922 3314 415 
Q 2916 -91 2278 -91 
Q 1894 -91 1617 61 
Q 1341 213 1159 525 
z
M 3116 1747 
Q 3116 2381 2855 2742 
Q 2594 3103 2138 3103 
Q 1681 3103 1420 2742 
Q 1159 2381 1159 1747 
Q 1159 1113 1420 752 
Q 1681 391 2138 391 
Q 2594 391 2855 752 
Q 3116 1113 3116 1747 
z
" transform="scale(0.015625)"/>
       <path id="DejaVuSans-6f" d="M 1959 3097 
Q 1497 3097 1228 2736 
Q 959 2375 959 1747 
Q 959 1119 1226 758 
Q 1494 397 1959 397 
Q 2419 397 2687 759 
Q 2956 1122 2956 1747 
Q 2956 2369 2687 2733 
Q 2419 3097 1959 3097 
z
M 1959 3584 
Q 2709 3584 3137 3096 
Q 3566 2609 3566 1747 
Q 3566 888 3137 398 
Q 2709 -91 1959 -91 
Q 1206 -91 779 398 
Q 353 888 353 1747 
Q 353 2609 779 3096 
Q 1206 3584 1959 3584 
z
" transform="scale(0.015625)"/>
       <path id="DejaVuSans-6e" d="M 3513 2113 
L 3513 0 
L 2938 0 
L 2938 2094 
Q 2938 2591 2744 2837 
Q 2550 3084 2163 3084 
Q 1697 3084 1428 2787 
Q 1159 2491 1159 1978 
L 1159 0 
L 581 0 
L 581 3500 
L 1159 3500 
L 1159 2956 
Q 1366 3272 1645 3428 
Q 1925 3584 2291 3584 
Q 2894 3584 3203 3211 
Q 3513 2838 3513 2113 
z
" transform="scale(0.015625)"/>
       <path id="DejaVuSans-20" transform="scale(0.015625)"/>
       <path id="DejaVuSans-74" d="M 1172 4494 
L 1172 3500 
L 2356 3500 
L 2356 3053 
L 1172 3053 
L 1172 1153 
Q 1172 725 1289 603 
Q 1406 481 1766 481 
L 2356 481 
L 2356 0 
L 1766 0 
Q 1100 0 847 248 
Q 594 497 594 1153 
L 594 3053 
L 172 3053 
L 172 3500 
L 594 3500 
L 594 4494 
L 1172 4494 
z
" transform="scale(0.015625)"/>
       <path id="DejaVuSans-69" d="M 603 3500 
L 1178 3500 
L 1178 0 
L 603 0 
L 603 3500 
z
M 603 4863 
L 1178 4863 
L 1178 4134 
L 603 4134 
L 603 4863 
z
" transform="scale(0.015625)"/>
       <path id="DejaVuSans-6d" d="M 3328 2828 
Q 3544 3216 3844 3400 
Q 4144 3584 4550 3584 
Q 5097 3584 5394 3201 
Q 5691 2819 5691 2113 
L 5691 0 
L 5113 0 
L 5113 2094 
Q 5113 2597 4934 2840 
Q 4756 3084 4391 3084 
Q 3944 3084 3684 2787 
Q 3425 2491 3425 1978 
L 3425 0 
L 2847 0 
L 2847 2094 
Q 2847 2600 2669 2842 
Q 2491 3084 2119 3084 
Q 1678 3084 1418 2786 
Q 1159 2488 1159 1978 
L 1159 0 
L 581 0 
L 581 3500 
L 1159 3500 
L 1159 2956 
Q 1356 3278 1631 3431 
Q 1906 3584 2284 3584 
Q 2666 3584 2933 3390 
Q 3200 3197 3328 2828 
z
" transform="scale(0.015625)"/>
       <path id="DejaVuSans-66" d="M 2375 4863 
L 2375 4384 
L 1825 4384 
Q 1516 4384 1395 4259 
Q 1275 4134 1275 3809 
L 1275 3500 
L 2222 3500 
L 2222 3053 
L 1275 3053 
L 1275 0 
L 697 0 
L 697 3053 
L 147 3053 
L 147 3500 
L 697 3500 
L 697 3744 
Q 697 4328 969 4595 
Q 1241 4863 1831 4863 
L 2375 4863 
z
" transform="scale(0.015625)"/>
       <path id="DejaVuSans-72" d="M 2631 2963 
Q 2534 3019 2420 3045 
Q 2306 3072 2169 3072 
Q 1681 3072 1420 2755 
Q 1159 2438 1159 1844 
L 1159 0 
L 581 0 
L 581 3500 
L 1159 3500 
L 1159 2956 
Q 1341 3275 1631 3429 
Q 1922 3584 2338 3584 
Q 2397 3584 2469 3576 
Q 2541 3569 2628 3553 
L 2631 2963 
z
" transform="scale(0.015625)"/>
       <path id="DejaVuSans-63" d="M 3122 3366 
L 3122 2828 
Q 2878 2963 2633 3030 
Q 2388 3097 2138 3097 
Q 1578 3097 1268 2742 
Q 959 2388 959 1747 
Q 959 1106 1268 751 
Q 1578 397 2138 397 
Q 2388 397 2633 464 
Q 2878 531 3122 666 
L 3122 134 
Q 2881 22 2623 -34 
Q 2366 -91 2075 -91 
Q 1284 -91 818 406 
Q 353 903 353 1747 
Q 353 2603 823 3093 
Q 1294 3584 2113 3584 
Q 2378 3584 2631 3529 
Q 2884 3475 3122 3366 
z
" transform="scale(0.015625)"/>
       <path id="DejaVuSans-75" d="M 544 1381 
L 544 3500 
L 1119 3500 
L 1119 1403 
Q 1119 906 1312 657 
Q 1506 409 1894 409 
Q 2359 409 2629 706 
Q 2900 1003 2900 1516 
L 2900 3500 
L 3475 3500 
L 3475 0 
L 2900 0 
L 2900 538 
Q 2691 219 2414 64 
Q 2138 -91 1772 -91 
Q 1169 -91 856 284 
Q 544 659 544 1381 
z
M 1991 3584 
L 1991 3584 
z
" transform="scale(0.015625)"/>
       <path id="DejaVuSans-28" d="M 1984 4856 
Q 1566 4138 1362 3434 
Q 1159 2731 1159 2009 
Q 1159 1288 1364 580 
Q 1569 -128 1984 -844 
L 1484 -844 
Q 1016 -109 783 600 
Q 550 1309 550 2009 
Q 550 2706 781 3412 
Q 1013 4119 1484 4856 
L 1984 4856 
z
" transform="scale(0.015625)"/>
       <path id="DejaVuSans-29" d="M 513 4856 
L 1013 4856 
Q 1481 4119 1714 3412 
Q 1947 2706 1947 2009 
Q 1947 1309 1714 600 
Q 1481 -109 1013 -844 
L 513 -844 
Q 928 -128 1133 580 
Q 1338 1288 1338 2009 
Q 1338 2731 1133 3434 
Q 928 4138 513 4856 
z
" transform="scale(0.015625)"/>
      </defs>
      <use xlink:href="#DejaVuSans-52"/>
      <use xlink:href="#DejaVuSans-65" transform="translate(64.982422 0)"/>
      <use xlink:href="#DejaVuSans-73" transform="translate(126.505859 0)"/>
      <use xlink:href="#DejaVuSans-70" transform="translate(178.605469 0)"/>
      <use xlink:href="#DejaVuSans-6f" transform="translate(242.082031 0)"/>
      <use xlink:href="#DejaVuSans-6e" transform="translate(303.263672 0)"/>
      <use xlink:href="#DejaVuSans-73" transform="translate(366.642578 0)"/>
      <use xlink:href="#DejaVuSans-65" transform="translate(418.742188 0)"/>
      <use xlink:href="#DejaVuSans-20" transform="translate(480.265625 0)"/>
      <use xlink:href="#DejaVuSans-74" transform="translate(512.052734 0)"/>
      <use xlink:href="#DejaVuSans-69" transform="translate(551.261719 0)"/>
      <use xlink:href="#DejaVuSans-6d" transform="translate(579.044922 0)"/>
      <use xlink:href="#DejaVuSans-65" transform="translate(676.457031 0)"/>
      <use xlink:href="#DejaVuSans-20" transform="translate(737.980469 0)"/>
      <use xlink:href="#DejaVuSans-66" transform="translate(769.767578 0)"/>
      <use xlink:href="#DejaVuSans-72" transform="translate(804.972656 0)"/>
      <use xlink:href="#DejaVuSans-6f" transform="translate(843.835938 0)"/>
      <use xlink:href="#DejaVuSans-6d" transform="translate(905.017578 0)"/>
      <use xlink:href="#DejaVuSans-20" transform="translate(1002.429688 0)"/>
      <use xlink:href="#DejaVuSans-63" transform="translate(1034.216797 0)"/>
      <use xlink:href="#DejaVuSans-75" transform="translate(1089.197266 0)"/>
      <use xlink:href="#DejaVuSans-65" transform="translate(1152.576172 0)"/>
      <use xlink:href="#DejaVuSans-20" transform="translate(1214.099609 0)"/>
      <use xlink:href="#DejaVuSans-28" transform="translate(1245.886719 0)"/>
      <use xlink:href="#DejaVuSans-73" transform="translate(1284.900391 0)"/>
      <use xlink:href="#DejaVuSans-29" transform="translate(1337 0)"/>
     </g>
    </g>
   </g>
   <g id="matplotlib.axis_2">
    <g id="ytick_1">
     <g id="line2d_4">
      <defs>
       <path id="m728be17490" d="M 0 0 
L -3.5 0 
" style="stroke: #000000; stroke-width: 0.8"/>
      </defs>
      <g>
       <use xlink:href="#m728be17490" x="31.97" y="109.96" style="stroke: #000000; stroke-width: 0.8"/>
      </g>
     </g>
     <g id="text_5">
      <!-- 0 -->
      <g transform="translate(19.88 112.999375) scale(0.08 -0.08)">
       <use xlink:href="#DejaVuSans-30"/>
      </g>
     </g>
    </g>
    <g id="ytick_2">
     <g id="line2d_5">
      <g>
       <use xlink:href="#m728be17490" x="31.97" y="79.998123" style="stroke: #000000; stroke-width: 0.8"/>
      </g>
     </g>
     <g id="text_6">
      <!-- 2 -->
      <g transform="translate(19.88 83.037498) scale(0.08 -0.08)">
       <defs>
        <path id="DejaVuSans-32" d="M 1228 531 
L 3431 531 
L 3431 0 
L 469 0 
L 469 531 
Q 828 903 1448 1529 
Q 2069 2156 2228 2338 
Q 2531 2678 2651 2914 
Q 2772 3150 2772 3378 
Q 2772 3750 2511 3984 
Q 2250 4219 1831 4219 
Q 1534 4219 1204 4116 
Q 875 4013 500 3803 
L 500 4441 
Q 881 4594 1212 4672 
Q 1544 4750 1819 4750 
Q 2544 4750 2975 4387 
Q 3406 4025 3406 3419 
Q 3406 3131 3298 2873 
Q 3191 2616 2906 2266 
Q 2828 2175 2409 1742 
Q 1991 1309 1228 531 
z
" transform="scale(0.015625)"/>
       </defs>
       <use xlink:href="#DejaVuSans-32"/>
      </g>
     </g>
    </g>
    <g id="ytick_3">
     <g id="line2d_6">
      <g>
       <use xlink:href="#m728be17490" x="31.97" y="50.036245" style="stroke: #000000; stroke-width: 0.8"/>
      </g>
     </g>
     <g id="text_7">
      <!-- 4 -->
      <g transform="translate(19.88 53.07562) scale(0.08 -0.08)">
       <use xlink:href="#DejaVuSans-34"/>
      </g>
     </g>
    </g>
    <g id="ytick_4">
     <g id="line2d_7">
      <g>
       <use xlink:href="#m728be17490" x="31.97" y="20.074368" style="stroke: #000000; stroke-width: 0.8"/>
      </g>
     </g>
     <g id="text_8">
      <!-- 6 -->
      <g transform="translate(19.88 23.113743) scale(0.08 -0.08)">
       <defs>
        <path id="DejaVuSans-36" d="M 2113 2584 
Q 1688 2584 1439 2293 
Q 1191 2003 1191 1497 
Q 1191 994 1439 701 
Q 1688 409 2113 409 
Q 2538 409 2786 701 
Q 3034 994 3034 1497 
Q 3034 2003 2786 2293 
Q 2538 2584 2113 2584 
z
M 3366 4563 
L 3366 3988 
Q 3128 4100 2886 4159 
Q 2644 4219 2406 4219 
Q 1781 4219 1451 3797 
Q 1122 3375 1075 2522 
Q 1259 2794 1537 2939 
Q 1816 3084 2150 3084 
Q 2853 3084 3261 2657 
Q 3669 2231 3669 1497 
Q 3669 778 3244 343 
Q 2819 -91 2113 -91 
Q 1303 -91 875 529 
Q 447 1150 447 2328 
Q 447 3434 972 4092 
Q 1497 4750 2381 4750 
Q 2619 4750 2861 4703 
Q 3103 4656 3366 4563 
z
" transform="scale(0.015625)"/>
       </defs>
       <use xlink:href="#DejaVuSans-36"/>
      </g>
     </g>
    </g>
    <g id="text_9">
     <!-- Density -->
     <g transform="translate(14.21625 74.506875) rotate(-90) scale(0.08 -0.08)">
      <defs>
       <path id="DejaVuSans-44" d="M 1259 4147 
L 1259 519 
L 2022 519 
Q 2988 519 3436 956 
Q 3884 1394 3884 2338 
Q 3884 3275 3436 3711 
Q 2988 4147 2022 4147 
L 1259 4147 
z
M 628 4666 
L 1925 4666 
Q 3281 4666 3915 4102 
Q 4550 3538 4550 2338 
Q 4550 1131 3912 565 
Q 3275 0 1925 0 
L 628 0 
L 628 4666 
z
" transform="scale(0.015625)"/>
       <path id="DejaVuSans-79" d="M 2059 -325 
Q 1816 -950 1584 -1140 
Q 1353 -1331 966 -1331 
L 506 -1331 
L 506 -850 
L 844 -850 
Q 1081 -850 1212 -737 
Q 1344 -625 1503 -206 
L 1606 56 
L 191 3500 
L 800 3500 
L 1894 763 
L 2988 3500 
L 3597 3500 
L 2059 -325 
z
" transform="scale(0.015625)"/>
      </defs>
      <use xlink:href="#DejaVuSans-44"/>
      <use xlink:href="#DejaVuSans-65" transform="translate(77.001953 0)"/>
      <use xlink:href="#DejaVuSans-6e" transform="translate(138.525391 0)"/>
      <use xlink:href="#DejaVuSans-73" transform="translate(201.904297 0)"/>
      <use xlink:href="#DejaVuSans-69" transform="translate(254.003906 0)"/>
      <use xlink:href="#DejaVuSans-74" transform="translate(281.787109 0)"/>
      <use xlink:href="#DejaVuSans-79" transform="translate(320.996094 0)"/>
     </g>
    </g>
   </g>
   <g id="patch_63">
    <path d="M 31.97 109.96 
L 31.97 8.64 
" style="fill: none; stroke: #000000; stroke-width: 0.8; stroke-linejoin: miter; stroke-linecap: square"/>
   </g>
   <g id="patch_64">
    <path d="M 135.36 109.96 
L 135.36 8.64 
" style="fill: none; stroke: #000000; stroke-width: 0.8; stroke-linejoin: miter; stroke-linecap: square"/>
   </g>
   <g id="patch_65">
    <path d="M 31.97 109.96 
L 135.36 109.96 
" style="fill: none; stroke: #000000; stroke-width: 0.8; stroke-linejoin: miter; stroke-linecap: square"/>
   </g>
   <g id="patch_66">
    <path d="M 31.97 8.64 
L 135.36 8.64 
" style="fill: none; stroke: #000000; stroke-width: 0.8; stroke-linejoin: miter; stroke-linecap: square"/>
   </g>
  </g>
 </g>
 <defs>
  <clipPath id="pb201e7ede7">
   <rect x="31.97" y="8.64" width="103.39" height="101.32"/>
  </clipPath>
 </defs>
</svg>
