<?xml version="1.0" encoding="utf-8" standalone="no"?>
<!DOCTYPE svg PUBLIC "-//W3C//DTD SVG 1.1//EN"
  "http://www.w3.org/Graphics/SVG/1.1/DTD/svg11.dtd">
<svg xmlns:xlink="http://www.w3.org/1999/xlink" width="187.2pt" height="100.8pt" viewBox="0 0 187.2 100.8" xmlns="http://www.w3.org/2000/svg" version="1.1">
 <metadata>
  <rdf:RDF xmlns:dc="http://purl.org/dc/elements/1.1/" xmlns:cc="http://creativecommons.org/ns#" xmlns:rdf="http://www.w3.org/1999/02/22-rdf-syntax-ns#">
   <cc:Work>
    <dc:type rdf:resource="http://purl.org/dc/dcmitype/StillImage"/>
    <dc:date>2025-02-04T17:22:31.433362</dc:date>
    <dc:format>image/svg+xml</dc:format>
    <dc:creator>
     <cc:Agent>
      <dc:title>Matplotlib v3.10.0, https://matplotlib.org/</dc:title>
     </cc:Agent>
    </dc:creator>
   </cc:Work>
  </rdf:RDF>
 </metadata>
 <defs>
  <style type="text/css">*{stroke-linejoin: round; stroke-linecap: butt}</style>
 </defs>
 <g id="figure_1">
  <g id="patch_1">
   <path d="M 0 100.8 
L 187.2 100.8 
L 187.2 0 
L 0 0 
z
" style="fill: #ffffff"/>
  </g>
  <g id="axes_1">
   <g id="patch_2">
    <path d="M 38.12375 66.72625 
L 102.271875 66.72625 
L 102.271875 8.64 
L 38.12375 8.64 
z
" style="fill: #ffffff"/>
   </g>
   <g id="patch_3">
    <path d="M 41.995582 66.72625 
L 42.95159 66.72625 
L 42.95159 8.64 
L 41.995582 8.64 
z
" clip-path="url(#pcc82d51d7d)" style="fill: #ff0000; opacity: 0.2; stroke: #ff0000; stroke-linejoin: miter"/>
   </g>
   <g id="patch_4">
    <path d="M 70.675816 66.72625 
L 99.356051 66.72625 
L 99.356051 8.64 
L 70.675816 8.64 
z
" clip-path="url(#pcc82d51d7d)" style="fill: #008000; opacity: 0.1; stroke: #008000; stroke-linejoin: miter"/>
   </g>
   <g id="matplotlib.axis_1">
    <g id="xtick_1">
     <g id="line2d_1">
      <defs>
       <path id="m2abcb10059" d="M 0 0 
L 0 3.5 
" style="stroke: #000000; stroke-width: 0.8"/>
      </defs>
      <g>
       <use xlink:href="#m2abcb10059" x="41.995582" y="66.72625" style="stroke: #000000; stroke-width: 0.8"/>
      </g>
     </g>
     <g id="text_1">
      <!-- 0 -->
      <g transform="translate(39.771207 79.4525) scale(0.08 -0.08)">
       <defs>
        <path id="ArialMT-30" d="M 266 2259 
Q 266 3072 433 3567 
Q 600 4063 929 4331 
Q 1259 4600 1759 4600 
Q 2128 4600 2406 4451 
Q 2684 4303 2865 4023 
Q 3047 3744 3150 3342 
Q 3253 2941 3253 2259 
Q 3253 1453 3087 958 
Q 2922 463 2592 192 
Q 2263 -78 1759 -78 
Q 1097 -78 719 397 
Q 266 969 266 2259 
z
M 844 2259 
Q 844 1131 1108 757 
Q 1372 384 1759 384 
Q 2147 384 2411 759 
Q 2675 1134 2675 2259 
Q 2675 3391 2411 3762 
Q 2147 4134 1753 4134 
Q 1366 4134 1134 3806 
Q 844 3388 844 2259 
z
" transform="scale(0.015625)"/>
       </defs>
       <use xlink:href="#ArialMT-30"/>
      </g>
     </g>
    </g>
    <g id="xtick_2">
     <g id="line2d_2">
      <g>
       <use xlink:href="#m2abcb10059" x="70.675816" y="66.72625" style="stroke: #000000; stroke-width: 0.8"/>
      </g>
     </g>
     <g id="text_2">
      <!-- 3 -->
      <g transform="translate(68.451441 79.4525) scale(0.08 -0.08)">
       <defs>
        <path id="ArialMT-33" d="M 269 1209 
L 831 1284 
Q 928 806 1161 595 
Q 1394 384 1728 384 
Q 2125 384 2398 659 
Q 2672 934 2672 1341 
Q 2672 1728 2419 1979 
Q 2166 2231 1775 2231 
Q 1616 2231 1378 2169 
L 1441 2663 
Q 1497 2656 1531 2656 
Q 1891 2656 2178 2843 
Q 2466 3031 2466 3422 
Q 2466 3731 2256 3934 
Q 2047 4138 1716 4138 
Q 1388 4138 1169 3931 
Q 950 3725 888 3313 
L 325 3413 
Q 428 3978 793 4289 
Q 1159 4600 1703 4600 
Q 2078 4600 2393 4439 
Q 2709 4278 2876 4000 
Q 3044 3722 3044 3409 
Q 3044 3113 2884 2869 
Q 2725 2625 2413 2481 
Q 2819 2388 3044 2092 
Q 3269 1797 3269 1353 
Q 3269 753 2831 336 
Q 2394 -81 1725 -81 
Q 1122 -81 723 278 
Q 325 638 269 1209 
z
" transform="scale(0.015625)"/>
       </defs>
       <use xlink:href="#ArialMT-33"/>
      </g>
     </g>
    </g>
    <g id="xtick_3">
     <g id="line2d_3">
      <g>
       <use xlink:href="#m2abcb10059" x="99.356051" y="66.72625" style="stroke: #000000; stroke-width: 0.8"/>
      </g>
     </g>
     <g id="text_3">
      <!-- 6 -->
      <g transform="translate(97.131676 79.4525) scale(0.08 -0.08)">
       <defs>
        <path id="ArialMT-36" d="M 3184 3459 
L 2625 3416 
Q 2550 3747 2413 3897 
Q 2184 4138 1850 4138 
Q 1581 4138 1378 3988 
Q 1113 3794 959 3422 
Q 806 3050 800 2363 
Q 1003 2672 1297 2822 
Q 1591 2972 1913 2972 
Q 2475 2972 2870 2558 
Q 3266 2144 3266 1488 
Q 3266 1056 3080 686 
Q 2894 316 2569 119 
Q 2244 -78 1831 -78 
Q 1128 -78 684 439 
Q 241 956 241 2144 
Q 241 3472 731 4075 
Q 1159 4600 1884 4600 
Q 2425 4600 2770 4297 
Q 3116 3994 3184 3459 
z
M 888 1484 
Q 888 1194 1011 928 
Q 1134 663 1356 523 
Q 1578 384 1822 384 
Q 2178 384 2434 671 
Q 2691 959 2691 1453 
Q 2691 1928 2437 2201 
Q 2184 2475 1800 2475 
Q 1419 2475 1153 2201 
Q 888 1928 888 1484 
z
" transform="scale(0.015625)"/>
       </defs>
       <use xlink:href="#ArialMT-36"/>
      </g>
     </g>
    </g>
    <g id="text_4">
     <!-- time after cue (s) -->
     <g transform="translate(40.192187 90.86625) scale(0.08 -0.08)">
      <defs>
       <path id="ArialMT-74" d="M 1650 503 
L 1731 6 
Q 1494 -44 1306 -44 
Q 1000 -44 831 53 
Q 663 150 594 308 
Q 525 466 525 972 
L 525 2881 
L 113 2881 
L 113 3319 
L 525 3319 
L 525 4141 
L 1084 4478 
L 1084 3319 
L 1650 3319 
L 1650 2881 
L 1084 2881 
L 1084 941 
Q 1084 700 1114 631 
Q 1144 563 1211 522 
Q 1278 481 1403 481 
Q 1497 481 1650 503 
z
" transform="scale(0.015625)"/>
       <path id="ArialMT-69" d="M 425 3934 
L 425 4581 
L 988 4581 
L 988 3934 
L 425 3934 
z
M 425 0 
L 425 3319 
L 988 3319 
L 988 0 
L 425 0 
z
" transform="scale(0.015625)"/>
       <path id="ArialMT-6d" d="M 422 0 
L 422 3319 
L 925 3319 
L 925 2853 
Q 1081 3097 1340 3245 
Q 1600 3394 1931 3394 
Q 2300 3394 2536 3241 
Q 2772 3088 2869 2813 
Q 3263 3394 3894 3394 
Q 4388 3394 4653 3120 
Q 4919 2847 4919 2278 
L 4919 0 
L 4359 0 
L 4359 2091 
Q 4359 2428 4304 2576 
Q 4250 2725 4106 2815 
Q 3963 2906 3769 2906 
Q 3419 2906 3187 2673 
Q 2956 2441 2956 1928 
L 2956 0 
L 2394 0 
L 2394 2156 
Q 2394 2531 2256 2718 
Q 2119 2906 1806 2906 
Q 1569 2906 1367 2781 
Q 1166 2656 1075 2415 
Q 984 2175 984 1722 
L 984 0 
L 422 0 
z
" transform="scale(0.015625)"/>
       <path id="ArialMT-65" d="M 2694 1069 
L 3275 997 
Q 3138 488 2766 206 
Q 2394 -75 1816 -75 
Q 1088 -75 661 373 
Q 234 822 234 1631 
Q 234 2469 665 2931 
Q 1097 3394 1784 3394 
Q 2450 3394 2872 2941 
Q 3294 2488 3294 1666 
Q 3294 1616 3291 1516 
L 816 1516 
Q 847 969 1125 678 
Q 1403 388 1819 388 
Q 2128 388 2347 550 
Q 2566 713 2694 1069 
z
M 847 1978 
L 2700 1978 
Q 2663 2397 2488 2606 
Q 2219 2931 1791 2931 
Q 1403 2931 1139 2672 
Q 875 2413 847 1978 
z
" transform="scale(0.015625)"/>
       <path id="ArialMT-20" transform="scale(0.015625)"/>
       <path id="ArialMT-61" d="M 2588 409 
Q 2275 144 1986 34 
Q 1697 -75 1366 -75 
Q 819 -75 525 192 
Q 231 459 231 875 
Q 231 1119 342 1320 
Q 453 1522 633 1644 
Q 813 1766 1038 1828 
Q 1203 1872 1538 1913 
Q 2219 1994 2541 2106 
Q 2544 2222 2544 2253 
Q 2544 2597 2384 2738 
Q 2169 2928 1744 2928 
Q 1347 2928 1158 2789 
Q 969 2650 878 2297 
L 328 2372 
Q 403 2725 575 2942 
Q 747 3159 1072 3276 
Q 1397 3394 1825 3394 
Q 2250 3394 2515 3294 
Q 2781 3194 2906 3042 
Q 3031 2891 3081 2659 
Q 3109 2516 3109 2141 
L 3109 1391 
Q 3109 606 3145 398 
Q 3181 191 3288 0 
L 2700 0 
Q 2613 175 2588 409 
z
M 2541 1666 
Q 2234 1541 1622 1453 
Q 1275 1403 1131 1340 
Q 988 1278 909 1158 
Q 831 1038 831 891 
Q 831 666 1001 516 
Q 1172 366 1500 366 
Q 1825 366 2078 508 
Q 2331 650 2450 897 
Q 2541 1088 2541 1459 
L 2541 1666 
z
" transform="scale(0.015625)"/>
       <path id="ArialMT-66" d="M 556 0 
L 556 2881 
L 59 2881 
L 59 3319 
L 556 3319 
L 556 3672 
Q 556 4006 616 4169 
Q 697 4388 901 4523 
Q 1106 4659 1475 4659 
Q 1713 4659 2000 4603 
L 1916 4113 
Q 1741 4144 1584 4144 
Q 1328 4144 1222 4034 
Q 1116 3925 1116 3625 
L 1116 3319 
L 1763 3319 
L 1763 2881 
L 1116 2881 
L 1116 0 
L 556 0 
z
" transform="scale(0.015625)"/>
       <path id="ArialMT-72" d="M 416 0 
L 416 3319 
L 922 3319 
L 922 2816 
Q 1116 3169 1280 3281 
Q 1444 3394 1641 3394 
Q 1925 3394 2219 3213 
L 2025 2691 
Q 1819 2813 1613 2813 
Q 1428 2813 1281 2702 
Q 1134 2591 1072 2394 
Q 978 2094 978 1738 
L 978 0 
L 416 0 
z
" transform="scale(0.015625)"/>
       <path id="ArialMT-63" d="M 2588 1216 
L 3141 1144 
Q 3050 572 2676 248 
Q 2303 -75 1759 -75 
Q 1078 -75 664 370 
Q 250 816 250 1647 
Q 250 2184 428 2587 
Q 606 2991 970 3192 
Q 1334 3394 1763 3394 
Q 2303 3394 2647 3120 
Q 2991 2847 3088 2344 
L 2541 2259 
Q 2463 2594 2264 2762 
Q 2066 2931 1784 2931 
Q 1359 2931 1093 2626 
Q 828 2322 828 1663 
Q 828 994 1084 691 
Q 1341 388 1753 388 
Q 2084 388 2306 591 
Q 2528 794 2588 1216 
z
" transform="scale(0.015625)"/>
       <path id="ArialMT-75" d="M 2597 0 
L 2597 488 
Q 2209 -75 1544 -75 
Q 1250 -75 995 37 
Q 741 150 617 320 
Q 494 491 444 738 
Q 409 903 409 1263 
L 409 3319 
L 972 3319 
L 972 1478 
Q 972 1038 1006 884 
Q 1059 663 1231 536 
Q 1403 409 1656 409 
Q 1909 409 2131 539 
Q 2353 669 2445 892 
Q 2538 1116 2538 1541 
L 2538 3319 
L 3100 3319 
L 3100 0 
L 2597 0 
z
" transform="scale(0.015625)"/>
       <path id="ArialMT-28" d="M 1497 -1347 
Q 1031 -759 709 28 
Q 388 816 388 1659 
Q 388 2403 628 3084 
Q 909 3875 1497 4659 
L 1900 4659 
Q 1522 4009 1400 3731 
Q 1209 3300 1100 2831 
Q 966 2247 966 1656 
Q 966 153 1900 -1347 
L 1497 -1347 
z
" transform="scale(0.015625)"/>
       <path id="ArialMT-73" d="M 197 991 
L 753 1078 
Q 800 744 1014 566 
Q 1228 388 1613 388 
Q 2000 388 2187 545 
Q 2375 703 2375 916 
Q 2375 1106 2209 1216 
Q 2094 1291 1634 1406 
Q 1016 1563 777 1677 
Q 538 1791 414 1992 
Q 291 2194 291 2438 
Q 291 2659 392 2848 
Q 494 3038 669 3163 
Q 800 3259 1026 3326 
Q 1253 3394 1513 3394 
Q 1903 3394 2198 3281 
Q 2494 3169 2634 2976 
Q 2775 2784 2828 2463 
L 2278 2388 
Q 2241 2644 2061 2787 
Q 1881 2931 1553 2931 
Q 1166 2931 1000 2803 
Q 834 2675 834 2503 
Q 834 2394 903 2306 
Q 972 2216 1119 2156 
Q 1203 2125 1616 2013 
Q 2213 1853 2448 1751 
Q 2684 1650 2818 1456 
Q 2953 1263 2953 975 
Q 2953 694 2789 445 
Q 2625 197 2315 61 
Q 2006 -75 1616 -75 
Q 969 -75 630 194 
Q 291 463 197 991 
z
" transform="scale(0.015625)"/>
       <path id="ArialMT-29" d="M 791 -1347 
L 388 -1347 
Q 1322 153 1322 1656 
Q 1322 2244 1188 2822 
Q 1081 3291 891 3722 
Q 769 4003 388 4659 
L 791 4659 
Q 1378 3875 1659 3084 
Q 1900 2403 1900 1659 
Q 1900 816 1576 28 
Q 1253 -759 791 -1347 
z
" transform="scale(0.015625)"/>
      </defs>
      <use xlink:href="#ArialMT-74"/>
      <use xlink:href="#ArialMT-69" transform="translate(27.783203 0)"/>
      <use xlink:href="#ArialMT-6d" transform="translate(50 0)"/>
      <use xlink:href="#ArialMT-65" transform="translate(133.300781 0)"/>
      <use xlink:href="#ArialMT-20" transform="translate(188.916016 0)"/>
      <use xlink:href="#ArialMT-61" transform="translate(216.699219 0)"/>
      <use xlink:href="#ArialMT-66" transform="translate(272.314453 0)"/>
      <use xlink:href="#ArialMT-74" transform="translate(300.097656 0)"/>
      <use xlink:href="#ArialMT-65" transform="translate(327.880859 0)"/>
      <use xlink:href="#ArialMT-72" transform="translate(383.496094 0)"/>
      <use xlink:href="#ArialMT-20" transform="translate(416.796875 0)"/>
      <use xlink:href="#ArialMT-63" transform="translate(444.580078 0)"/>
      <use xlink:href="#ArialMT-75" transform="translate(494.580078 0)"/>
      <use xlink:href="#ArialMT-65" transform="translate(550.195312 0)"/>
      <use xlink:href="#ArialMT-20" transform="translate(605.810547 0)"/>
      <use xlink:href="#ArialMT-28" transform="translate(633.59375 0)"/>
      <use xlink:href="#ArialMT-73" transform="translate(666.894531 0)"/>
      <use xlink:href="#ArialMT-29" transform="translate(716.894531 0)"/>
     </g>
    </g>
   </g>
   <g id="matplotlib.axis_2">
    <g id="ytick_1">
     <g id="line2d_4">
      <defs>
       <path id="m1d5a9063e7" d="M 0 0 
L -3.5 0 
" style="stroke: #000000; stroke-width: 0.8"/>
      </defs>
      <g>
       <use xlink:href="#m1d5a9063e7" x="38.12375" y="64.085966" style="stroke: #000000; stroke-width: 0.8"/>
      </g>
     </g>
     <g id="text_5">
      <!-- 0.0 -->
      <g transform="translate(20.00375 66.949091) scale(0.08 -0.08)">
       <defs>
        <path id="ArialMT-2e" d="M 581 0 
L 581 641 
L 1222 641 
L 1222 0 
L 581 0 
z
" transform="scale(0.015625)"/>
       </defs>
       <use xlink:href="#ArialMT-30"/>
       <use xlink:href="#ArialMT-2e" transform="translate(55.615234 0)"/>
       <use xlink:href="#ArialMT-30" transform="translate(83.398438 0)"/>
      </g>
     </g>
    </g>
    <g id="ytick_2">
     <g id="line2d_5">
      <g>
       <use xlink:href="#m1d5a9063e7" x="38.12375" y="37.683125" style="stroke: #000000; stroke-width: 0.8"/>
      </g>
     </g>
     <g id="text_6">
      <!-- 0.5 -->
      <g transform="translate(20.00375 40.54625) scale(0.08 -0.08)">
       <defs>
        <path id="ArialMT-35" d="M 266 1200 
L 856 1250 
Q 922 819 1161 601 
Q 1400 384 1738 384 
Q 2144 384 2425 690 
Q 2706 997 2706 1503 
Q 2706 1984 2436 2262 
Q 2166 2541 1728 2541 
Q 1456 2541 1237 2417 
Q 1019 2294 894 2097 
L 366 2166 
L 809 4519 
L 3088 4519 
L 3088 3981 
L 1259 3981 
L 1013 2750 
Q 1425 3038 1878 3038 
Q 2478 3038 2890 2622 
Q 3303 2206 3303 1553 
Q 3303 931 2941 478 
Q 2500 -78 1738 -78 
Q 1113 -78 717 272 
Q 322 622 266 1200 
z
" transform="scale(0.015625)"/>
       </defs>
       <use xlink:href="#ArialMT-30"/>
       <use xlink:href="#ArialMT-2e" transform="translate(55.615234 0)"/>
       <use xlink:href="#ArialMT-35" transform="translate(83.398438 0)"/>
      </g>
     </g>
    </g>
    <g id="ytick_3">
     <g id="line2d_6">
      <g>
       <use xlink:href="#m1d5a9063e7" x="38.12375" y="11.280284" style="stroke: #000000; stroke-width: 0.8"/>
      </g>
     </g>
     <g id="text_7">
      <!-- 1.0 -->
      <g transform="translate(20.00375 14.143409) scale(0.08 -0.08)">
       <defs>
        <path id="ArialMT-31" d="M 2384 0 
L 1822 0 
L 1822 3584 
Q 1619 3391 1289 3197 
Q 959 3003 697 2906 
L 697 3450 
Q 1169 3672 1522 3987 
Q 1875 4303 2022 4600 
L 2384 4600 
L 2384 0 
z
" transform="scale(0.015625)"/>
       </defs>
       <use xlink:href="#ArialMT-31"/>
       <use xlink:href="#ArialMT-2e" transform="translate(55.615234 0)"/>
       <use xlink:href="#ArialMT-30" transform="translate(83.398438 0)"/>
      </g>
     </g>
    </g>
    <g id="text_8">
     <!-- output -->
     <g transform="translate(14.41375 48.803125) rotate(-90) scale(0.08 -0.08)">
      <defs>
       <path id="ArialMT-6f" d="M 213 1659 
Q 213 2581 725 3025 
Q 1153 3394 1769 3394 
Q 2453 3394 2887 2945 
Q 3322 2497 3322 1706 
Q 3322 1066 3130 698 
Q 2938 331 2570 128 
Q 2203 -75 1769 -75 
Q 1072 -75 642 372 
Q 213 819 213 1659 
z
M 791 1659 
Q 791 1022 1069 705 
Q 1347 388 1769 388 
Q 2188 388 2466 706 
Q 2744 1025 2744 1678 
Q 2744 2294 2464 2611 
Q 2184 2928 1769 2928 
Q 1347 2928 1069 2612 
Q 791 2297 791 1659 
z
" transform="scale(0.015625)"/>
       <path id="ArialMT-70" d="M 422 -1272 
L 422 3319 
L 934 3319 
L 934 2888 
Q 1116 3141 1344 3267 
Q 1572 3394 1897 3394 
Q 2322 3394 2647 3175 
Q 2972 2956 3137 2557 
Q 3303 2159 3303 1684 
Q 3303 1175 3120 767 
Q 2938 359 2589 142 
Q 2241 -75 1856 -75 
Q 1575 -75 1351 44 
Q 1128 163 984 344 
L 984 -1272 
L 422 -1272 
z
M 931 1641 
Q 931 1000 1190 694 
Q 1450 388 1819 388 
Q 2194 388 2461 705 
Q 2728 1022 2728 1688 
Q 2728 2322 2467 2637 
Q 2206 2953 1844 2953 
Q 1484 2953 1207 2617 
Q 931 2281 931 1641 
z
" transform="scale(0.015625)"/>
      </defs>
      <use xlink:href="#ArialMT-6f"/>
      <use xlink:href="#ArialMT-75" transform="translate(55.615234 0)"/>
      <use xlink:href="#ArialMT-74" transform="translate(111.230469 0)"/>
      <use xlink:href="#ArialMT-70" transform="translate(139.013672 0)"/>
      <use xlink:href="#ArialMT-75" transform="translate(194.628906 0)"/>
      <use xlink:href="#ArialMT-74" transform="translate(250.244141 0)"/>
     </g>
    </g>
   </g>
   <g id="line2d_7">
    <path d="M 41.039574 64.085966 
L 41.628629 64.085966 
L 42.217685 64.085966 
L 42.80674 64.085966 
L 43.395795 64.085966 
L 43.98485 64.085966 
L 44.573906 64.085966 
L 45.162961 64.085966 
L 45.752016 64.085966 
L 46.341072 64.085966 
L 46.930127 64.085966 
L 47.519182 64.085966 
L 48.108238 64.085966 
L 48.697293 64.085966 
L 49.286348 64.085966 
L 49.875404 64.085966 
L 50.464459 64.085966 
L 51.053514 64.085966 
L 51.64257 64.085966 
L 52.231625 64.085966 
L 52.82068 64.085966 
L 53.409736 64.085966 
L 53.998791 64.085966 
L 54.587846 64.085966 
L 55.176902 64.085966 
L 55.765957 64.085966 
L 56.355012 64.085966 
L 56.944068 64.085966 
L 57.533123 64.085966 
L 58.122178 64.085966 
L 58.711234 64.085966 
L 59.300289 64.085966 
L 59.889344 64.085966 
L 60.4784 64.085966 
L 61.067455 64.085966 
L 61.65651 64.085966 
L 62.245566 64.085966 
L 62.834621 64.085966 
L 63.423676 64.085966 
L 64.012732 64.085966 
L 64.601787 64.085966 
L 65.190842 64.085966 
L 65.779898 64.085966 
L 66.368953 64.085966 
L 66.958008 64.085966 
L 67.547064 64.085966 
L 68.136119 64.085966 
L 68.725174 64.085966 
L 69.31423 64.085966 
L 69.903285 64.085966 
L 70.49234 64.085966 
L 71.081395 11.280284 
L 71.670451 11.280284 
L 72.259506 11.280284 
L 72.848561 11.280284 
L 73.437617 11.280284 
L 74.026672 11.280284 
L 74.615727 64.085966 
L 75.204783 64.085966 
L 75.793838 64.085966 
L 76.382893 64.085966 
L 76.971949 64.085966 
L 77.561004 64.085966 
L 78.150059 64.085966 
L 78.739115 64.085966 
L 79.32817 64.085966 
L 79.917225 64.085966 
L 80.506281 64.085966 
L 81.095336 64.085966 
L 81.684391 64.085966 
L 82.273447 64.085966 
L 82.862502 64.085966 
L 83.451557 64.085966 
L 84.040613 64.085966 
L 84.629668 64.085966 
L 85.218723 64.085966 
L 85.807779 64.085966 
L 86.396834 64.085966 
L 86.985889 64.085966 
L 87.574945 64.085966 
L 88.164 64.085966 
L 88.753055 64.085966 
L 89.342111 64.085966 
L 89.931166 64.085966 
L 90.520221 64.085966 
L 91.109277 64.085966 
L 91.698332 64.085966 
L 92.287387 64.085966 
L 92.876443 64.085966 
L 93.465498 64.085966 
L 94.054553 64.085966 
L 94.643609 64.085966 
L 95.232664 64.085966 
L 95.821719 64.085966 
L 96.410775 64.085966 
L 96.99983 64.085966 
L 97.588885 64.085966 
L 98.17794 64.085966 
L 98.766996 64.085966 
L 99.356051 64.085966 
" clip-path="url(#pcc82d51d7d)" style="fill: none; stroke: #006400; stroke-width: 1.5; stroke-linecap: square"/>
   </g>
   <g id="line2d_8">
    <path d="M 41.995582 64.085966 
L 42.57498 64.085966 
L 43.154379 64.085966 
L 43.733778 64.085966 
L 44.313176 64.085966 
L 44.892575 64.085966 
L 45.471974 64.085966 
L 46.051372 64.085966 
L 46.630771 64.085966 
L 47.21017 64.085966 
L 47.789569 64.085966 
L 48.368967 64.085966 
L 48.948366 64.085966 
L 49.527765 64.085966 
L 50.107163 64.085965 
L 50.686562 64.085963 
L 51.265961 64.085952 
L 51.845359 64.085906 
L 52.424758 64.085726 
L 53.004157 64.085078 
L 53.583555 64.082915 
L 54.162954 64.076228 
L 54.742353 64.057083 
L 55.321751 64.006364 
L 55.90115 63.882123 
L 56.480549 63.600941 
L 57.059947 63.013637 
L 57.639346 61.8831 
L 58.218745 59.881178 
L 58.798143 56.628418 
L 59.377542 51.796192 
L 59.956941 45.267351 
L 60.536339 37.3111 
L 61.115738 28.689259 
L 61.695137 20.605486 
L 62.274536 14.458546 
L 62.853934 11.45456 
L 63.433333 12.222188 
L 64.012732 16.598473 
L 64.59213 23.685141 
L 65.171529 32.148744 
L 65.750928 40.627482 
L 66.330326 48.075696 
L 66.909725 53.932992 
L 67.489124 58.103451 
L 68.068522 60.810522 
L 68.647921 62.419668 
L 69.22732 63.29832 
L 69.806718 63.740023 
L 70.386117 63.944785 
L 70.965516 64.032431 
L 71.544914 64.067103 
L 72.124313 64.079791 
L 72.703712 64.084087 
L 73.28311 64.085435 
L 73.862509 64.085826 
L 74.441908 64.085932 
L 75.021307 64.085958 
L 75.600705 64.085964 
L 76.180104 64.085966 
L 76.759503 64.085966 
L 77.338901 64.085966 
L 77.9183 64.085966 
L 78.497699 64.085966 
L 79.077097 64.085966 
L 79.656496 64.085966 
L 80.235895 64.085966 
L 80.815293 64.085966 
L 81.394692 64.085966 
L 81.974091 64.085966 
L 82.553489 64.085966 
L 83.132888 64.085966 
L 83.712287 64.085966 
L 84.291685 64.085966 
L 84.871084 64.085966 
L 85.450483 64.085966 
L 86.029881 64.085966 
L 86.60928 64.085966 
L 87.188679 64.085966 
L 87.768078 64.085966 
L 88.347476 64.085966 
L 88.926875 64.085966 
L 89.506274 64.085966 
L 90.085672 64.085966 
L 90.665071 64.085966 
L 91.24447 64.085966 
L 91.823868 64.085966 
L 92.403267 64.085966 
L 92.982666 64.085966 
L 93.562064 64.085966 
L 94.141463 64.085966 
L 94.720862 64.085966 
L 95.30026 64.085966 
L 95.879659 64.085966 
L 96.459058 64.085966 
L 97.038456 64.085966 
L 97.617855 64.085966 
L 98.197254 64.085966 
L 98.776652 64.085966 
L 99.356051 64.085966 
" clip-path="url(#pcc82d51d7d)" style="fill: none; stroke-dasharray: 5.55,2.4; stroke-dashoffset: 0; stroke: #000000; stroke-opacity: 0.5; stroke-width: 1.5"/>
   </g>
   <g id="patch_5">
    <path d="M 38.12375 66.72625 
L 38.12375 8.64 
" style="fill: none; stroke: #000000; stroke-width: 0.8; stroke-linejoin: miter; stroke-linecap: square"/>
   </g>
   <g id="patch_6">
    <path d="M 102.271875 66.72625 
L 102.271875 8.64 
" style="fill: none; stroke: #000000; stroke-width: 0.8; stroke-linejoin: miter; stroke-linecap: square"/>
   </g>
   <g id="patch_7">
    <path d="M 38.12375 66.72625 
L 102.271875 66.72625 
" style="fill: none; stroke: #000000; stroke-width: 0.8; stroke-linejoin: miter; stroke-linecap: square"/>
   </g>
   <g id="patch_8">
    <path d="M 38.12375 8.64 
L 102.271875 8.64 
" style="fill: none; stroke: #000000; stroke-width: 0.8; stroke-linejoin: miter; stroke-linecap: square"/>
   </g>
  </g>
  <g id="axes_2">
   <g id="patch_9">
    <path d="M 114.411875 66.72625 
L 178.56 66.72625 
L 178.56 8.64 
L 114.411875 8.64 
z
" style="fill: #ffffff"/>
   </g>
   <g id="patch_10">
    <path d="M 118.283707 66.72625 
L 119.239715 66.72625 
L 119.239715 8.64 
L 118.283707 8.64 
z
" clip-path="url(#pe4edb8a9f4)" style="fill: #ff0000; opacity: 0.2; stroke: #ff0000; stroke-linejoin: miter"/>
   </g>
   <g id="patch_11">
    <path d="M 146.963941 66.72625 
L 175.644176 66.72625 
L 175.644176 8.64 
L 146.963941 8.64 
z
" clip-path="url(#pe4edb8a9f4)" style="fill: #008000; opacity: 0.1; stroke: #008000; stroke-linejoin: miter"/>
   </g>
   <g id="matplotlib.axis_3">
    <g id="xtick_4">
     <g id="line2d_9">
      <g>
       <use xlink:href="#m2abcb10059" x="118.283707" y="66.72625" style="stroke: #000000; stroke-width: 0.8"/>
      </g>
     </g>
     <g id="text_9">
      <!-- 0 -->
      <g transform="translate(116.059332 79.4525) scale(0.08 -0.08)">
       <use xlink:href="#ArialMT-30"/>
      </g>
     </g>
    </g>
    <g id="xtick_5">
     <g id="line2d_10">
      <g>
       <use xlink:href="#m2abcb10059" x="146.963941" y="66.72625" style="stroke: #000000; stroke-width: 0.8"/>
      </g>
     </g>
     <g id="text_10">
      <!-- 3 -->
      <g transform="translate(144.739566 79.4525) scale(0.08 -0.08)">
       <use xlink:href="#ArialMT-33"/>
      </g>
     </g>
    </g>
    <g id="xtick_6">
     <g id="line2d_11">
      <g>
       <use xlink:href="#m2abcb10059" x="175.644176" y="66.72625" style="stroke: #000000; stroke-width: 0.8"/>
      </g>
     </g>
     <g id="text_11">
      <!-- 6 -->
      <g transform="translate(173.419801 79.4525) scale(0.08 -0.08)">
       <use xlink:href="#ArialMT-36"/>
      </g>
     </g>
    </g>
    <g id="text_12">
     <!-- time after cue (s) -->
     <g transform="translate(116.480313 90.86625) scale(0.08 -0.08)">
      <use xlink:href="#ArialMT-74"/>
      <use xlink:href="#ArialMT-69" transform="translate(27.783203 0)"/>
      <use xlink:href="#ArialMT-6d" transform="translate(50 0)"/>
      <use xlink:href="#ArialMT-65" transform="translate(133.300781 0)"/>
      <use xlink:href="#ArialMT-20" transform="translate(188.916016 0)"/>
      <use xlink:href="#ArialMT-61" transform="translate(216.699219 0)"/>
      <use xlink:href="#ArialMT-66" transform="translate(272.314453 0)"/>
      <use xlink:href="#ArialMT-74" transform="translate(300.097656 0)"/>
      <use xlink:href="#ArialMT-65" transform="translate(327.880859 0)"/>
      <use xlink:href="#ArialMT-72" transform="translate(383.496094 0)"/>
      <use xlink:href="#ArialMT-20" transform="translate(416.796875 0)"/>
      <use xlink:href="#ArialMT-63" transform="translate(444.580078 0)"/>
      <use xlink:href="#ArialMT-75" transform="translate(494.580078 0)"/>
      <use xlink:href="#ArialMT-65" transform="translate(550.195312 0)"/>
      <use xlink:href="#ArialMT-20" transform="translate(605.810547 0)"/>
      <use xlink:href="#ArialMT-28" transform="translate(633.59375 0)"/>
      <use xlink:href="#ArialMT-73" transform="translate(666.894531 0)"/>
      <use xlink:href="#ArialMT-29" transform="translate(716.894531 0)"/>
     </g>
    </g>
   </g>
   <g id="matplotlib.axis_4">
    <g id="ytick_4">
     <g id="line2d_12">
      <g>
       <use xlink:href="#m1d5a9063e7" x="114.411875" y="64.085966" style="stroke: #000000; stroke-width: 0.8"/>
      </g>
     </g>
    </g>
    <g id="ytick_5">
     <g id="line2d_13">
      <g>
       <use xlink:href="#m1d5a9063e7" x="114.411875" y="37.683125" style="stroke: #000000; stroke-width: 0.8"/>
      </g>
     </g>
    </g>
    <g id="ytick_6">
     <g id="line2d_14">
      <g>
       <use xlink:href="#m1d5a9063e7" x="114.411875" y="11.280284" style="stroke: #000000; stroke-width: 0.8"/>
      </g>
     </g>
    </g>
   </g>
   <g id="line2d_15">
    <path d="M 117.327699 64.085966 
L 117.916754 64.085966 
L 118.50581 64.085966 
L 119.094865 64.085966 
L 119.68392 64.085966 
L 120.272975 64.085966 
L 120.862031 64.085966 
L 121.451086 64.085966 
L 122.040141 64.085966 
L 122.629197 64.085966 
L 123.218252 64.085966 
L 123.807307 64.085966 
L 124.396363 64.085966 
L 124.985418 64.085966 
L 125.574473 64.085966 
L 126.163529 64.085966 
L 126.752584 64.085966 
L 127.341639 64.085966 
L 127.930695 64.085966 
L 128.51975 64.085966 
L 129.108805 64.085966 
L 129.697861 64.085966 
L 130.286916 64.085966 
L 130.875971 64.085966 
L 131.465027 64.085966 
L 132.054082 64.085966 
L 132.643137 64.085966 
L 133.232193 64.085966 
L 133.821248 64.085966 
L 134.410303 64.085966 
L 134.999359 64.085966 
L 135.588414 64.085966 
L 136.177469 64.085966 
L 136.766525 64.085966 
L 137.35558 64.085966 
L 137.944635 64.085966 
L 138.533691 64.085966 
L 139.122746 64.085966 
L 139.711801 64.085966 
L 140.300857 64.085966 
L 140.889912 64.085966 
L 141.478967 64.085966 
L 142.068023 64.085966 
L 142.657078 64.085966 
L 143.246133 64.085966 
L 143.835189 64.085966 
L 144.424244 64.085966 
L 145.013299 64.085966 
L 145.602355 64.085966 
L 146.19141 64.085966 
L 146.780465 64.085966 
L 147.36952 64.085966 
L 147.958576 64.085966 
L 148.547631 64.085966 
L 149.136686 64.085966 
L 149.725742 64.085966 
L 150.314797 64.085966 
L 150.903852 64.085966 
L 151.492908 64.085966 
L 152.081963 64.085966 
L 152.671018 64.085966 
L 153.260074 64.085966 
L 153.849129 64.085966 
L 154.438184 64.085966 
L 155.02724 64.085966 
L 155.616295 64.085966 
L 156.20535 64.085966 
L 156.794406 11.280284 
L 157.383461 11.280284 
L 157.972516 11.280284 
L 158.561572 11.280284 
L 159.150627 11.280284 
L 159.739682 11.280284 
L 160.328738 11.280284 
L 160.917793 64.085966 
L 161.506848 64.085966 
L 162.095904 64.085966 
L 162.684959 64.085966 
L 163.274014 64.085966 
L 163.86307 64.085966 
L 164.452125 64.085966 
L 165.04118 64.085966 
L 165.630236 64.085966 
L 166.219291 64.085966 
L 166.808346 64.085966 
L 167.397402 64.085966 
L 167.986457 64.085966 
L 168.575512 64.085966 
L 169.164568 64.085966 
L 169.753623 64.085966 
L 170.342678 64.085966 
L 170.931734 64.085966 
L 171.520789 64.085966 
L 172.109844 64.085966 
L 172.6989 64.085966 
L 173.287955 64.085966 
L 173.87701 64.085966 
L 174.466065 64.085966 
L 175.055121 64.085966 
L 175.644176 64.085966 
" clip-path="url(#pe4edb8a9f4)" style="fill: none; stroke: #006400; stroke-width: 1.5; stroke-linecap: square"/>
   </g>
   <g id="line2d_16">
    <path d="M 118.283707 64.085966 
L 118.863105 64.085966 
L 119.442504 64.085966 
L 120.021903 64.085966 
L 120.601301 64.085966 
L 121.1807 64.085966 
L 121.760099 64.085966 
L 122.339497 64.085966 
L 122.918896 64.085966 
L 123.498295 64.085966 
L 124.077694 64.085966 
L 124.657092 64.085966 
L 125.236491 64.085966 
L 125.81589 64.085966 
L 126.395288 64.085966 
L 126.974687 64.085966 
L 127.554086 64.085966 
L 128.133484 64.085966 
L 128.712883 64.085966 
L 129.292282 64.085966 
L 129.87168 64.085966 
L 130.451079 64.085966 
L 131.030478 64.085966 
L 131.609876 64.085966 
L 132.189275 64.085966 
L 132.768674 64.085966 
L 133.348072 64.085966 
L 133.927471 64.085966 
L 134.50687 64.085966 
L 135.086268 64.085966 
L 135.665667 64.085966 
L 136.245066 64.085966 
L 136.824464 64.085966 
L 137.403863 64.085966 
L 137.983262 64.085966 
L 138.562661 64.085966 
L 139.142059 64.085966 
L 139.721458 64.085966 
L 140.300857 64.085966 
L 140.880255 64.085966 
L 141.459654 64.085966 
L 142.039053 64.085966 
L 142.618451 64.085966 
L 143.19785 64.085966 
L 143.777249 64.085966 
L 144.356647 64.085966 
L 144.936046 64.085966 
L 145.515445 64.085966 
L 146.094843 64.085965 
L 146.674242 64.085962 
L 147.253641 64.085947 
L 147.833039 64.085886 
L 148.412438 64.085645 
L 148.991837 64.084774 
L 149.571235 64.08186 
L 150.150634 64.072859 
L 150.730033 64.047184 
L 151.309432 63.979604 
L 151.88883 63.815594 
L 152.468229 63.448931 
L 153.047628 62.694771 
L 153.627026 61.269942 
L 154.206425 58.80263 
L 154.785824 54.898332 
L 155.365222 49.277069 
L 155.944621 41.961883 
L 156.52402 33.45001 
L 157.103418 24.765273 
L 157.682817 17.308739 
L 158.262216 12.507153 
L 158.841614 11.371259 
L 159.421013 14.149728 
L 160.000412 20.240629 
L 160.57981 28.403522 
L 161.159209 37.170039 
L 161.738608 45.267351 
L 162.318006 51.890749 
L 162.897405 56.760841 
L 163.476804 60.007808 
L 164.056203 61.981525 
L 164.635601 63.079422 
L 165.215 63.639742 
L 165.794399 63.90261 
L 166.373797 64.016133 
L 166.953196 64.061314 
L 167.532595 64.0779 
L 168.111993 64.08352 
L 168.691392 64.085278 
L 169.270791 64.085787 
L 169.850189 64.085923 
L 170.429588 64.085956 
L 171.008987 64.085964 
L 171.588385 64.085966 
L 172.167784 64.085966 
L 172.747183 64.085966 
L 173.326581 64.085966 
L 173.90598 64.085966 
L 174.485379 64.085966 
L 175.064777 64.085966 
L 175.644176 64.085966 
" clip-path="url(#pe4edb8a9f4)" style="fill: none; stroke-dasharray: 5.55,2.4; stroke-dashoffset: 0; stroke: #000000; stroke-opacity: 0.5; stroke-width: 1.5"/>
   </g>
   <g id="patch_12">
    <path d="M 114.411875 66.72625 
L 114.411875 8.64 
" style="fill: none; stroke: #000000; stroke-width: 0.8; stroke-linejoin: miter; stroke-linecap: square"/>
   </g>
   <g id="patch_13">
    <path d="M 178.56 66.72625 
L 178.56 8.64 
" style="fill: none; stroke: #000000; stroke-width: 0.8; stroke-linejoin: miter; stroke-linecap: square"/>
   </g>
   <g id="patch_14">
    <path d="M 114.411875 66.72625 
L 178.56 66.72625 
" style="fill: none; stroke: #000000; stroke-width: 0.8; stroke-linejoin: miter; stroke-linecap: square"/>
   </g>
   <g id="patch_15">
    <path d="M 114.411875 8.64 
L 178.56 8.64 
" style="fill: none; stroke: #000000; stroke-width: 0.8; stroke-linejoin: miter; stroke-linecap: square"/>
   </g>
  </g>
 </g>
 <defs>
  <clipPath id="pcc82d51d7d">
   <rect x="38.12375" y="8.64" width="64.148125" height="58.08625"/>
  </clipPath>
  <clipPath id="pe4edb8a9f4">
   <rect x="114.411875" y="8.64" width="64.148125" height="58.08625"/>
  </clipPath>
 </defs>
</svg>
