<?xml version="1.0" encoding="utf-8" standalone="no"?>
<!DOCTYPE svg PUBLIC "-//W3C//DTD SVG 1.1//EN"
  "http://www.w3.org/Graphics/SVG/1.1/DTD/svg11.dtd">
<svg xmlns:xlink="http://www.w3.org/1999/xlink" width="129.6pt" height="108pt" viewBox="0 0 129.6 108" xmlns="http://www.w3.org/2000/svg" version="1.1">
 <metadata>
  <rdf:RDF xmlns:dc="http://purl.org/dc/elements/1.1/" xmlns:cc="http://creativecommons.org/ns#" xmlns:rdf="http://www.w3.org/1999/02/22-rdf-syntax-ns#">
   <cc:Work>
    <dc:type rdf:resource="http://purl.org/dc/dcmitype/StillImage"/>
    <dc:date>2025-02-06T16:11:53.151466</dc:date>
    <dc:format>image/svg+xml</dc:format>
    <dc:creator>
     <cc:Agent>
      <dc:title>Matplotlib v3.10.0, https://matplotlib.org/</dc:title>
     </cc:Agent>
    </dc:creator>
   </cc:Work>
  </rdf:RDF>
 </metadata>
 <defs>
  <style type="text/css">*{stroke-linejoin: round; stroke-linecap: butt}</style>
 </defs>
 <g id="figure_1">
  <g id="patch_1">
   <path d="M 0 108 
L 129.6 108 
L 129.6 0 
L 0 0 
z
" style="fill: #ffffff"/>
  </g>
  <g id="axes_1">
   <g id="patch_2">
    <path d="M 42.62375 73.92625 
L 120.96 73.92625 
L 120.96 8.64 
L 42.62375 8.64 
z
" style="fill: #ffffff"/>
   </g>
   <g id="patch_3">
    <path d="M 46.184489 73.92625 
L 49.76312 73.92625 
L 49.76312 8.64 
L 46.184489 8.64 
z
" clip-path="url(#p642b0a1d3a)" style="fill: #ff0000; opacity: 0.2; stroke: #ff0000; stroke-linejoin: miter"/>
   </g>
   <g id="patch_4">
    <path d="M 55.131068 73.92625 
L 99.863965 73.92625 
L 99.863965 8.64 
L 55.131068 8.64 
z
" clip-path="url(#p642b0a1d3a)" style="fill: #808080; opacity: 0.2; stroke: #808080; stroke-linejoin: miter"/>
   </g>
   <g id="matplotlib.axis_1">
    <g id="xtick_1">
     <g id="line2d_1">
      <defs>
       <path id="m4bbaf317c7" d="M 0 0 
L 0 3.5 
" style="stroke: #000000; stroke-width: 0.8"/>
      </defs>
      <g>
       <use xlink:href="#m4bbaf317c7" x="46.184489" y="73.92625" style="stroke: #000000; stroke-width: 0.8"/>
      </g>
     </g>
     <g id="text_1">
      <!-- 0 -->
      <g transform="translate(43.960114 86.6525) scale(0.08 -0.08)">
       <defs>
        <path id="ArialMT-30" d="M 266 2259 
Q 266 3072 433 3567 
Q 600 4063 929 4331 
Q 1259 4600 1759 4600 
Q 2128 4600 2406 4451 
Q 2684 4303 2865 4023 
Q 3047 3744 3150 3342 
Q 3253 2941 3253 2259 
Q 3253 1453 3087 958 
Q 2922 463 2592 192 
Q 2263 -78 1759 -78 
Q 1097 -78 719 397 
Q 266 969 266 2259 
z
M 844 2259 
Q 844 1131 1108 757 
Q 1372 384 1759 384 
Q 2147 384 2411 759 
Q 2675 1134 2675 2259 
Q 2675 3391 2411 3762 
Q 2147 4134 1753 4134 
Q 1366 4134 1134 3806 
Q 844 3388 844 2259 
z
" transform="scale(0.015625)"/>
       </defs>
       <use xlink:href="#ArialMT-30"/>
      </g>
     </g>
    </g>
    <g id="xtick_2">
     <g id="line2d_2">
      <g>
       <use xlink:href="#m4bbaf317c7" x="81.970806" y="73.92625" style="stroke: #000000; stroke-width: 0.8"/>
      </g>
     </g>
     <g id="text_2">
      <!-- 1 -->
      <g transform="translate(79.746431 86.6525) scale(0.08 -0.08)">
       <defs>
        <path id="ArialMT-31" d="M 2384 0 
L 1822 0 
L 1822 3584 
Q 1619 3391 1289 3197 
Q 959 3003 697 2906 
L 697 3450 
Q 1169 3672 1522 3987 
Q 1875 4303 2022 4600 
L 2384 4600 
L 2384 0 
z
" transform="scale(0.015625)"/>
       </defs>
       <use xlink:href="#ArialMT-31"/>
      </g>
     </g>
    </g>
    <g id="xtick_3">
     <g id="line2d_3">
      <g>
       <use xlink:href="#m4bbaf317c7" x="117.757124" y="73.92625" style="stroke: #000000; stroke-width: 0.8"/>
      </g>
     </g>
     <g id="text_3">
      <!-- 2 -->
      <g transform="translate(115.532749 86.6525) scale(0.08 -0.08)">
       <defs>
        <path id="ArialMT-32" d="M 3222 541 
L 3222 0 
L 194 0 
Q 188 203 259 391 
Q 375 700 629 1000 
Q 884 1300 1366 1694 
Q 2113 2306 2375 2664 
Q 2638 3022 2638 3341 
Q 2638 3675 2398 3904 
Q 2159 4134 1775 4134 
Q 1369 4134 1125 3890 
Q 881 3647 878 3216 
L 300 3275 
Q 359 3922 746 4261 
Q 1134 4600 1788 4600 
Q 2447 4600 2831 4234 
Q 3216 3869 3216 3328 
Q 3216 3053 3103 2787 
Q 2991 2522 2730 2228 
Q 2469 1934 1863 1422 
Q 1356 997 1212 845 
Q 1069 694 975 541 
L 3222 541 
z
" transform="scale(0.015625)"/>
       </defs>
       <use xlink:href="#ArialMT-32"/>
      </g>
     </g>
    </g>
    <g id="text_4">
     <!-- time after cue (s) -->
     <g transform="translate(51.78625 98.06625) scale(0.08 -0.08)">
      <defs>
       <path id="ArialMT-74" d="M 1650 503 
L 1731 6 
Q 1494 -44 1306 -44 
Q 1000 -44 831 53 
Q 663 150 594 308 
Q 525 466 525 972 
L 525 2881 
L 113 2881 
L 113 3319 
L 525 3319 
L 525 4141 
L 1084 4478 
L 1084 3319 
L 1650 3319 
L 1650 2881 
L 1084 2881 
L 1084 941 
Q 1084 700 1114 631 
Q 1144 563 1211 522 
Q 1278 481 1403 481 
Q 1497 481 1650 503 
z
" transform="scale(0.015625)"/>
       <path id="ArialMT-69" d="M 425 3934 
L 425 4581 
L 988 4581 
L 988 3934 
L 425 3934 
z
M 425 0 
L 425 3319 
L 988 3319 
L 988 0 
L 425 0 
z
" transform="scale(0.015625)"/>
       <path id="ArialMT-6d" d="M 422 0 
L 422 3319 
L 925 3319 
L 925 2853 
Q 1081 3097 1340 3245 
Q 1600 3394 1931 3394 
Q 2300 3394 2536 3241 
Q 2772 3088 2869 2813 
Q 3263 3394 3894 3394 
Q 4388 3394 4653 3120 
Q 4919 2847 4919 2278 
L 4919 0 
L 4359 0 
L 4359 2091 
Q 4359 2428 4304 2576 
Q 4250 2725 4106 2815 
Q 3963 2906 3769 2906 
Q 3419 2906 3187 2673 
Q 2956 2441 2956 1928 
L 2956 0 
L 2394 0 
L 2394 2156 
Q 2394 2531 2256 2718 
Q 2119 2906 1806 2906 
Q 1569 2906 1367 2781 
Q 1166 2656 1075 2415 
Q 984 2175 984 1722 
L 984 0 
L 422 0 
z
" transform="scale(0.015625)"/>
       <path id="ArialMT-65" d="M 2694 1069 
L 3275 997 
Q 3138 488 2766 206 
Q 2394 -75 1816 -75 
Q 1088 -75 661 373 
Q 234 822 234 1631 
Q 234 2469 665 2931 
Q 1097 3394 1784 3394 
Q 2450 3394 2872 2941 
Q 3294 2488 3294 1666 
Q 3294 1616 3291 1516 
L 816 1516 
Q 847 969 1125 678 
Q 1403 388 1819 388 
Q 2128 388 2347 550 
Q 2566 713 2694 1069 
z
M 847 1978 
L 2700 1978 
Q 2663 2397 2488 2606 
Q 2219 2931 1791 2931 
Q 1403 2931 1139 2672 
Q 875 2413 847 1978 
z
" transform="scale(0.015625)"/>
       <path id="ArialMT-20" transform="scale(0.015625)"/>
       <path id="ArialMT-61" d="M 2588 409 
Q 2275 144 1986 34 
Q 1697 -75 1366 -75 
Q 819 -75 525 192 
Q 231 459 231 875 
Q 231 1119 342 1320 
Q 453 1522 633 1644 
Q 813 1766 1038 1828 
Q 1203 1872 1538 1913 
Q 2219 1994 2541 2106 
Q 2544 2222 2544 2253 
Q 2544 2597 2384 2738 
Q 2169 2928 1744 2928 
Q 1347 2928 1158 2789 
Q 969 2650 878 2297 
L 328 2372 
Q 403 2725 575 2942 
Q 747 3159 1072 3276 
Q 1397 3394 1825 3394 
Q 2250 3394 2515 3294 
Q 2781 3194 2906 3042 
Q 3031 2891 3081 2659 
Q 3109 2516 3109 2141 
L 3109 1391 
Q 3109 606 3145 398 
Q 3181 191 3288 0 
L 2700 0 
Q 2613 175 2588 409 
z
M 2541 1666 
Q 2234 1541 1622 1453 
Q 1275 1403 1131 1340 
Q 988 1278 909 1158 
Q 831 1038 831 891 
Q 831 666 1001 516 
Q 1172 366 1500 366 
Q 1825 366 2078 508 
Q 2331 650 2450 897 
Q 2541 1088 2541 1459 
L 2541 1666 
z
" transform="scale(0.015625)"/>
       <path id="ArialMT-66" d="M 556 0 
L 556 2881 
L 59 2881 
L 59 3319 
L 556 3319 
L 556 3672 
Q 556 4006 616 4169 
Q 697 4388 901 4523 
Q 1106 4659 1475 4659 
Q 1713 4659 2000 4603 
L 1916 4113 
Q 1741 4144 1584 4144 
Q 1328 4144 1222 4034 
Q 1116 3925 1116 3625 
L 1116 3319 
L 1763 3319 
L 1763 2881 
L 1116 2881 
L 1116 0 
L 556 0 
z
" transform="scale(0.015625)"/>
       <path id="ArialMT-72" d="M 416 0 
L 416 3319 
L 922 3319 
L 922 2816 
Q 1116 3169 1280 3281 
Q 1444 3394 1641 3394 
Q 1925 3394 2219 3213 
L 2025 2691 
Q 1819 2813 1613 2813 
Q 1428 2813 1281 2702 
Q 1134 2591 1072 2394 
Q 978 2094 978 1738 
L 978 0 
L 416 0 
z
" transform="scale(0.015625)"/>
       <path id="ArialMT-63" d="M 2588 1216 
L 3141 1144 
Q 3050 572 2676 248 
Q 2303 -75 1759 -75 
Q 1078 -75 664 370 
Q 250 816 250 1647 
Q 250 2184 428 2587 
Q 606 2991 970 3192 
Q 1334 3394 1763 3394 
Q 2303 3394 2647 3120 
Q 2991 2847 3088 2344 
L 2541 2259 
Q 2463 2594 2264 2762 
Q 2066 2931 1784 2931 
Q 1359 2931 1093 2626 
Q 828 2322 828 1663 
Q 828 994 1084 691 
Q 1341 388 1753 388 
Q 2084 388 2306 591 
Q 2528 794 2588 1216 
z
" transform="scale(0.015625)"/>
       <path id="ArialMT-75" d="M 2597 0 
L 2597 488 
Q 2209 -75 1544 -75 
Q 1250 -75 995 37 
Q 741 150 617 320 
Q 494 491 444 738 
Q 409 903 409 1263 
L 409 3319 
L 972 3319 
L 972 1478 
Q 972 1038 1006 884 
Q 1059 663 1231 536 
Q 1403 409 1656 409 
Q 1909 409 2131 539 
Q 2353 669 2445 892 
Q 2538 1116 2538 1541 
L 2538 3319 
L 3100 3319 
L 3100 0 
L 2597 0 
z
" transform="scale(0.015625)"/>
       <path id="ArialMT-28" d="M 1497 -1347 
Q 1031 -759 709 28 
Q 388 816 388 1659 
Q 388 2403 628 3084 
Q 909 3875 1497 4659 
L 1900 4659 
Q 1522 4009 1400 3731 
Q 1209 3300 1100 2831 
Q 966 2247 966 1656 
Q 966 153 1900 -1347 
L 1497 -1347 
z
" transform="scale(0.015625)"/>
       <path id="ArialMT-73" d="M 197 991 
L 753 1078 
Q 800 744 1014 566 
Q 1228 388 1613 388 
Q 2000 388 2187 545 
Q 2375 703 2375 916 
Q 2375 1106 2209 1216 
Q 2094 1291 1634 1406 
Q 1016 1563 777 1677 
Q 538 1791 414 1992 
Q 291 2194 291 2438 
Q 291 2659 392 2848 
Q 494 3038 669 3163 
Q 800 3259 1026 3326 
Q 1253 3394 1513 3394 
Q 1903 3394 2198 3281 
Q 2494 3169 2634 2976 
Q 2775 2784 2828 2463 
L 2278 2388 
Q 2241 2644 2061 2787 
Q 1881 2931 1553 2931 
Q 1166 2931 1000 2803 
Q 834 2675 834 2503 
Q 834 2394 903 2306 
Q 972 2216 1119 2156 
Q 1203 2125 1616 2013 
Q 2213 1853 2448 1751 
Q 2684 1650 2818 1456 
Q 2953 1263 2953 975 
Q 2953 694 2789 445 
Q 2625 197 2315 61 
Q 2006 -75 1616 -75 
Q 969 -75 630 194 
Q 291 463 197 991 
z
" transform="scale(0.015625)"/>
       <path id="ArialMT-29" d="M 791 -1347 
L 388 -1347 
Q 1322 153 1322 1656 
Q 1322 2244 1188 2822 
Q 1081 3291 891 3722 
Q 769 4003 388 4659 
L 791 4659 
Q 1378 3875 1659 3084 
Q 1900 2403 1900 1659 
Q 1900 816 1576 28 
Q 1253 -759 791 -1347 
z
" transform="scale(0.015625)"/>
      </defs>
      <use xlink:href="#ArialMT-74"/>
      <use xlink:href="#ArialMT-69" transform="translate(27.783203 0)"/>
      <use xlink:href="#ArialMT-6d" transform="translate(50 0)"/>
      <use xlink:href="#ArialMT-65" transform="translate(133.300781 0)"/>
      <use xlink:href="#ArialMT-20" transform="translate(188.916016 0)"/>
      <use xlink:href="#ArialMT-61" transform="translate(216.699219 0)"/>
      <use xlink:href="#ArialMT-66" transform="translate(272.314453 0)"/>
      <use xlink:href="#ArialMT-74" transform="translate(300.097656 0)"/>
      <use xlink:href="#ArialMT-65" transform="translate(327.880859 0)"/>
      <use xlink:href="#ArialMT-72" transform="translate(383.496094 0)"/>
      <use xlink:href="#ArialMT-20" transform="translate(416.796875 0)"/>
      <use xlink:href="#ArialMT-63" transform="translate(444.580078 0)"/>
      <use xlink:href="#ArialMT-75" transform="translate(494.580078 0)"/>
      <use xlink:href="#ArialMT-65" transform="translate(550.195312 0)"/>
      <use xlink:href="#ArialMT-20" transform="translate(605.810547 0)"/>
      <use xlink:href="#ArialMT-28" transform="translate(633.59375 0)"/>
      <use xlink:href="#ArialMT-73" transform="translate(666.894531 0)"/>
      <use xlink:href="#ArialMT-29" transform="translate(716.894531 0)"/>
     </g>
    </g>
   </g>
   <g id="matplotlib.axis_2">
    <g id="ytick_1">
     <g id="line2d_4">
      <defs>
       <path id="mec33eaa7a3" d="M 0 0 
L -3.5 0 
" style="stroke: #000000; stroke-width: 0.8"/>
      </defs>
      <g>
       <use xlink:href="#mec33eaa7a3" x="42.62375" y="72.940618" style="stroke: #000000; stroke-width: 0.8"/>
      </g>
     </g>
     <g id="text_5">
      <!-- 0.00 -->
      <g transform="translate(20.055 75.803743) scale(0.08 -0.08)">
       <defs>
        <path id="ArialMT-2e" d="M 581 0 
L 581 641 
L 1222 641 
L 1222 0 
L 581 0 
z
" transform="scale(0.015625)"/>
       </defs>
       <use xlink:href="#ArialMT-30"/>
       <use xlink:href="#ArialMT-2e" transform="translate(55.615234 0)"/>
       <use xlink:href="#ArialMT-30" transform="translate(83.398438 0)"/>
       <use xlink:href="#ArialMT-30" transform="translate(139.013672 0)"/>
      </g>
     </g>
    </g>
    <g id="ytick_2">
     <g id="line2d_5">
      <g>
       <use xlink:href="#mec33eaa7a3" x="42.62375" y="47.669857" style="stroke: #000000; stroke-width: 0.8"/>
      </g>
     </g>
     <g id="text_6">
      <!-- 0.05 -->
      <g transform="translate(20.055 50.532982) scale(0.08 -0.08)">
       <defs>
        <path id="ArialMT-35" d="M 266 1200 
L 856 1250 
Q 922 819 1161 601 
Q 1400 384 1738 384 
Q 2144 384 2425 690 
Q 2706 997 2706 1503 
Q 2706 1984 2436 2262 
Q 2166 2541 1728 2541 
Q 1456 2541 1237 2417 
Q 1019 2294 894 2097 
L 366 2166 
L 809 4519 
L 3088 4519 
L 3088 3981 
L 1259 3981 
L 1013 2750 
Q 1425 3038 1878 3038 
Q 2478 3038 2890 2622 
Q 3303 2206 3303 1553 
Q 3303 931 2941 478 
Q 2500 -78 1738 -78 
Q 1113 -78 717 272 
Q 322 622 266 1200 
z
" transform="scale(0.015625)"/>
       </defs>
       <use xlink:href="#ArialMT-30"/>
       <use xlink:href="#ArialMT-2e" transform="translate(55.615234 0)"/>
       <use xlink:href="#ArialMT-30" transform="translate(83.398438 0)"/>
       <use xlink:href="#ArialMT-35" transform="translate(139.013672 0)"/>
      </g>
     </g>
    </g>
    <g id="ytick_3">
     <g id="line2d_6">
      <g>
       <use xlink:href="#mec33eaa7a3" x="42.62375" y="22.399097" style="stroke: #000000; stroke-width: 0.8"/>
      </g>
     </g>
     <g id="text_7">
      <!-- 0.10 -->
      <g transform="translate(20.055 25.262222) scale(0.08 -0.08)">
       <use xlink:href="#ArialMT-30"/>
       <use xlink:href="#ArialMT-2e" transform="translate(55.615234 0)"/>
       <use xlink:href="#ArialMT-31" transform="translate(83.398438 0)"/>
       <use xlink:href="#ArialMT-30" transform="translate(139.013672 0)"/>
      </g>
     </g>
    </g>
    <g id="text_8">
     <!-- dSPN - iSPN activity -->
     <g transform="translate(14.37125 77.73625) rotate(-90) scale(0.08 -0.08)">
      <defs>
       <path id="ArialMT-64" d="M 2575 0 
L 2575 419 
Q 2259 -75 1647 -75 
Q 1250 -75 917 144 
Q 584 363 401 755 
Q 219 1147 219 1656 
Q 219 2153 384 2558 
Q 550 2963 881 3178 
Q 1213 3394 1622 3394 
Q 1922 3394 2156 3267 
Q 2391 3141 2538 2938 
L 2538 4581 
L 3097 4581 
L 3097 0 
L 2575 0 
z
M 797 1656 
Q 797 1019 1065 703 
Q 1334 388 1700 388 
Q 2069 388 2326 689 
Q 2584 991 2584 1609 
Q 2584 2291 2321 2609 
Q 2059 2928 1675 2928 
Q 1300 2928 1048 2622 
Q 797 2316 797 1656 
z
" transform="scale(0.015625)"/>
       <path id="ArialMT-53" d="M 288 1472 
L 859 1522 
Q 900 1178 1048 958 
Q 1197 738 1509 602 
Q 1822 466 2213 466 
Q 2559 466 2825 569 
Q 3091 672 3220 851 
Q 3350 1031 3350 1244 
Q 3350 1459 3225 1620 
Q 3100 1781 2813 1891 
Q 2628 1963 1997 2114 
Q 1366 2266 1113 2400 
Q 784 2572 623 2826 
Q 463 3081 463 3397 
Q 463 3744 659 4045 
Q 856 4347 1234 4503 
Q 1613 4659 2075 4659 
Q 2584 4659 2973 4495 
Q 3363 4331 3572 4012 
Q 3781 3694 3797 3291 
L 3216 3247 
Q 3169 3681 2898 3903 
Q 2628 4125 2100 4125 
Q 1550 4125 1298 3923 
Q 1047 3722 1047 3438 
Q 1047 3191 1225 3031 
Q 1400 2872 2139 2705 
Q 2878 2538 3153 2413 
Q 3553 2228 3743 1945 
Q 3934 1663 3934 1294 
Q 3934 928 3725 604 
Q 3516 281 3123 101 
Q 2731 -78 2241 -78 
Q 1619 -78 1198 103 
Q 778 284 539 648 
Q 300 1013 288 1472 
z
" transform="scale(0.015625)"/>
       <path id="ArialMT-50" d="M 494 0 
L 494 4581 
L 2222 4581 
Q 2678 4581 2919 4538 
Q 3256 4481 3484 4323 
Q 3713 4166 3852 3881 
Q 3991 3597 3991 3256 
Q 3991 2672 3619 2267 
Q 3247 1863 2275 1863 
L 1100 1863 
L 1100 0 
L 494 0 
z
M 1100 2403 
L 2284 2403 
Q 2872 2403 3119 2622 
Q 3366 2841 3366 3238 
Q 3366 3525 3220 3729 
Q 3075 3934 2838 4000 
Q 2684 4041 2272 4041 
L 1100 4041 
L 1100 2403 
z
" transform="scale(0.015625)"/>
       <path id="ArialMT-4e" d="M 488 0 
L 488 4581 
L 1109 4581 
L 3516 984 
L 3516 4581 
L 4097 4581 
L 4097 0 
L 3475 0 
L 1069 3600 
L 1069 0 
L 488 0 
z
" transform="scale(0.015625)"/>
       <path id="ArialMT-2d" d="M 203 1375 
L 203 1941 
L 1931 1941 
L 1931 1375 
L 203 1375 
z
" transform="scale(0.015625)"/>
       <path id="ArialMT-76" d="M 1344 0 
L 81 3319 
L 675 3319 
L 1388 1331 
Q 1503 1009 1600 663 
Q 1675 925 1809 1294 
L 2547 3319 
L 3125 3319 
L 1869 0 
L 1344 0 
z
" transform="scale(0.015625)"/>
       <path id="ArialMT-79" d="M 397 -1278 
L 334 -750 
Q 519 -800 656 -800 
Q 844 -800 956 -737 
Q 1069 -675 1141 -563 
Q 1194 -478 1313 -144 
Q 1328 -97 1363 -6 
L 103 3319 
L 709 3319 
L 1400 1397 
Q 1534 1031 1641 628 
Q 1738 1016 1872 1384 
L 2581 3319 
L 3144 3319 
L 1881 -56 
Q 1678 -603 1566 -809 
Q 1416 -1088 1222 -1217 
Q 1028 -1347 759 -1347 
Q 597 -1347 397 -1278 
z
" transform="scale(0.015625)"/>
      </defs>
      <use xlink:href="#ArialMT-64"/>
      <use xlink:href="#ArialMT-53" transform="translate(55.615234 0)"/>
      <use xlink:href="#ArialMT-50" transform="translate(122.314453 0)"/>
      <use xlink:href="#ArialMT-4e" transform="translate(189.013672 0)"/>
      <use xlink:href="#ArialMT-20" transform="translate(261.230469 0)"/>
      <use xlink:href="#ArialMT-2d" transform="translate(289.013672 0)"/>
      <use xlink:href="#ArialMT-20" transform="translate(322.314453 0)"/>
      <use xlink:href="#ArialMT-69" transform="translate(350.097656 0)"/>
      <use xlink:href="#ArialMT-53" transform="translate(372.314453 0)"/>
      <use xlink:href="#ArialMT-50" transform="translate(439.013672 0)"/>
      <use xlink:href="#ArialMT-4e" transform="translate(505.712891 0)"/>
      <use xlink:href="#ArialMT-20" transform="translate(577.929688 0)"/>
      <use xlink:href="#ArialMT-61" transform="translate(605.712891 0)"/>
      <use xlink:href="#ArialMT-63" transform="translate(661.328125 0)"/>
      <use xlink:href="#ArialMT-74" transform="translate(711.328125 0)"/>
      <use xlink:href="#ArialMT-69" transform="translate(739.111328 0)"/>
      <use xlink:href="#ArialMT-76" transform="translate(761.328125 0)"/>
      <use xlink:href="#ArialMT-69" transform="translate(811.328125 0)"/>
      <use xlink:href="#ArialMT-74" transform="translate(833.544922 0)"/>
      <use xlink:href="#ArialMT-79" transform="translate(861.328125 0)"/>
     </g>
    </g>
   </g>
   <g id="line2d_7">
    <path d="M 46.184489 68.752686 
L 46.900215 66.857505 
L 47.973805 63.246289 
L 49.047394 58.804987 
L 51.194573 48.610624 
L 52.626026 42.139443 
L 53.699615 38.067029 
L 54.773205 34.8905 
L 55.488931 33.297063 
L 56.204658 32.102528 
L 56.920384 31.265533 
L 57.63611 30.729976 
L 58.351837 30.431226 
L 59.425426 30.278762 
L 62.288331 30.172779 
L 63.361921 29.828053 
L 64.43551 29.204411 
L 65.509101 28.303136 
L 66.940552 26.752006 
L 72.666364 19.995949 
L 75.171406 17.716387 
L 80.897218 12.862467 
L 82.328669 12.035122 
L 83.402258 11.68627 
L 84.475851 11.616568 
L 85.549439 11.834082 
L 86.623028 12.31132 
L 88.054479 13.250395 
L 90.917386 15.552389 
L 94.138156 18.030683 
L 98.074651 20.796946 
L 99.863965 21.831874 
L 101.295417 22.414569 
L 102.369009 22.661971 
L 103.442598 22.732408 
L 104.874049 22.565119 
L 106.305501 22.161206 
L 109.52627 20.906473 
L 114.894217 18.759563 
L 116.683536 17.644543 
L 117.399261 17.135854 
L 117.399261 17.135854 
" clip-path="url(#p642b0a1d3a)" style="fill: none; stroke: #30123b; stroke-width: 1.5; stroke-linecap: square"/>
   </g>
   <g id="line2d_8">
    <path d="M 46.184489 69.052883 
L 47.258078 66.134452 
L 48.331668 62.386389 
L 49.76312 56.382774 
L 52.626026 43.87372 
L 53.699615 40.076848 
L 54.773205 37.097434 
L 55.846795 34.947422 
L 56.56252 33.924682 
L 57.278247 33.171265 
L 58.351837 32.415102 
L 59.783289 31.798091 
L 62.288331 30.803858 
L 63.719785 29.953528 
L 65.151236 28.825656 
L 66.940552 27.064663 
L 69.445594 24.187197 
L 73.024227 20.098669 
L 75.171406 17.982034 
L 77.318585 16.158924 
L 79.107902 14.898072 
L 80.539353 14.122806 
L 81.970806 13.623532 
L 83.044395 13.46231 
L 84.117983 13.494634 
L 85.191576 13.712322 
L 86.623028 14.240735 
L 89.485935 15.669478 
L 91.633112 16.620403 
L 96.285333 18.454407 
L 97.716788 19.326924 
L 99.506102 20.710027 
L 104.516186 24.849942 
L 105.947638 25.658594 
L 107.379093 26.235173 
L 109.168408 26.703245 
L 111.315589 27.026446 
L 113.462766 27.120097 
L 115.25208 26.95215 
L 116.683536 26.614681 
L 117.399261 26.374136 
L 117.399261 26.374136 
" clip-path="url(#p642b0a1d3a)" style="fill: none; stroke: #466be3; stroke-width: 1.5; stroke-linecap: square"/>
   </g>
   <g id="line2d_9">
    <path d="M 46.184489 69.981132 
L 46.900215 68.17039 
L 47.973805 64.728496 
L 49.405257 59.019496 
L 52.626026 45.246082 
L 53.699615 41.613167 
L 54.773205 38.805331 
L 55.488931 37.39713 
L 56.204658 36.32825 
L 56.920384 35.552232 
L 57.63611 35.012654 
L 58.7097 34.515386 
L 60.499016 34.059556 
L 61.930468 33.650081 
L 63.361921 32.985359 
L 64.793373 31.999244 
L 66.224827 30.717245 
L 68.372006 28.417706 
L 78.034311 17.499622 
L 79.823627 15.983618 
L 81.612944 14.801276 
L 83.044395 14.097494 
L 84.475851 13.616065 
L 85.907302 13.37779 
L 87.338753 13.405814 
L 88.770209 13.709144 
L 90.20166 14.274482 
L 91.633112 15.066723 
L 93.42243 16.296836 
L 97.001058 19.120081 
L 99.863965 21.28664 
L 101.653279 22.414057 
L 103.442598 23.287504 
L 105.589775 24.037924 
L 109.52627 25.083046 
L 112.389177 25.683522 
L 114.178492 25.844932 
L 115.96781 25.777991 
L 117.399261 25.567175 
L 117.399261 25.567175 
" clip-path="url(#p642b0a1d3a)" style="fill: none; stroke: #28bceb; stroke-width: 1.5; stroke-linecap: square"/>
   </g>
   <g id="line2d_10">
    <path d="M 46.184489 69.218559 
L 47.258078 66.329851 
L 48.331668 62.666324 
L 49.76312 56.883438 
L 52.268163 46.461153 
L 53.341752 42.771117 
L 54.415342 39.877446 
L 55.131068 38.420724 
L 55.846795 37.324491 
L 56.56252 36.55008 
L 57.278247 36.044419 
L 57.993974 35.746392 
L 59.067564 35.550872 
L 61.930468 35.244425 
L 63.004058 34.877844 
L 64.077648 34.302217 
L 65.509101 33.232053 
L 67.298415 31.541279 
L 73.38209 25.449262 
L 76.60286 22.715681 
L 79.823627 20.247012 
L 82.328669 18.586701 
L 84.833713 17.191122 
L 86.98089 16.218462 
L 89.128072 15.487628 
L 90.917386 15.099262 
L 92.7067 14.951386 
L 94.138156 15.034279 
L 95.569607 15.308907 
L 97.358921 15.907583 
L 99.14824 16.741829 
L 101.653279 18.196227 
L 107.736956 21.949679 
L 109.884133 22.920825 
L 113.820629 24.352377 
L 117.041399 25.674191 
L 117.399261 25.826364 
L 117.399261 25.826364 
" clip-path="url(#p642b0a1d3a)" style="fill: none; stroke: #32f298; stroke-width: 1.5; stroke-linecap: square"/>
   </g>
   <g id="line2d_11">
    <path d="M 46.184489 68.953662 
L 47.258078 66.041088 
L 48.331668 62.352512 
L 49.76312 56.548671 
L 52.268163 46.162491 
L 53.341752 42.519277 
L 54.415342 39.688226 
L 55.131068 38.280537 
L 55.846795 37.238296 
L 56.56252 36.522486 
L 57.278247 36.080106 
L 57.993974 35.850598 
L 59.067564 35.770164 
L 62.288331 35.852831 
L 63.361921 35.644633 
L 64.43551 35.257013 
L 65.866964 34.474089 
L 67.298415 33.427599 
L 69.087732 31.821578 
L 71.234911 29.580564 
L 75.887132 24.564955 
L 77.676448 22.985858 
L 79.465764 21.69171 
L 82.328669 19.968724 
L 86.98089 17.131814 
L 89.128072 15.9156 
L 90.559523 15.303962 
L 91.990974 14.931285 
L 93.42243 14.818206 
L 94.853881 14.926427 
L 97.358921 15.394349 
L 102.369009 16.554165 
L 104.158324 17.269226 
L 105.947638 18.264845 
L 108.452682 19.978085 
L 111.315589 21.882936 
L 113.462766 23.015531 
L 115.609947 23.883265 
L 117.399261 24.422606 
L 117.399261 24.422606 
" clip-path="url(#p642b0a1d3a)" style="fill: none; stroke: #a4fc3c; stroke-width: 1.5; stroke-linecap: square"/>
   </g>
   <g id="line2d_12">
    <path d="M 46.184489 70.504322 
L 46.900215 68.717941 
L 47.973805 65.329756 
L 49.405257 59.740188 
L 52.626026 46.393628 
L 53.699615 42.940471 
L 54.773205 40.346697 
L 55.488931 39.108394 
L 56.204658 38.235429 
L 56.920384 37.682332 
L 57.63611 37.390774 
L 58.351837 37.295846 
L 59.425426 37.379353 
L 61.930468 37.679677 
L 63.004058 37.562626 
L 64.077648 37.22126 
L 65.151236 36.654411 
L 66.58269 35.588642 
L 68.372006 33.885395 
L 71.234911 30.732156 
L 76.960722 24.311369 
L 78.750039 22.672218 
L 80.18149 21.657518 
L 81.612944 20.922808 
L 83.402258 20.314379 
L 89.843797 18.492817 
L 92.7067 17.632756 
L 94.496018 17.337056 
L 96.643196 17.256739 
L 103.084735 17.258648 
L 105.231912 17.313442 
L 106.663368 17.542291 
L 108.094819 17.966938 
L 109.884133 18.739624 
L 116.325673 21.833418 
L 117.399261 22.207531 
L 117.399261 22.207531 
" clip-path="url(#p642b0a1d3a)" style="fill: none; stroke: #eecf3a; stroke-width: 1.5; stroke-linecap: square"/>
   </g>
   <g id="line2d_13">
    <path d="M 46.184489 68.277053 
L 47.258078 65.339657 
L 48.331668 61.596456 
L 49.76312 55.618809 
L 52.626026 43.279469 
L 53.699615 39.642557 
L 54.773205 36.910316 
L 55.488931 35.611962 
L 56.204658 34.706978 
L 56.920384 34.150394 
L 57.63611 33.883437 
L 58.351837 33.839609 
L 59.425426 34.042505 
L 61.930468 34.704824 
L 63.004058 34.704429 
L 64.077648 34.418685 
L 65.151236 33.84107 
L 66.224827 33.009384 
L 68.014143 31.249352 
L 71.234911 27.936164 
L 73.024227 26.459951 
L 74.813543 25.309835 
L 77.318585 24.024947 
L 81.612944 21.830707 
L 86.623028 18.905666 
L 91.275249 16.292122 
L 94.853881 14.562256 
L 97.001058 13.724609 
L 98.432514 13.357539 
L 99.863965 13.222849 
L 101.295417 13.344167 
L 103.084735 13.787247 
L 108.094819 15.273754 
L 110.599859 15.6447 
L 113.462766 16.046026 
L 114.894217 16.458386 
L 116.325673 17.120329 
L 117.399261 17.790314 
L 117.399261 17.790314 
" clip-path="url(#p642b0a1d3a)" style="fill: none; stroke: #fb7e21; stroke-width: 1.5; stroke-linecap: square"/>
   </g>
   <g id="line2d_14">
    <path d="M 46.184489 70.958693 
L 46.900215 69.168365 
L 47.973805 65.75269 
L 49.047394 61.565636 
L 53.341752 43.47383 
L 54.415342 40.360103 
L 55.131068 38.809044 
L 55.846795 37.67198 
L 56.56252 36.916782 
L 57.278247 36.49349 
L 57.993974 36.340383 
L 58.7097 36.39018 
L 59.783289 36.69906 
L 62.288331 37.544528 
L 63.361921 37.666076 
L 64.43551 37.57378 
L 65.509101 37.280482 
L 66.940552 36.646386 
L 69.087732 35.397475 
L 73.024227 32.790145 
L 82.686532 26.169854 
L 85.549439 24.746074 
L 89.843797 22.603295 
L 92.348837 21.457209 
L 94.496018 20.7534 
L 97.358921 20.116186 
L 102.011142 19.111021 
L 107.379093 17.725432 
L 109.52627 17.509274 
L 111.673452 17.535622 
L 113.462766 17.756435 
L 115.25208 18.203898 
L 117.041399 18.883739 
L 117.399261 19.043274 
L 117.399261 19.043274 
" clip-path="url(#p642b0a1d3a)" style="fill: none; stroke: #d02f05; stroke-width: 1.5; stroke-linecap: square"/>
   </g>
   <g id="line2d_15">
    <path d="M 46.184489 68.146847 
L 47.258078 65.360393 
L 48.331668 61.819174 
L 49.76312 56.17763 
L 52.268163 45.954581 
L 53.341752 42.417886 
L 54.415342 39.765791 
L 55.131068 38.520002 
L 55.846795 37.665989 
L 56.56252 37.152266 
L 57.278247 36.910531 
L 58.351837 36.89162 
L 61.930468 37.285803 
L 63.361921 37.050676 
L 65.866964 36.296672 
L 68.014143 35.769731 
L 72.666364 34.903194 
L 74.097815 34.282474 
L 75.529269 33.419974 
L 80.539353 30.139841 
L 82.328669 29.404694 
L 83.760121 29.041732 
L 85.191576 28.89497 
L 86.98089 28.978066 
L 89.128072 29.121684 
L 90.20166 28.999109 
L 91.275249 28.636625 
L 92.348837 27.995427 
L 93.42243 27.084806 
L 94.853881 25.552195 
L 98.074651 21.930097 
L 99.14824 21.030238 
L 100.221828 20.387918 
L 101.295417 20.005767 
L 102.369009 19.85124 
L 103.800461 19.908692 
L 105.589775 20.233117 
L 112.031315 21.662138 
L 113.462766 21.6062 
L 114.894217 21.313768 
L 117.041399 20.587271 
L 117.399261 20.455274 
L 117.399261 20.455274 
" clip-path="url(#p642b0a1d3a)" style="fill: none; stroke: #7a0403; stroke-width: 1.5; stroke-linecap: square"/>
   </g>
   <g id="patch_5">
    <path d="M 42.62375 73.92625 
L 42.62375 8.64 
" style="fill: none; stroke: #000000; stroke-width: 0.8; stroke-linejoin: miter; stroke-linecap: square"/>
   </g>
   <g id="patch_6">
    <path d="M 120.96 73.92625 
L 120.96 8.64 
" style="fill: none; stroke: #000000; stroke-width: 0.8; stroke-linejoin: miter; stroke-linecap: square"/>
   </g>
   <g id="patch_7">
    <path d="M 42.62375 73.92625 
L 120.96 73.92625 
" style="fill: none; stroke: #000000; stroke-width: 0.8; stroke-linejoin: miter; stroke-linecap: square"/>
   </g>
   <g id="patch_8">
    <path d="M 42.62375 8.64 
L 120.96 8.64 
" style="fill: none; stroke: #000000; stroke-width: 0.8; stroke-linejoin: miter; stroke-linecap: square"/>
   </g>
  </g>
 </g>
 <defs>
  <clipPath id="p642b0a1d3a">
   <rect x="42.62375" y="8.64" width="78.33625" height="65.28625"/>
  </clipPath>
 </defs>
</svg>
