<?xml version="1.0" encoding="utf-8" standalone="no"?>
<!DOCTYPE svg PUBLIC "-//W3C//DTD SVG 1.1//EN"
  "http://www.w3.org/Graphics/SVG/1.1/DTD/svg11.dtd">
<svg xmlns:xlink="http://www.w3.org/1999/xlink" width="144pt" height="144pt" viewBox="0 0 144 144" xmlns="http://www.w3.org/2000/svg" version="1.1">
 <metadata>
  <rdf:RDF xmlns:dc="http://purl.org/dc/elements/1.1/" xmlns:cc="http://creativecommons.org/ns#" xmlns:rdf="http://www.w3.org/1999/02/22-rdf-syntax-ns#">
   <cc:Work>
    <dc:type rdf:resource="http://purl.org/dc/dcmitype/StillImage"/>
    <dc:date>2025-01-28T19:57:50.470209</dc:date>
    <dc:format>image/svg+xml</dc:format>
    <dc:creator>
     <cc:Agent>
      <dc:title>Matplotlib v3.10.0, https://matplotlib.org/</dc:title>
     </cc:Agent>
    </dc:creator>
   </cc:Work>
  </rdf:RDF>
 </metadata>
 <defs>
  <style type="text/css">*{stroke-linejoin: round; stroke-linecap: butt}</style>
 </defs>
 <g id="figure_1">
  <g id="patch_1">
   <path d="M 0 144 
L 144 144 
L 144 0 
L 0 0 
z
" style="fill: #ffffff"/>
  </g>
  <g id="axes_1">
   <g id="patch_2">
    <path d="M 31.97 109.96 
L 135.36 109.96 
L 135.36 8.64 
L 31.97 8.64 
z
" style="fill: #ffffff"/>
   </g>
   <g id="patch_3">
    <path d="M 45.229738 109.96 
L 46.941776 109.96 
L 46.941776 8.64 
L 45.229738 8.64 
z
" clip-path="url(#p3ec8c1938f)" style="fill: #ff0000; opacity: 0.2; stroke: #ff0000; stroke-linejoin: miter"/>
   </g>
   <g id="patch_4">
    <path d="M 96.590893 109.96 
L 130.660455 109.96 
L 130.660455 8.64 
L 96.590893 8.64 
z
" clip-path="url(#p3ec8c1938f)" style="fill: #008000; opacity: 0.2; stroke: #008000; stroke-linejoin: miter"/>
   </g>
   <g id="matplotlib.axis_1">
    <g id="xtick_1">
     <g id="line2d_1">
      <defs>
       <path id="m1354b259aa" d="M 0 0 
L 0 3.5 
" style="stroke: #000000; stroke-width: 0.8"/>
      </defs>
      <g>
       <use xlink:href="#m1354b259aa" x="45.229738" y="109.96" style="stroke: #000000; stroke-width: 0.8"/>
      </g>
     </g>
     <g id="text_1">
      <!-- 0 -->
      <g transform="translate(42.684738 123.03875) scale(0.08 -0.08)">
       <defs>
        <path id="DejaVuSans-30" d="M 2034 4250 
Q 1547 4250 1301 3770 
Q 1056 3291 1056 2328 
Q 1056 1369 1301 889 
Q 1547 409 2034 409 
Q 2525 409 2770 889 
Q 3016 1369 3016 2328 
Q 3016 3291 2770 3770 
Q 2525 4250 2034 4250 
z
M 2034 4750 
Q 2819 4750 3233 4129 
Q 3647 3509 3647 2328 
Q 3647 1150 3233 529 
Q 2819 -91 2034 -91 
Q 1250 -91 836 529 
Q 422 1150 422 2328 
Q 422 3509 836 4129 
Q 1250 4750 2034 4750 
z
" transform="scale(0.015625)"/>
       </defs>
       <use xlink:href="#DejaVuSans-30"/>
      </g>
     </g>
    </g>
    <g id="xtick_2">
     <g id="line2d_2">
      <g>
       <use xlink:href="#m1354b259aa" x="96.590893" y="109.96" style="stroke: #000000; stroke-width: 0.8"/>
      </g>
     </g>
     <g id="text_2">
      <!-- 3 -->
      <g transform="translate(94.045893 123.03875) scale(0.08 -0.08)">
       <defs>
        <path id="DejaVuSans-33" d="M 2597 2516 
Q 3050 2419 3304 2112 
Q 3559 1806 3559 1356 
Q 3559 666 3084 287 
Q 2609 -91 1734 -91 
Q 1441 -91 1130 -33 
Q 819 25 488 141 
L 488 750 
Q 750 597 1062 519 
Q 1375 441 1716 441 
Q 2309 441 2620 675 
Q 2931 909 2931 1356 
Q 2931 1769 2642 2001 
Q 2353 2234 1838 2234 
L 1294 2234 
L 1294 2753 
L 1863 2753 
Q 2328 2753 2575 2939 
Q 2822 3125 2822 3475 
Q 2822 3834 2567 4026 
Q 2313 4219 1838 4219 
Q 1578 4219 1281 4162 
Q 984 4106 628 3988 
L 628 4550 
Q 988 4650 1302 4700 
Q 1616 4750 1894 4750 
Q 2613 4750 3031 4423 
Q 3450 4097 3450 3541 
Q 3450 3153 3228 2886 
Q 3006 2619 2597 2516 
z
" transform="scale(0.015625)"/>
       </defs>
       <use xlink:href="#DejaVuSans-33"/>
      </g>
     </g>
    </g>
    <g id="text_3">
     <!-- time after cue (s) -->
     <g transform="translate(48.950625 134.78125) scale(0.08 -0.08)">
      <defs>
       <path id="DejaVuSans-74" d="M 1172 4494 
L 1172 3500 
L 2356 3500 
L 2356 3053 
L 1172 3053 
L 1172 1153 
Q 1172 725 1289 603 
Q 1406 481 1766 481 
L 2356 481 
L 2356 0 
L 1766 0 
Q 1100 0 847 248 
Q 594 497 594 1153 
L 594 3053 
L 172 3053 
L 172 3500 
L 594 3500 
L 594 4494 
L 1172 4494 
z
" transform="scale(0.015625)"/>
       <path id="DejaVuSans-69" d="M 603 3500 
L 1178 3500 
L 1178 0 
L 603 0 
L 603 3500 
z
M 603 4863 
L 1178 4863 
L 1178 4134 
L 603 4134 
L 603 4863 
z
" transform="scale(0.015625)"/>
       <path id="DejaVuSans-6d" d="M 3328 2828 
Q 3544 3216 3844 3400 
Q 4144 3584 4550 3584 
Q 5097 3584 5394 3201 
Q 5691 2819 5691 2113 
L 5691 0 
L 5113 0 
L 5113 2094 
Q 5113 2597 4934 2840 
Q 4756 3084 4391 3084 
Q 3944 3084 3684 2787 
Q 3425 2491 3425 1978 
L 3425 0 
L 2847 0 
L 2847 2094 
Q 2847 2600 2669 2842 
Q 2491 3084 2119 3084 
Q 1678 3084 1418 2786 
Q 1159 2488 1159 1978 
L 1159 0 
L 581 0 
L 581 3500 
L 1159 3500 
L 1159 2956 
Q 1356 3278 1631 3431 
Q 1906 3584 2284 3584 
Q 2666 3584 2933 3390 
Q 3200 3197 3328 2828 
z
" transform="scale(0.015625)"/>
       <path id="DejaVuSans-65" d="M 3597 1894 
L 3597 1613 
L 953 1613 
Q 991 1019 1311 708 
Q 1631 397 2203 397 
Q 2534 397 2845 478 
Q 3156 559 3463 722 
L 3463 178 
Q 3153 47 2828 -22 
Q 2503 -91 2169 -91 
Q 1331 -91 842 396 
Q 353 884 353 1716 
Q 353 2575 817 3079 
Q 1281 3584 2069 3584 
Q 2775 3584 3186 3129 
Q 3597 2675 3597 1894 
z
M 3022 2063 
Q 3016 2534 2758 2815 
Q 2500 3097 2075 3097 
Q 1594 3097 1305 2825 
Q 1016 2553 972 2059 
L 3022 2063 
z
" transform="scale(0.015625)"/>
       <path id="DejaVuSans-20" transform="scale(0.015625)"/>
       <path id="DejaVuSans-61" d="M 2194 1759 
Q 1497 1759 1228 1600 
Q 959 1441 959 1056 
Q 959 750 1161 570 
Q 1363 391 1709 391 
Q 2188 391 2477 730 
Q 2766 1069 2766 1631 
L 2766 1759 
L 2194 1759 
z
M 3341 1997 
L 3341 0 
L 2766 0 
L 2766 531 
Q 2569 213 2275 61 
Q 1981 -91 1556 -91 
Q 1019 -91 701 211 
Q 384 513 384 1019 
Q 384 1609 779 1909 
Q 1175 2209 1959 2209 
L 2766 2209 
L 2766 2266 
Q 2766 2663 2505 2880 
Q 2244 3097 1772 3097 
Q 1472 3097 1187 3025 
Q 903 2953 641 2809 
L 641 3341 
Q 956 3463 1253 3523 
Q 1550 3584 1831 3584 
Q 2591 3584 2966 3190 
Q 3341 2797 3341 1997 
z
" transform="scale(0.015625)"/>
       <path id="DejaVuSans-66" d="M 2375 4863 
L 2375 4384 
L 1825 4384 
Q 1516 4384 1395 4259 
Q 1275 4134 1275 3809 
L 1275 3500 
L 2222 3500 
L 2222 3053 
L 1275 3053 
L 1275 0 
L 697 0 
L 697 3053 
L 147 3053 
L 147 3500 
L 697 3500 
L 697 3744 
Q 697 4328 969 4595 
Q 1241 4863 1831 4863 
L 2375 4863 
z
" transform="scale(0.015625)"/>
       <path id="DejaVuSans-72" d="M 2631 2963 
Q 2534 3019 2420 3045 
Q 2306 3072 2169 3072 
Q 1681 3072 1420 2755 
Q 1159 2438 1159 1844 
L 1159 0 
L 581 0 
L 581 3500 
L 1159 3500 
L 1159 2956 
Q 1341 3275 1631 3429 
Q 1922 3584 2338 3584 
Q 2397 3584 2469 3576 
Q 2541 3569 2628 3553 
L 2631 2963 
z
" transform="scale(0.015625)"/>
       <path id="DejaVuSans-63" d="M 3122 3366 
L 3122 2828 
Q 2878 2963 2633 3030 
Q 2388 3097 2138 3097 
Q 1578 3097 1268 2742 
Q 959 2388 959 1747 
Q 959 1106 1268 751 
Q 1578 397 2138 397 
Q 2388 397 2633 464 
Q 2878 531 3122 666 
L 3122 134 
Q 2881 22 2623 -34 
Q 2366 -91 2075 -91 
Q 1284 -91 818 406 
Q 353 903 353 1747 
Q 353 2603 823 3093 
Q 1294 3584 2113 3584 
Q 2378 3584 2631 3529 
Q 2884 3475 3122 3366 
z
" transform="scale(0.015625)"/>
       <path id="DejaVuSans-75" d="M 544 1381 
L 544 3500 
L 1119 3500 
L 1119 1403 
Q 1119 906 1312 657 
Q 1506 409 1894 409 
Q 2359 409 2629 706 
Q 2900 1003 2900 1516 
L 2900 3500 
L 3475 3500 
L 3475 0 
L 2900 0 
L 2900 538 
Q 2691 219 2414 64 
Q 2138 -91 1772 -91 
Q 1169 -91 856 284 
Q 544 659 544 1381 
z
M 1991 3584 
L 1991 3584 
z
" transform="scale(0.015625)"/>
       <path id="DejaVuSans-28" d="M 1984 4856 
Q 1566 4138 1362 3434 
Q 1159 2731 1159 2009 
Q 1159 1288 1364 580 
Q 1569 -128 1984 -844 
L 1484 -844 
Q 1016 -109 783 600 
Q 550 1309 550 2009 
Q 550 2706 781 3412 
Q 1013 4119 1484 4856 
L 1984 4856 
z
" transform="scale(0.015625)"/>
       <path id="DejaVuSans-73" d="M 2834 3397 
L 2834 2853 
Q 2591 2978 2328 3040 
Q 2066 3103 1784 3103 
Q 1356 3103 1142 2972 
Q 928 2841 928 2578 
Q 928 2378 1081 2264 
Q 1234 2150 1697 2047 
L 1894 2003 
Q 2506 1872 2764 1633 
Q 3022 1394 3022 966 
Q 3022 478 2636 193 
Q 2250 -91 1575 -91 
Q 1294 -91 989 -36 
Q 684 19 347 128 
L 347 722 
Q 666 556 975 473 
Q 1284 391 1588 391 
Q 1994 391 2212 530 
Q 2431 669 2431 922 
Q 2431 1156 2273 1281 
Q 2116 1406 1581 1522 
L 1381 1569 
Q 847 1681 609 1914 
Q 372 2147 372 2553 
Q 372 3047 722 3315 
Q 1072 3584 1716 3584 
Q 2034 3584 2315 3537 
Q 2597 3491 2834 3397 
z
" transform="scale(0.015625)"/>
       <path id="DejaVuSans-29" d="M 513 4856 
L 1013 4856 
Q 1481 4119 1714 3412 
Q 1947 2706 1947 2009 
Q 1947 1309 1714 600 
Q 1481 -109 1013 -844 
L 513 -844 
Q 928 -128 1133 580 
Q 1338 1288 1338 2009 
Q 1338 2731 1133 3434 
Q 928 4138 513 4856 
z
" transform="scale(0.015625)"/>
      </defs>
      <use xlink:href="#DejaVuSans-74"/>
      <use xlink:href="#DejaVuSans-69" transform="translate(39.208984 0)"/>
      <use xlink:href="#DejaVuSans-6d" transform="translate(66.992188 0)"/>
      <use xlink:href="#DejaVuSans-65" transform="translate(164.404297 0)"/>
      <use xlink:href="#DejaVuSans-20" transform="translate(225.927734 0)"/>
      <use xlink:href="#DejaVuSans-61" transform="translate(257.714844 0)"/>
      <use xlink:href="#DejaVuSans-66" transform="translate(318.994141 0)"/>
      <use xlink:href="#DejaVuSans-74" transform="translate(352.449219 0)"/>
      <use xlink:href="#DejaVuSans-65" transform="translate(391.658203 0)"/>
      <use xlink:href="#DejaVuSans-72" transform="translate(453.181641 0)"/>
      <use xlink:href="#DejaVuSans-20" transform="translate(494.294922 0)"/>
      <use xlink:href="#DejaVuSans-63" transform="translate(526.082031 0)"/>
      <use xlink:href="#DejaVuSans-75" transform="translate(581.0625 0)"/>
      <use xlink:href="#DejaVuSans-65" transform="translate(644.441406 0)"/>
      <use xlink:href="#DejaVuSans-20" transform="translate(705.964844 0)"/>
      <use xlink:href="#DejaVuSans-28" transform="translate(737.751953 0)"/>
      <use xlink:href="#DejaVuSans-73" transform="translate(776.765625 0)"/>
      <use xlink:href="#DejaVuSans-29" transform="translate(828.865234 0)"/>
     </g>
    </g>
   </g>
   <g id="matplotlib.axis_2">
    <g id="ytick_1">
     <g id="line2d_3">
      <defs>
       <path id="m56792e6df4" d="M 0 0 
L -3.5 0 
" style="stroke: #000000; stroke-width: 0.8"/>
      </defs>
      <g>
       <use xlink:href="#m56792e6df4" x="31.97" y="105.979294" style="stroke: #000000; stroke-width: 0.8"/>
      </g>
     </g>
     <g id="text_4">
      <!-- 1 -->
      <g transform="translate(19.88 109.018669) scale(0.08 -0.08)">
       <defs>
        <path id="DejaVuSans-31" d="M 794 531 
L 1825 531 
L 1825 4091 
L 703 3866 
L 703 4441 
L 1819 4666 
L 2450 4666 
L 2450 531 
L 3481 531 
L 3481 0 
L 794 0 
L 794 531 
z
" transform="scale(0.015625)"/>
       </defs>
       <use xlink:href="#DejaVuSans-31"/>
      </g>
     </g>
    </g>
    <g id="ytick_2">
     <g id="line2d_4">
      <g>
       <use xlink:href="#m56792e6df4" x="31.97" y="78.416175" style="stroke: #000000; stroke-width: 0.8"/>
      </g>
     </g>
     <g id="text_5">
      <!-- 2 -->
      <g transform="translate(19.88 81.45555) scale(0.08 -0.08)">
       <defs>
        <path id="DejaVuSans-32" d="M 1228 531 
L 3431 531 
L 3431 0 
L 469 0 
L 469 531 
Q 828 903 1448 1529 
Q 2069 2156 2228 2338 
Q 2531 2678 2651 2914 
Q 2772 3150 2772 3378 
Q 2772 3750 2511 3984 
Q 2250 4219 1831 4219 
Q 1534 4219 1204 4116 
Q 875 4013 500 3803 
L 500 4441 
Q 881 4594 1212 4672 
Q 1544 4750 1819 4750 
Q 2544 4750 2975 4387 
Q 3406 4025 3406 3419 
Q 3406 3131 3298 2873 
Q 3191 2616 2906 2266 
Q 2828 2175 2409 1742 
Q 1991 1309 1228 531 
z
" transform="scale(0.015625)"/>
       </defs>
       <use xlink:href="#DejaVuSans-32"/>
      </g>
     </g>
    </g>
    <g id="ytick_3">
     <g id="line2d_5">
      <g>
       <use xlink:href="#m56792e6df4" x="31.97" y="50.853057" style="stroke: #000000; stroke-width: 0.8"/>
      </g>
     </g>
     <g id="text_6">
      <!-- 3 -->
      <g transform="translate(19.88 53.892432) scale(0.08 -0.08)">
       <use xlink:href="#DejaVuSans-33"/>
      </g>
     </g>
    </g>
    <g id="ytick_4">
     <g id="line2d_6">
      <g>
       <use xlink:href="#m56792e6df4" x="31.97" y="23.289939" style="stroke: #000000; stroke-width: 0.8"/>
      </g>
     </g>
     <g id="text_7">
      <!-- 4 -->
      <g transform="translate(19.88 26.329314) scale(0.08 -0.08)">
       <defs>
        <path id="DejaVuSans-34" d="M 2419 4116 
L 825 1625 
L 2419 1625 
L 2419 4116 
z
M 2253 4666 
L 3047 4666 
L 3047 1625 
L 3713 1625 
L 3713 1100 
L 3047 1100 
L 3047 0 
L 2419 0 
L 2419 1100 
L 313 1100 
L 313 1709 
L 2253 4666 
z
" transform="scale(0.015625)"/>
       </defs>
       <use xlink:href="#DejaVuSans-34"/>
      </g>
     </g>
    </g>
    <g id="text_8">
     <!-- log(dSPN/iSPN activity) -->
     <g transform="translate(14.21625 105.420625) rotate(-90) scale(0.08 -0.08)">
      <defs>
       <path id="DejaVuSans-6c" d="M 603 4863 
L 1178 4863 
L 1178 0 
L 603 0 
L 603 4863 
z
" transform="scale(0.015625)"/>
       <path id="DejaVuSans-6f" d="M 1959 3097 
Q 1497 3097 1228 2736 
Q 959 2375 959 1747 
Q 959 1119 1226 758 
Q 1494 397 1959 397 
Q 2419 397 2687 759 
Q 2956 1122 2956 1747 
Q 2956 2369 2687 2733 
Q 2419 3097 1959 3097 
z
M 1959 3584 
Q 2709 3584 3137 3096 
Q 3566 2609 3566 1747 
Q 3566 888 3137 398 
Q 2709 -91 1959 -91 
Q 1206 -91 779 398 
Q 353 888 353 1747 
Q 353 2609 779 3096 
Q 1206 3584 1959 3584 
z
" transform="scale(0.015625)"/>
       <path id="DejaVuSans-67" d="M 2906 1791 
Q 2906 2416 2648 2759 
Q 2391 3103 1925 3103 
Q 1463 3103 1205 2759 
Q 947 2416 947 1791 
Q 947 1169 1205 825 
Q 1463 481 1925 481 
Q 2391 481 2648 825 
Q 2906 1169 2906 1791 
z
M 3481 434 
Q 3481 -459 3084 -895 
Q 2688 -1331 1869 -1331 
Q 1566 -1331 1297 -1286 
Q 1028 -1241 775 -1147 
L 775 -588 
Q 1028 -725 1275 -790 
Q 1522 -856 1778 -856 
Q 2344 -856 2625 -561 
Q 2906 -266 2906 331 
L 2906 616 
Q 2728 306 2450 153 
Q 2172 0 1784 0 
Q 1141 0 747 490 
Q 353 981 353 1791 
Q 353 2603 747 3093 
Q 1141 3584 1784 3584 
Q 2172 3584 2450 3431 
Q 2728 3278 2906 2969 
L 2906 3500 
L 3481 3500 
L 3481 434 
z
" transform="scale(0.015625)"/>
       <path id="DejaVuSans-64" d="M 2906 2969 
L 2906 4863 
L 3481 4863 
L 3481 0 
L 2906 0 
L 2906 525 
Q 2725 213 2448 61 
Q 2172 -91 1784 -91 
Q 1150 -91 751 415 
Q 353 922 353 1747 
Q 353 2572 751 3078 
Q 1150 3584 1784 3584 
Q 2172 3584 2448 3432 
Q 2725 3281 2906 2969 
z
M 947 1747 
Q 947 1113 1208 752 
Q 1469 391 1925 391 
Q 2381 391 2643 752 
Q 2906 1113 2906 1747 
Q 2906 2381 2643 2742 
Q 2381 3103 1925 3103 
Q 1469 3103 1208 2742 
Q 947 2381 947 1747 
z
" transform="scale(0.015625)"/>
       <path id="DejaVuSans-53" d="M 3425 4513 
L 3425 3897 
Q 3066 4069 2747 4153 
Q 2428 4238 2131 4238 
Q 1616 4238 1336 4038 
Q 1056 3838 1056 3469 
Q 1056 3159 1242 3001 
Q 1428 2844 1947 2747 
L 2328 2669 
Q 3034 2534 3370 2195 
Q 3706 1856 3706 1288 
Q 3706 609 3251 259 
Q 2797 -91 1919 -91 
Q 1588 -91 1214 -16 
Q 841 59 441 206 
L 441 856 
Q 825 641 1194 531 
Q 1563 422 1919 422 
Q 2459 422 2753 634 
Q 3047 847 3047 1241 
Q 3047 1584 2836 1778 
Q 2625 1972 2144 2069 
L 1759 2144 
Q 1053 2284 737 2584 
Q 422 2884 422 3419 
Q 422 4038 858 4394 
Q 1294 4750 2059 4750 
Q 2388 4750 2728 4690 
Q 3069 4631 3425 4513 
z
" transform="scale(0.015625)"/>
       <path id="DejaVuSans-50" d="M 1259 4147 
L 1259 2394 
L 2053 2394 
Q 2494 2394 2734 2622 
Q 2975 2850 2975 3272 
Q 2975 3691 2734 3919 
Q 2494 4147 2053 4147 
L 1259 4147 
z
M 628 4666 
L 2053 4666 
Q 2838 4666 3239 4311 
Q 3641 3956 3641 3272 
Q 3641 2581 3239 2228 
Q 2838 1875 2053 1875 
L 1259 1875 
L 1259 0 
L 628 0 
L 628 4666 
z
" transform="scale(0.015625)"/>
       <path id="DejaVuSans-4e" d="M 628 4666 
L 1478 4666 
L 3547 763 
L 3547 4666 
L 4159 4666 
L 4159 0 
L 3309 0 
L 1241 3903 
L 1241 0 
L 628 0 
L 628 4666 
z
" transform="scale(0.015625)"/>
       <path id="DejaVuSans-2f" d="M 1625 4666 
L 2156 4666 
L 531 -594 
L 0 -594 
L 1625 4666 
z
" transform="scale(0.015625)"/>
       <path id="DejaVuSans-76" d="M 191 3500 
L 800 3500 
L 1894 563 
L 2988 3500 
L 3597 3500 
L 2284 0 
L 1503 0 
L 191 3500 
z
" transform="scale(0.015625)"/>
       <path id="DejaVuSans-79" d="M 2059 -325 
Q 1816 -950 1584 -1140 
Q 1353 -1331 966 -1331 
L 506 -1331 
L 506 -850 
L 844 -850 
Q 1081 -850 1212 -737 
Q 1344 -625 1503 -206 
L 1606 56 
L 191 3500 
L 800 3500 
L 1894 763 
L 2988 3500 
L 3597 3500 
L 2059 -325 
z
" transform="scale(0.015625)"/>
      </defs>
      <use xlink:href="#DejaVuSans-6c"/>
      <use xlink:href="#DejaVuSans-6f" transform="translate(27.783203 0)"/>
      <use xlink:href="#DejaVuSans-67" transform="translate(88.964844 0)"/>
      <use xlink:href="#DejaVuSans-28" transform="translate(152.441406 0)"/>
      <use xlink:href="#DejaVuSans-64" transform="translate(191.455078 0)"/>
      <use xlink:href="#DejaVuSans-53" transform="translate(254.931641 0)"/>
      <use xlink:href="#DejaVuSans-50" transform="translate(318.408203 0)"/>
      <use xlink:href="#DejaVuSans-4e" transform="translate(378.710938 0)"/>
      <use xlink:href="#DejaVuSans-2f" transform="translate(453.515625 0)"/>
      <use xlink:href="#DejaVuSans-69" transform="translate(487.207031 0)"/>
      <use xlink:href="#DejaVuSans-53" transform="translate(514.990234 0)"/>
      <use xlink:href="#DejaVuSans-50" transform="translate(578.466797 0)"/>
      <use xlink:href="#DejaVuSans-4e" transform="translate(638.769531 0)"/>
      <use xlink:href="#DejaVuSans-20" transform="translate(713.574219 0)"/>
      <use xlink:href="#DejaVuSans-61" transform="translate(745.361328 0)"/>
      <use xlink:href="#DejaVuSans-63" transform="translate(806.640625 0)"/>
      <use xlink:href="#DejaVuSans-74" transform="translate(861.621094 0)"/>
      <use xlink:href="#DejaVuSans-69" transform="translate(900.830078 0)"/>
      <use xlink:href="#DejaVuSans-76" transform="translate(928.613281 0)"/>
      <use xlink:href="#DejaVuSans-69" transform="translate(987.792969 0)"/>
      <use xlink:href="#DejaVuSans-74" transform="translate(1015.576172 0)"/>
      <use xlink:href="#DejaVuSans-79" transform="translate(1054.785156 0)"/>
      <use xlink:href="#DejaVuSans-29" transform="translate(1113.964844 0)"/>
     </g>
    </g>
   </g>
   <g id="line2d_7">
    <path d="M 36.669545 98.475913 
L 38.039176 98.510917 
L 39.408807 98.294528 
L 43.346496 97.371178 
L 44.373719 96.683872 
L 45.400942 95.992836 
L 45.914553 95.840639 
L 46.428165 95.912732 
L 46.941776 96.235675 
L 47.626592 97.00903 
L 50.023446 100.193344 
L 50.879465 100.75772 
L 52.077892 101.193099 
L 53.276319 101.69601 
L 54.303541 102.378174 
L 56.8716 104.22865 
L 57.898823 104.587303 
L 59.09725 104.722381 
L 60.295677 104.635262 
L 61.151696 104.390669 
L 62.007715 103.896149 
L 62.69253 103.248502 
L 63.377345 102.317982 
L 64.233365 100.703754 
L 65.260587 98.165394 
L 67.315034 92.885021 
L 68.171054 91.372291 
L 69.540684 89.581833 
L 70.396704 88.299147 
L 71.252723 86.609333 
L 72.45115 83.668691 
L 74.163189 78.890162 
L 75.019208 75.863381 
L 75.875226 71.887982 
L 77.073654 64.888844 
L 78.27208 58.25055 
L 78.956897 55.537054 
L 79.641711 53.633109 
L 81.867363 48.295222 
L 82.894585 44.889078 
L 83.750604 41.395374 
L 84.606622 36.941374 
L 86.489867 26.375148 
L 87.003478 24.813463 
L 87.345885 24.323343 
L 87.688293 24.271257 
L 88.0307 24.613457 
L 88.544311 25.699822 
L 89.742737 29.284285 
L 90.769963 31.911049 
L 92.482 35.473446 
L 92.995611 36.191533 
L 93.338018 36.394456 
L 93.680426 36.302409 
L 94.022833 35.87918 
L 94.536448 34.634159 
L 95.221263 32.145095 
L 96.248485 28.449323 
L 96.590893 27.742078 
L 96.9333 27.472868 
L 97.104504 27.521537 
L 97.446911 27.999519 
L 97.789318 28.970993 
L 98.302929 31.226746 
L 99.158952 36.295574 
L 100.528581 44.488397 
L 101.3846 48.465793 
L 102.069415 50.75982 
L 102.583026 51.813385 
L 102.925433 52.146327 
L 103.267844 52.174558 
L 103.610252 51.919667 
L 104.123863 51.124324 
L 105.322289 48.905056 
L 105.664696 48.601338 
L 106.007103 48.562395 
L 106.349511 48.803927 
L 106.863122 49.653314 
L 107.547941 51.451398 
L 109.773589 57.976647 
L 110.629607 59.722888 
L 111.485625 60.927974 
L 113.36887 63.155542 
L 114.224893 64.837277 
L 116.964152 70.919577 
L 118.504989 73.445868 
L 120.388225 76.093523 
L 121.586655 77.496065 
L 122.442678 78.163552 
L 123.127492 78.378179 
L 123.641099 78.322636 
L 124.154714 78.075893 
L 124.839529 77.473728 
L 126.722774 75.47836 
L 127.236381 75.374753 
L 127.578788 75.496708 
L 128.092403 75.953891 
L 128.948418 77.197447 
L 129.80444 78.428937 
L 130.318047 78.877637 
L 130.660455 78.995823 
L 130.660455 78.995823 
" clip-path="url(#p3ec8c1938f)" style="fill: none; stroke: #30123b; stroke-width: 1.5; stroke-linecap: square"/>
   </g>
   <g id="line2d_8">
    <path d="M 36.669545 98.392625 
L 38.552788 98.302598 
L 43.688903 97.628307 
L 46.085757 96.765537 
L 46.599369 96.898798 
L 47.11298 97.230639 
L 47.797796 97.935064 
L 50.023446 100.528366 
L 51.050669 101.246526 
L 54.988357 103.563792 
L 56.700396 104.577728 
L 57.898823 105.01218 
L 58.926046 105.139153 
L 59.953269 105.043185 
L 60.980492 104.73331 
L 62.007715 104.190666 
L 63.034938 103.377912 
L 64.062162 102.278313 
L 65.431791 100.432934 
L 66.972626 97.969512 
L 68.171054 95.6423 
L 69.198276 93.183837 
L 70.567908 89.271593 
L 75.361615 74.441368 
L 76.217634 70.523831 
L 77.244858 64.561862 
L 79.984119 47.544724 
L 80.840137 43.780429 
L 81.524952 41.618544 
L 82.209771 40.126813 
L 84.606622 35.811244 
L 86.14746 32.283828 
L 86.661071 31.561955 
L 87.174682 31.195919 
L 87.688293 31.136473 
L 88.544311 31.376322 
L 89.229126 31.487624 
L 89.742737 31.353045 
L 90.256352 30.980129 
L 90.941167 30.146375 
L 92.995611 27.272494 
L 93.851629 26.634954 
L 95.221263 25.949541 
L 95.734874 25.867048 
L 96.248485 25.99681 
L 97.104504 26.581659 
L 97.618115 26.817118 
L 97.960522 26.740303 
L 98.302929 26.385965 
L 98.645337 25.715751 
L 99.158952 24.157897 
L 100.699785 18.818912 
L 101.042192 18.359928 
L 101.213396 18.301599 
L 101.555804 18.536165 
L 101.898211 19.213324 
L 102.411822 20.899521 
L 103.781456 26.879614 
L 104.808678 30.684349 
L 107.034326 37.557951 
L 107.719144 39.199704 
L 108.232755 40.00957 
L 108.746366 40.474186 
L 110.115996 41.328429 
L 110.629607 42.063445 
L 111.143218 43.174288 
L 111.999241 45.674984 
L 113.36887 49.777128 
L 114.053685 51.218252 
L 114.909707 52.434897 
L 116.108129 53.994243 
L 116.964152 55.544079 
L 118.676188 59.350202 
L 122.442678 67.577584 
L 123.983507 70.573676 
L 125.010729 72.078452 
L 126.209159 73.38631 
L 127.578788 74.563362 
L 128.60601 75.191919 
L 129.633232 75.543004 
L 130.660455 75.658085 
L 130.660455 75.658085 
" clip-path="url(#p3ec8c1938f)" style="fill: none; stroke: #466be3; stroke-width: 1.5; stroke-linecap: square"/>
   </g>
   <g id="line2d_9">
    <path d="M 36.669545 98.269882 
L 39.922419 98.369221 
L 41.805661 98.181018 
L 43.004088 97.869096 
L 44.031311 97.374783 
L 45.743349 96.478626 
L 46.256961 96.430801 
L 46.770573 96.568771 
L 47.455388 97.039094 
L 48.482611 98.141391 
L 50.023446 99.767534 
L 51.221873 100.66189 
L 54.988357 103.224821 
L 56.529192 104.200021 
L 57.727619 104.72542 
L 58.926046 105.027939 
L 60.124473 105.110241 
L 61.151696 104.983463 
L 62.178919 104.654523 
L 63.206141 104.111683 
L 64.233365 103.327426 
L 65.260587 102.248222 
L 66.287812 100.814117 
L 67.315034 98.999916 
L 68.684665 96.070775 
L 70.396704 91.836729 
L 79.470508 68.281391 
L 80.668933 65.503777 
L 81.524952 62.861991 
L 82.380974 59.45331 
L 83.5794 53.596887 
L 85.120233 44.809936 
L 86.832274 35.210189 
L 87.688293 31.674854 
L 88.373107 29.785156 
L 88.886719 28.91455 
L 89.40033 28.470647 
L 89.742737 28.390343 
L 90.085144 28.4679 
L 90.598759 28.849432 
L 91.283574 29.727281 
L 92.310796 31.12333 
L 92.824407 31.446486 
L 93.166815 31.425483 
L 93.509222 31.204718 
L 94.022833 30.556677 
L 95.734874 27.996831 
L 96.248485 27.722948 
L 96.9333 27.679944 
L 97.618115 27.654079 
L 98.131726 27.426374 
L 98.645337 26.929091 
L 99.330156 25.886625 
L 100.699785 23.632613 
L 101.213396 23.240731 
L 101.555804 23.214366 
L 101.898211 23.378858 
L 102.411822 23.931573 
L 103.439048 25.604803 
L 104.46627 27.115881 
L 105.322289 27.933935 
L 106.178307 28.396868 
L 107.890348 29.095373 
L 108.403959 29.688765 
L 108.91757 30.714828 
L 109.431181 32.282632 
L 110.115996 35.239091 
L 112.512852 46.834903 
L 113.026463 47.996341 
L 113.540074 48.628663 
L 115.080907 49.936213 
L 115.594522 50.912241 
L 116.279337 52.760472 
L 118.162581 58.242 
L 118.847396 59.505409 
L 119.703411 60.569351 
L 121.415447 62.502717 
L 122.442678 64.103043 
L 124.497122 67.825542 
L 127.065181 72.54381 
L 128.092403 73.869767 
L 129.119625 74.835227 
L 129.97564 75.362654 
L 130.660455 75.529822 
L 130.660455 75.529822 
" clip-path="url(#p3ec8c1938f)" style="fill: none; stroke: #28bceb; stroke-width: 1.5; stroke-linecap: square"/>
   </g>
   <g id="line2d_10">
    <path d="M 36.669545 98.238618 
L 40.093622 98.357615 
L 42.148068 98.134035 
L 43.346496 97.809452 
L 44.544923 97.221317 
L 45.743349 96.671452 
L 46.428165 96.646027 
L 46.941776 96.84225 
L 47.626592 97.378992 
L 48.996223 98.913931 
L 50.023446 99.909985 
L 51.050669 100.588013 
L 54.132338 102.356278 
L 56.357988 103.790163 
L 57.556416 104.293584 
L 58.926046 104.615235 
L 60.46688 104.738754 
L 61.836512 104.634368 
L 63.206141 104.316292 
L 64.746976 103.740791 
L 66.116608 103.01534 
L 67.315034 102.133032 
L 68.342258 101.124288 
L 69.36948 99.830874 
L 70.567908 97.915911 
L 71.766334 95.562987 
L 73.478373 91.652072 
L 78.614489 79.023542 
L 79.641711 75.549431 
L 82.552178 65.099173 
L 85.120233 57.676498 
L 89.40033 42.047371 
L 91.625982 33.290065 
L 92.139593 32.054388 
L 92.653204 31.349286 
L 93.166815 31.113459 
L 94.536448 31.047461 
L 94.878856 30.719796 
L 95.392467 29.791531 
L 96.077281 27.803634 
L 98.302929 20.443257 
L 98.987748 19.229411 
L 99.501359 18.754682 
L 100.01497 18.612802 
L 100.528581 18.743852 
L 101.213396 19.238967 
L 102.069415 20.223412 
L 103.096641 21.774668 
L 104.979881 24.705959 
L 105.8359 25.556371 
L 106.691918 26.046662 
L 107.719144 26.61593 
L 108.232755 27.155343 
L 108.746366 27.99578 
L 109.431181 29.632972 
L 110.2872 32.347066 
L 112.170444 38.579145 
L 112.855259 40.170448 
L 113.540074 41.28438 
L 115.252115 43.694086 
L 115.936929 45.218352 
L 116.964152 48.112638 
L 121.244248 61.338815 
L 122.613877 65.555246 
L 123.4699 67.636097 
L 124.325914 69.134722 
L 125.010729 69.906827 
L 125.695544 70.342831 
L 126.380358 70.524988 
L 129.462033 70.968496 
L 130.489255 71.203567 
L 130.660455 71.214042 
L 130.660455 71.214042 
" clip-path="url(#p3ec8c1938f)" style="fill: none; stroke: #32f298; stroke-width: 1.5; stroke-linecap: square"/>
   </g>
   <g id="line2d_11">
    <path d="M 36.669545 98.596469 
L 40.43603 98.038165 
L 42.490476 97.933135 
L 43.517699 97.62351 
L 45.058534 96.820669 
L 45.914553 96.529986 
L 46.428165 96.547318 
L 46.941776 96.746101 
L 47.626592 97.272927 
L 50.708261 100.164804 
L 52.420299 100.994234 
L 54.132338 101.948641 
L 57.556416 103.952881 
L 58.926046 104.490918 
L 60.124473 104.72199 
L 61.3229 104.716401 
L 63.719754 104.393511 
L 65.774201 103.997118 
L 66.801423 103.580855 
L 67.828647 102.909702 
L 69.027073 101.815199 
L 70.567908 100.054494 
L 71.766334 98.333044 
L 72.793558 96.415246 
L 73.991984 93.625994 
L 76.560043 87.473953 
L 78.443286 83.75587 
L 80.155322 80.249621 
L 81.182545 77.570941 
L 82.209771 74.215451 
L 87.859496 54.281525 
L 89.057922 50.773587 
L 90.256352 47.372937 
L 91.112371 44.160837 
L 95.56367 25.453329 
L 96.248485 23.306111 
L 96.762096 22.331582 
L 97.104504 22.063489 
L 97.446911 22.11409 
L 97.789318 22.463539 
L 98.302929 23.452572 
L 99.330156 26.27277 
L 100.186174 28.311458 
L 100.699785 28.997095 
L 101.042192 29.16601 
L 101.3846 29.092521 
L 101.727007 28.780878 
L 102.240618 27.896332 
L 102.925433 26.049921 
L 103.952659 22.319977 
L 105.151085 17.958538 
L 105.664696 16.781834 
L 106.007103 16.440783 
L 106.178307 16.431636 
L 106.520714 16.768402 
L 106.863122 17.594894 
L 107.376737 19.703826 
L 108.061552 23.715638 
L 109.431181 32.064995 
L 109.944792 34.177567 
L 110.458403 35.483362 
L 110.800811 35.91926 
L 111.143218 36.045421 
L 111.485625 35.903988 
L 111.999241 35.29554 
L 112.684055 34.016478 
L 114.053685 31.393999 
L 114.5673 30.841541 
L 114.909707 30.683824 
L 115.252115 30.713159 
L 115.594522 30.937663 
L 116.108129 31.647024 
L 116.621744 32.792959 
L 117.306559 34.914968 
L 118.676188 40.228501 
L 123.4699 58.6893 
L 124.497122 61.734567 
L 125.353136 63.63848 
L 126.209159 65.101453 
L 126.893973 65.954317 
L 127.578788 66.466346 
L 128.092403 66.610494 
L 128.777218 66.533725 
L 130.660455 65.984697 
L 130.660455 65.984697 
" clip-path="url(#p3ec8c1938f)" style="fill: none; stroke: #a4fc3c; stroke-width: 1.5; stroke-linecap: square"/>
   </g>
   <g id="line2d_12">
    <path d="M 36.669545 98.625699 
L 38.723992 98.372378 
L 42.490476 98.174055 
L 43.517699 97.748047 
L 46.085757 96.484238 
L 46.599369 96.538792 
L 47.11298 96.780826 
L 47.797796 97.360624 
L 50.365854 99.915348 
L 51.393077 100.45712 
L 53.618727 101.54336 
L 55.673173 102.928263 
L 57.556416 104.107835 
L 59.09725 104.826169 
L 60.46688 105.241521 
L 61.665307 105.354545 
L 62.863734 105.226752 
L 66.630219 104.421404 
L 67.999851 103.944953 
L 69.198276 103.297907 
L 70.739112 102.189712 
L 72.793558 100.420776 
L 74.163189 98.964584 
L 75.532819 97.141355 
L 77.244858 94.424228 
L 79.641711 90.155705 
L 80.840137 87.64068 
L 81.867363 85.008849 
L 83.408197 80.331466 
L 84.94903 75.859057 
L 86.661071 70.958218 
L 87.517089 67.72783 
L 88.715515 62.221375 
L 90.427556 54.382431 
L 91.283574 51.325789 
L 91.968389 49.531674 
L 92.653204 48.350817 
L 93.338018 47.629168 
L 94.365241 46.652818 
L 94.878856 45.874516 
L 95.56367 44.342094 
L 96.419689 41.685022 
L 99.843767 29.957075 
L 100.699785 28.116329 
L 101.3846 27.099275 
L 101.898211 26.665611 
L 102.411822 26.532576 
L 102.925433 26.660794 
L 103.781456 27.187642 
L 104.808678 27.779319 
L 105.8359 28.08677 
L 106.863122 28.202153 
L 107.547941 28.10492 
L 108.232755 27.797385 
L 109.259978 27.250604 
L 109.773589 27.251833 
L 110.115996 27.457503 
L 110.629607 28.116703 
L 111.314422 29.537658 
L 112.512852 32.237643 
L 113.197666 33.194876 
L 113.882485 33.717157 
L 114.7385 34.381929 
L 115.252115 35.094556 
L 115.936929 36.471679 
L 116.964152 38.593865 
L 117.477759 39.125597 
L 117.820166 39.163311 
L 118.162581 38.94873 
L 118.676188 38.25706 
L 119.703411 36.617206 
L 120.045818 36.338348 
L 120.388225 36.304354 
L 120.730633 36.538084 
L 121.07304 37.03195 
L 121.586655 38.179049 
L 122.785085 41.721494 
L 123.812307 44.432965 
L 125.353136 48.224407 
L 126.037951 50.700544 
L 128.263603 59.650561 
L 128.777218 60.579018 
L 129.290825 60.958762 
L 129.80444 60.984417 
L 130.660455 60.851369 
L 130.660455 60.851369 
" clip-path="url(#p3ec8c1938f)" style="fill: none; stroke: #eecf3a; stroke-width: 1.5; stroke-linecap: square"/>
   </g>
   <g id="line2d_13">
    <path d="M 36.669545 98.280508 
L 38.039176 98.215988 
L 43.860107 97.360421 
L 46.085757 96.522067 
L 46.599369 96.617118 
L 47.11298 96.909323 
L 47.797796 97.56222 
L 50.023446 99.996148 
L 50.879465 100.540816 
L 54.64595 102.49499 
L 56.8716 103.997364 
L 57.898823 104.410925 
L 58.926046 104.597157 
L 60.980492 104.661644 
L 64.746976 104.664647 
L 69.027073 104.236904 
L 70.2255 103.849721 
L 71.252723 103.271949 
L 72.45115 102.324547 
L 74.848004 100.04305 
L 77.587265 97.231848 
L 78.785693 95.645004 
L 79.812915 93.899647 
L 85.291437 83.279159 
L 86.14746 80.759672 
L 87.174682 76.827396 
L 89.057922 69.253562 
L 89.913941 66.778417 
L 90.941167 64.569196 
L 92.310796 61.694481 
L 93.166815 59.348625 
L 94.022833 56.250469 
L 95.050059 51.516272 
L 96.590893 44.350473 
L 97.275707 42.138262 
L 97.789318 41.052673 
L 98.302929 40.435722 
L 98.816545 40.206191 
L 99.330156 40.244017 
L 100.699785 40.562389 
L 101.213396 40.35735 
L 101.727007 39.801508 
L 102.240618 38.844367 
L 102.925433 36.954485 
L 103.781456 33.812984 
L 107.719144 18.138927 
L 108.746366 14.830778 
L 109.259978 13.725218 
L 109.602385 13.326626 
L 109.944792 13.247873 
L 110.2872 13.506332 
L 110.629607 14.092515 
L 111.143218 15.512656 
L 111.999241 18.860734 
L 114.053685 27.437848 
L 114.7385 29.313016 
L 115.252115 30.10479 
L 115.594522 30.31487 
L 115.936929 30.282781 
L 116.450536 29.867518 
L 118.162581 27.921534 
L 118.504989 27.892639 
L 118.847396 28.066122 
L 119.361003 28.704089 
L 119.874618 29.748527 
L 120.730633 32.164528 
L 121.757855 35.788723 
L 123.127492 41.526647 
L 126.551566 56.559136 
L 127.578788 59.898014 
L 128.60601 62.475504 
L 129.462033 64.033595 
L 130.146848 64.789751 
L 130.660455 65.005554 
L 130.660455 65.005554 
" clip-path="url(#p3ec8c1938f)" style="fill: none; stroke: #fb7e21; stroke-width: 1.5; stroke-linecap: square"/>
   </g>
   <g id="line2d_14">
    <path d="M 36.669545 99.090016 
L 40.093622 98.739104 
L 42.319272 98.328319 
L 43.517699 97.916812 
L 45.058534 97.068091 
L 45.914553 96.742619 
L 46.428165 96.745418 
L 46.941776 96.941773 
L 47.626592 97.490475 
L 48.825019 98.885929 
L 49.852242 99.982739 
L 50.708261 100.606774 
L 51.906688 101.142682 
L 53.618727 101.889024 
L 57.556416 103.914822 
L 59.268453 104.33094 
L 61.836512 104.690282 
L 64.91818 104.910975 
L 66.801423 104.875433 
L 68.342258 104.614079 
L 72.45115 103.528076 
L 73.991984 102.963355 
L 75.361615 102.196556 
L 76.560043 101.263944 
L 77.587265 100.176807 
L 78.614489 98.763859 
L 79.984119 96.472705 
L 83.5794 90.254534 
L 84.94903 87.778512 
L 88.0307 81.789955 
L 90.256352 78.487096 
L 91.625982 76.29527 
L 92.482 74.482335 
L 93.338018 72.065742 
L 94.365241 68.302098 
L 95.734874 62.189878 
L 97.618115 53.798312 
L 98.816545 49.443444 
L 102.583026 36.618251 
L 104.46627 29.123013 
L 105.151085 27.265588 
L 105.664696 26.422581 
L 106.007103 26.152043 
L 106.349511 26.116951 
L 106.691918 26.307901 
L 107.205529 26.952085 
L 108.746366 29.465233 
L 109.088774 29.646444 
L 109.431181 29.576799 
L 109.773589 29.260483 
L 110.2872 28.427538 
L 111.314422 26.552462 
L 111.656833 26.205477 
L 111.999241 26.100023 
L 112.341648 26.246444 
L 112.855259 26.867897 
L 114.5673 29.542265 
L 115.080907 29.81026 
L 116.621744 30.144831 
L 117.135351 30.742035 
L 117.820166 32.072815 
L 119.189804 34.993682 
L 119.703411 35.620964 
L 120.388225 36.032587 
L 121.244248 36.497124 
L 121.757855 37.117394 
L 122.27147 38.123808 
L 123.127492 40.48056 
L 124.154714 43.316517 
L 124.668321 44.218575 
L 125.010729 44.524632 
L 125.353136 44.578 
L 125.695544 44.393917 
L 126.209159 43.753052 
L 127.921196 41.079913 
L 128.263603 40.904064 
L 128.60601 40.914125 
L 129.119625 41.224263 
L 130.489255 42.383914 
L 130.660455 42.423061 
L 130.660455 42.423061 
" clip-path="url(#p3ec8c1938f)" style="fill: none; stroke: #d02f05; stroke-width: 1.5; stroke-linecap: square"/>
   </g>
   <g id="line2d_15">
    <path d="M 36.669545 97.923712 
L 38.039176 98.048095 
L 40.778438 98.439619 
L 41.976865 98.302552 
L 43.175292 97.971737 
L 44.202515 97.47446 
L 46.085757 96.427407 
L 46.599369 96.405169 
L 47.11298 96.587037 
L 47.797796 97.116304 
L 50.537057 99.718053 
L 54.474746 102.092354 
L 55.844377 102.731964 
L 58.24123 103.491236 
L 61.3229 104.41864 
L 62.69253 104.515183 
L 64.062162 104.383598 
L 66.972626 103.928231 
L 67.828647 104.099256 
L 70.567908 104.863091 
L 71.252723 104.743647 
L 72.108743 104.360213 
L 73.478373 103.422553 
L 75.532819 102.016745 
L 76.560043 101.554834 
L 77.587265 101.321895 
L 79.984119 100.935185 
L 80.840137 100.49333 
L 81.69616 99.806855 
L 82.723382 98.683496 
L 84.264215 96.598557 
L 85.805048 94.615431 
L 87.003478 93.47402 
L 88.201904 92.358646 
L 88.886719 91.453433 
L 89.742737 89.874232 
L 90.941167 87.009544 
L 92.482 83.428287 
L 94.536448 79.086606 
L 95.734874 75.693605 
L 98.474133 67.147521 
L 99.158952 63.752575 
L 100.01497 58.172414 
L 101.3846 48.959495 
L 102.069415 45.769391 
L 102.583026 44.184495 
L 103.096641 43.162387 
L 103.610252 42.54376 
L 104.295067 42.124804 
L 105.322289 41.903993 
L 106.007103 41.644134 
L 106.520714 41.193055 
L 107.205529 40.175475 
L 109.259978 36.556347 
L 109.773589 36.089069 
L 110.2872 35.874712 
L 110.800811 35.920141 
L 111.314422 36.22631 
L 111.999241 36.973759 
L 113.197666 38.388517 
L 113.711277 38.659588 
L 114.224893 38.663984 
L 115.594522 38.433178 
L 116.108129 38.694233 
L 117.648966 39.847706 
L 117.991374 39.78889 
L 118.504989 39.364762 
L 119.874618 37.709761 
L 120.217026 37.647081 
L 120.559433 37.846285 
L 120.90184 38.305052 
L 121.415447 39.379029 
L 122.613877 42.142087 
L 123.127492 42.748635 
L 123.4699 42.862593 
L 123.812307 42.769907 
L 124.497122 42.217062 
L 125.181937 41.716828 
L 125.524344 41.671248 
L 125.866751 41.820172 
L 126.380358 42.418053 
L 127.065181 43.745219 
L 128.434811 46.526986 
L 129.119625 47.318005 
L 129.633232 47.619712 
L 130.318047 47.773217 
L 130.660455 47.791611 
L 130.660455 47.791611 
" clip-path="url(#p3ec8c1938f)" style="fill: none; stroke: #7a0403; stroke-width: 1.5; stroke-linecap: square"/>
   </g>
   <g id="patch_5">
    <path d="M 31.97 109.96 
L 31.97 8.64 
" style="fill: none; stroke: #000000; stroke-width: 0.8; stroke-linejoin: miter; stroke-linecap: square"/>
   </g>
   <g id="patch_6">
    <path d="M 135.36 109.96 
L 135.36 8.64 
" style="fill: none; stroke: #000000; stroke-width: 0.8; stroke-linejoin: miter; stroke-linecap: square"/>
   </g>
   <g id="patch_7">
    <path d="M 31.97 109.96 
L 135.36 109.96 
" style="fill: none; stroke: #000000; stroke-width: 0.8; stroke-linejoin: miter; stroke-linecap: square"/>
   </g>
   <g id="patch_8">
    <path d="M 31.97 8.64 
L 135.36 8.64 
" style="fill: none; stroke: #000000; stroke-width: 0.8; stroke-linejoin: miter; stroke-linecap: square"/>
   </g>
  </g>
 </g>
 <defs>
  <clipPath id="p3ec8c1938f">
   <rect x="31.97" y="8.64" width="103.39" height="101.32"/>
  </clipPath>
 </defs>
</svg>
