<?xml version="1.0" encoding="utf-8" standalone="no"?>
<!DOCTYPE svg PUBLIC "-//W3C//DTD SVG 1.1//EN"
  "http://www.w3.org/Graphics/SVG/1.1/DTD/svg11.dtd">
<svg xmlns:xlink="http://www.w3.org/1999/xlink" width="144pt" height="144pt" viewBox="0 0 144 144" xmlns="http://www.w3.org/2000/svg" version="1.1">
 <metadata>
  <rdf:RDF xmlns:dc="http://purl.org/dc/elements/1.1/" xmlns:cc="http://creativecommons.org/ns#" xmlns:rdf="http://www.w3.org/1999/02/22-rdf-syntax-ns#">
   <cc:Work>
    <dc:type rdf:resource="http://purl.org/dc/dcmitype/StillImage"/>
    <dc:date>2025-02-03T20:07:32.693689</dc:date>
    <dc:format>image/svg+xml</dc:format>
    <dc:creator>
     <cc:Agent>
      <dc:title>Matplotlib v3.10.0, https://matplotlib.org/</dc:title>
     </cc:Agent>
    </dc:creator>
   </cc:Work>
  </rdf:RDF>
 </metadata>
 <defs>
  <style type="text/css">*{stroke-linejoin: round; stroke-linecap: butt}</style>
 </defs>
 <g id="figure_1">
  <g id="patch_1">
   <path d="M 0 144 
L 144 144 
L 144 0 
L 0 0 
z
" style="fill: #ffffff"/>
  </g>
  <g id="axes_1">
   <g id="patch_2">
    <path d="M 46.28 109.96 
L 135.36 109.96 
L 135.36 8.64 
L 46.28 8.64 
z
" style="fill: #ffffff"/>
   </g>
   <g id="patch_3">
    <path d="M 57.704484 109.96 
L 59.179563 109.96 
L 59.179563 8.64 
L 57.704484 8.64 
z
" clip-path="url(#p833c439e8d)" style="fill: #ff0000; opacity: 0.2; stroke: #ff0000; stroke-linejoin: miter"/>
   </g>
   <g id="patch_4">
    <path d="M 101.956846 109.96 
L 131.310909 109.96 
L 131.310909 8.64 
L 101.956846 8.64 
z
" clip-path="url(#p833c439e8d)" style="fill: #008000; opacity: 0.2; stroke: #008000; stroke-linejoin: miter"/>
   </g>
   <g id="matplotlib.axis_1">
    <g id="xtick_1">
     <g id="line2d_1">
      <defs>
       <path id="m93d41dd3d1" d="M 0 0 
L 0 3.5 
" style="stroke: #000000; stroke-width: 0.8"/>
      </defs>
      <g>
       <use xlink:href="#m93d41dd3d1" x="57.704484" y="109.96" style="stroke: #000000; stroke-width: 0.8"/>
      </g>
     </g>
     <g id="text_1">
      <!-- 0 -->
      <g transform="translate(55.159484 123.03875) scale(0.08 -0.08)">
       <defs>
        <path id="DejaVuSans-30" d="M 2034 4250 
Q 1547 4250 1301 3770 
Q 1056 3291 1056 2328 
Q 1056 1369 1301 889 
Q 1547 409 2034 409 
Q 2525 409 2770 889 
Q 3016 1369 3016 2328 
Q 3016 3291 2770 3770 
Q 2525 4250 2034 4250 
z
M 2034 4750 
Q 2819 4750 3233 4129 
Q 3647 3509 3647 2328 
Q 3647 1150 3233 529 
Q 2819 -91 2034 -91 
Q 1250 -91 836 529 
Q 422 1150 422 2328 
Q 422 3509 836 4129 
Q 1250 4750 2034 4750 
z
" transform="scale(0.015625)"/>
       </defs>
       <use xlink:href="#DejaVuSans-30"/>
      </g>
     </g>
    </g>
    <g id="xtick_2">
     <g id="line2d_2">
      <g>
       <use xlink:href="#m93d41dd3d1" x="101.956846" y="109.96" style="stroke: #000000; stroke-width: 0.8"/>
      </g>
     </g>
     <g id="text_2">
      <!-- 3 -->
      <g transform="translate(99.411846 123.03875) scale(0.08 -0.08)">
       <defs>
        <path id="DejaVuSans-33" d="M 2597 2516 
Q 3050 2419 3304 2112 
Q 3559 1806 3559 1356 
Q 3559 666 3084 287 
Q 2609 -91 1734 -91 
Q 1441 -91 1130 -33 
Q 819 25 488 141 
L 488 750 
Q 750 597 1062 519 
Q 1375 441 1716 441 
Q 2309 441 2620 675 
Q 2931 909 2931 1356 
Q 2931 1769 2642 2001 
Q 2353 2234 1838 2234 
L 1294 2234 
L 1294 2753 
L 1863 2753 
Q 2328 2753 2575 2939 
Q 2822 3125 2822 3475 
Q 2822 3834 2567 4026 
Q 2313 4219 1838 4219 
Q 1578 4219 1281 4162 
Q 984 4106 628 3988 
L 628 4550 
Q 988 4650 1302 4700 
Q 1616 4750 1894 4750 
Q 2613 4750 3031 4423 
Q 3450 4097 3450 3541 
Q 3450 3153 3228 2886 
Q 3006 2619 2597 2516 
z
" transform="scale(0.015625)"/>
       </defs>
       <use xlink:href="#DejaVuSans-33"/>
      </g>
     </g>
    </g>
    <g id="text_3">
     <!-- time after cue (s) -->
     <g transform="translate(56.105625 134.78125) scale(0.08 -0.08)">
      <defs>
       <path id="DejaVuSans-74" d="M 1172 4494 
L 1172 3500 
L 2356 3500 
L 2356 3053 
L 1172 3053 
L 1172 1153 
Q 1172 725 1289 603 
Q 1406 481 1766 481 
L 2356 481 
L 2356 0 
L 1766 0 
Q 1100 0 847 248 
Q 594 497 594 1153 
L 594 3053 
L 172 3053 
L 172 3500 
L 594 3500 
L 594 4494 
L 1172 4494 
z
" transform="scale(0.015625)"/>
       <path id="DejaVuSans-69" d="M 603 3500 
L 1178 3500 
L 1178 0 
L 603 0 
L 603 3500 
z
M 603 4863 
L 1178 4863 
L 1178 4134 
L 603 4134 
L 603 4863 
z
" transform="scale(0.015625)"/>
       <path id="DejaVuSans-6d" d="M 3328 2828 
Q 3544 3216 3844 3400 
Q 4144 3584 4550 3584 
Q 5097 3584 5394 3201 
Q 5691 2819 5691 2113 
L 5691 0 
L 5113 0 
L 5113 2094 
Q 5113 2597 4934 2840 
Q 4756 3084 4391 3084 
Q 3944 3084 3684 2787 
Q 3425 2491 3425 1978 
L 3425 0 
L 2847 0 
L 2847 2094 
Q 2847 2600 2669 2842 
Q 2491 3084 2119 3084 
Q 1678 3084 1418 2786 
Q 1159 2488 1159 1978 
L 1159 0 
L 581 0 
L 581 3500 
L 1159 3500 
L 1159 2956 
Q 1356 3278 1631 3431 
Q 1906 3584 2284 3584 
Q 2666 3584 2933 3390 
Q 3200 3197 3328 2828 
z
" transform="scale(0.015625)"/>
       <path id="DejaVuSans-65" d="M 3597 1894 
L 3597 1613 
L 953 1613 
Q 991 1019 1311 708 
Q 1631 397 2203 397 
Q 2534 397 2845 478 
Q 3156 559 3463 722 
L 3463 178 
Q 3153 47 2828 -22 
Q 2503 -91 2169 -91 
Q 1331 -91 842 396 
Q 353 884 353 1716 
Q 353 2575 817 3079 
Q 1281 3584 2069 3584 
Q 2775 3584 3186 3129 
Q 3597 2675 3597 1894 
z
M 3022 2063 
Q 3016 2534 2758 2815 
Q 2500 3097 2075 3097 
Q 1594 3097 1305 2825 
Q 1016 2553 972 2059 
L 3022 2063 
z
" transform="scale(0.015625)"/>
       <path id="DejaVuSans-20" transform="scale(0.015625)"/>
       <path id="DejaVuSans-61" d="M 2194 1759 
Q 1497 1759 1228 1600 
Q 959 1441 959 1056 
Q 959 750 1161 570 
Q 1363 391 1709 391 
Q 2188 391 2477 730 
Q 2766 1069 2766 1631 
L 2766 1759 
L 2194 1759 
z
M 3341 1997 
L 3341 0 
L 2766 0 
L 2766 531 
Q 2569 213 2275 61 
Q 1981 -91 1556 -91 
Q 1019 -91 701 211 
Q 384 513 384 1019 
Q 384 1609 779 1909 
Q 1175 2209 1959 2209 
L 2766 2209 
L 2766 2266 
Q 2766 2663 2505 2880 
Q 2244 3097 1772 3097 
Q 1472 3097 1187 3025 
Q 903 2953 641 2809 
L 641 3341 
Q 956 3463 1253 3523 
Q 1550 3584 1831 3584 
Q 2591 3584 2966 3190 
Q 3341 2797 3341 1997 
z
" transform="scale(0.015625)"/>
       <path id="DejaVuSans-66" d="M 2375 4863 
L 2375 4384 
L 1825 4384 
Q 1516 4384 1395 4259 
Q 1275 4134 1275 3809 
L 1275 3500 
L 2222 3500 
L 2222 3053 
L 1275 3053 
L 1275 0 
L 697 0 
L 697 3053 
L 147 3053 
L 147 3500 
L 697 3500 
L 697 3744 
Q 697 4328 969 4595 
Q 1241 4863 1831 4863 
L 2375 4863 
z
" transform="scale(0.015625)"/>
       <path id="DejaVuSans-72" d="M 2631 2963 
Q 2534 3019 2420 3045 
Q 2306 3072 2169 3072 
Q 1681 3072 1420 2755 
Q 1159 2438 1159 1844 
L 1159 0 
L 581 0 
L 581 3500 
L 1159 3500 
L 1159 2956 
Q 1341 3275 1631 3429 
Q 1922 3584 2338 3584 
Q 2397 3584 2469 3576 
Q 2541 3569 2628 3553 
L 2631 2963 
z
" transform="scale(0.015625)"/>
       <path id="DejaVuSans-63" d="M 3122 3366 
L 3122 2828 
Q 2878 2963 2633 3030 
Q 2388 3097 2138 3097 
Q 1578 3097 1268 2742 
Q 959 2388 959 1747 
Q 959 1106 1268 751 
Q 1578 397 2138 397 
Q 2388 397 2633 464 
Q 2878 531 3122 666 
L 3122 134 
Q 2881 22 2623 -34 
Q 2366 -91 2075 -91 
Q 1284 -91 818 406 
Q 353 903 353 1747 
Q 353 2603 823 3093 
Q 1294 3584 2113 3584 
Q 2378 3584 2631 3529 
Q 2884 3475 3122 3366 
z
" transform="scale(0.015625)"/>
       <path id="DejaVuSans-75" d="M 544 1381 
L 544 3500 
L 1119 3500 
L 1119 1403 
Q 1119 906 1312 657 
Q 1506 409 1894 409 
Q 2359 409 2629 706 
Q 2900 1003 2900 1516 
L 2900 3500 
L 3475 3500 
L 3475 0 
L 2900 0 
L 2900 538 
Q 2691 219 2414 64 
Q 2138 -91 1772 -91 
Q 1169 -91 856 284 
Q 544 659 544 1381 
z
M 1991 3584 
L 1991 3584 
z
" transform="scale(0.015625)"/>
       <path id="DejaVuSans-28" d="M 1984 4856 
Q 1566 4138 1362 3434 
Q 1159 2731 1159 2009 
Q 1159 1288 1364 580 
Q 1569 -128 1984 -844 
L 1484 -844 
Q 1016 -109 783 600 
Q 550 1309 550 2009 
Q 550 2706 781 3412 
Q 1013 4119 1484 4856 
L 1984 4856 
z
" transform="scale(0.015625)"/>
       <path id="DejaVuSans-73" d="M 2834 3397 
L 2834 2853 
Q 2591 2978 2328 3040 
Q 2066 3103 1784 3103 
Q 1356 3103 1142 2972 
Q 928 2841 928 2578 
Q 928 2378 1081 2264 
Q 1234 2150 1697 2047 
L 1894 2003 
Q 2506 1872 2764 1633 
Q 3022 1394 3022 966 
Q 3022 478 2636 193 
Q 2250 -91 1575 -91 
Q 1294 -91 989 -36 
Q 684 19 347 128 
L 347 722 
Q 666 556 975 473 
Q 1284 391 1588 391 
Q 1994 391 2212 530 
Q 2431 669 2431 922 
Q 2431 1156 2273 1281 
Q 2116 1406 1581 1522 
L 1381 1569 
Q 847 1681 609 1914 
Q 372 2147 372 2553 
Q 372 3047 722 3315 
Q 1072 3584 1716 3584 
Q 2034 3584 2315 3537 
Q 2597 3491 2834 3397 
z
" transform="scale(0.015625)"/>
       <path id="DejaVuSans-29" d="M 513 4856 
L 1013 4856 
Q 1481 4119 1714 3412 
Q 1947 2706 1947 2009 
Q 1947 1309 1714 600 
Q 1481 -109 1013 -844 
L 513 -844 
Q 928 -128 1133 580 
Q 1338 1288 1338 2009 
Q 1338 2731 1133 3434 
Q 928 4138 513 4856 
z
" transform="scale(0.015625)"/>
      </defs>
      <use xlink:href="#DejaVuSans-74"/>
      <use xlink:href="#DejaVuSans-69" transform="translate(39.208984 0)"/>
      <use xlink:href="#DejaVuSans-6d" transform="translate(66.992188 0)"/>
      <use xlink:href="#DejaVuSans-65" transform="translate(164.404297 0)"/>
      <use xlink:href="#DejaVuSans-20" transform="translate(225.927734 0)"/>
      <use xlink:href="#DejaVuSans-61" transform="translate(257.714844 0)"/>
      <use xlink:href="#DejaVuSans-66" transform="translate(318.994141 0)"/>
      <use xlink:href="#DejaVuSans-74" transform="translate(352.449219 0)"/>
      <use xlink:href="#DejaVuSans-65" transform="translate(391.658203 0)"/>
      <use xlink:href="#DejaVuSans-72" transform="translate(453.181641 0)"/>
      <use xlink:href="#DejaVuSans-20" transform="translate(494.294922 0)"/>
      <use xlink:href="#DejaVuSans-63" transform="translate(526.082031 0)"/>
      <use xlink:href="#DejaVuSans-75" transform="translate(581.0625 0)"/>
      <use xlink:href="#DejaVuSans-65" transform="translate(644.441406 0)"/>
      <use xlink:href="#DejaVuSans-20" transform="translate(705.964844 0)"/>
      <use xlink:href="#DejaVuSans-28" transform="translate(737.751953 0)"/>
      <use xlink:href="#DejaVuSans-73" transform="translate(776.765625 0)"/>
      <use xlink:href="#DejaVuSans-29" transform="translate(828.865234 0)"/>
     </g>
    </g>
   </g>
   <g id="matplotlib.axis_2">
    <g id="ytick_1">
     <g id="line2d_3">
      <defs>
       <path id="m14e9320d5c" d="M 0 0 
L -3.5 0 
" style="stroke: #000000; stroke-width: 0.8"/>
      </defs>
      <g>
       <use xlink:href="#m14e9320d5c" x="46.28" y="101.220041" style="stroke: #000000; stroke-width: 0.8"/>
      </g>
     </g>
     <g id="text_4">
      <!-- −1.0 -->
      <g transform="translate(19.85375 104.259416) scale(0.08 -0.08)">
       <defs>
        <path id="DejaVuSans-2212" d="M 678 2272 
L 4684 2272 
L 4684 1741 
L 678 1741 
L 678 2272 
z
" transform="scale(0.015625)"/>
        <path id="DejaVuSans-31" d="M 794 531 
L 1825 531 
L 1825 4091 
L 703 3866 
L 703 4441 
L 1819 4666 
L 2450 4666 
L 2450 531 
L 3481 531 
L 3481 0 
L 794 0 
L 794 531 
z
" transform="scale(0.015625)"/>
        <path id="DejaVuSans-2e" d="M 684 794 
L 1344 794 
L 1344 0 
L 684 0 
L 684 794 
z
" transform="scale(0.015625)"/>
       </defs>
       <use xlink:href="#DejaVuSans-2212"/>
       <use xlink:href="#DejaVuSans-31" transform="translate(83.789062 0)"/>
       <use xlink:href="#DejaVuSans-2e" transform="translate(147.412109 0)"/>
       <use xlink:href="#DejaVuSans-30" transform="translate(179.199219 0)"/>
      </g>
     </g>
    </g>
    <g id="ytick_2">
     <g id="line2d_4">
      <g>
       <use xlink:href="#m14e9320d5c" x="46.28" y="83.928559" style="stroke: #000000; stroke-width: 0.8"/>
      </g>
     </g>
     <g id="text_5">
      <!-- −0.5 -->
      <g transform="translate(19.85375 86.967934) scale(0.08 -0.08)">
       <defs>
        <path id="DejaVuSans-35" d="M 691 4666 
L 3169 4666 
L 3169 4134 
L 1269 4134 
L 1269 2991 
Q 1406 3038 1543 3061 
Q 1681 3084 1819 3084 
Q 2600 3084 3056 2656 
Q 3513 2228 3513 1497 
Q 3513 744 3044 326 
Q 2575 -91 1722 -91 
Q 1428 -91 1123 -41 
Q 819 9 494 109 
L 494 744 
Q 775 591 1075 516 
Q 1375 441 1709 441 
Q 2250 441 2565 725 
Q 2881 1009 2881 1497 
Q 2881 1984 2565 2268 
Q 2250 2553 1709 2553 
Q 1456 2553 1204 2497 
Q 953 2441 691 2322 
L 691 4666 
z
" transform="scale(0.015625)"/>
       </defs>
       <use xlink:href="#DejaVuSans-2212"/>
       <use xlink:href="#DejaVuSans-30" transform="translate(83.789062 0)"/>
       <use xlink:href="#DejaVuSans-2e" transform="translate(147.412109 0)"/>
       <use xlink:href="#DejaVuSans-35" transform="translate(179.199219 0)"/>
      </g>
     </g>
    </g>
    <g id="ytick_3">
     <g id="line2d_5">
      <g>
       <use xlink:href="#m14e9320d5c" x="46.28" y="66.637076" style="stroke: #000000; stroke-width: 0.8"/>
      </g>
     </g>
     <g id="text_6">
      <!-- 0.0 -->
      <g transform="translate(26.5575 69.676451) scale(0.08 -0.08)">
       <use xlink:href="#DejaVuSans-30"/>
       <use xlink:href="#DejaVuSans-2e" transform="translate(63.623047 0)"/>
       <use xlink:href="#DejaVuSans-30" transform="translate(95.410156 0)"/>
      </g>
     </g>
    </g>
    <g id="ytick_4">
     <g id="line2d_6">
      <g>
       <use xlink:href="#m14e9320d5c" x="46.28" y="49.345594" style="stroke: #000000; stroke-width: 0.8"/>
      </g>
     </g>
     <g id="text_7">
      <!-- 0.5 -->
      <g transform="translate(26.5575 52.384969) scale(0.08 -0.08)">
       <use xlink:href="#DejaVuSans-30"/>
       <use xlink:href="#DejaVuSans-2e" transform="translate(63.623047 0)"/>
       <use xlink:href="#DejaVuSans-35" transform="translate(95.410156 0)"/>
      </g>
     </g>
    </g>
    <g id="ytick_5">
     <g id="line2d_7">
      <g>
       <use xlink:href="#m14e9320d5c" x="46.28" y="32.054111" style="stroke: #000000; stroke-width: 0.8"/>
      </g>
     </g>
     <g id="text_8">
      <!-- 1.0 -->
      <g transform="translate(26.5575 35.093486) scale(0.08 -0.08)">
       <use xlink:href="#DejaVuSans-31"/>
       <use xlink:href="#DejaVuSans-2e" transform="translate(63.623047 0)"/>
       <use xlink:href="#DejaVuSans-30" transform="translate(95.410156 0)"/>
      </g>
     </g>
    </g>
    <g id="ytick_6">
     <g id="line2d_8">
      <g>
       <use xlink:href="#m14e9320d5c" x="46.28" y="14.762629" style="stroke: #000000; stroke-width: 0.8"/>
      </g>
     </g>
     <g id="text_9">
      <!-- 1.5 -->
      <g transform="translate(26.5575 17.802004) scale(0.08 -0.08)">
       <use xlink:href="#DejaVuSans-31"/>
       <use xlink:href="#DejaVuSans-2e" transform="translate(63.623047 0)"/>
       <use xlink:href="#DejaVuSans-35" transform="translate(95.410156 0)"/>
      </g>
     </g>
    </g>
    <g id="text_10">
     <!-- log(dSPN/iSPN activity) -->
     <g transform="translate(14.19 105.420625) rotate(-90) scale(0.08 -0.08)">
      <defs>
       <path id="DejaVuSans-6c" d="M 603 4863 
L 1178 4863 
L 1178 0 
L 603 0 
L 603 4863 
z
" transform="scale(0.015625)"/>
       <path id="DejaVuSans-6f" d="M 1959 3097 
Q 1497 3097 1228 2736 
Q 959 2375 959 1747 
Q 959 1119 1226 758 
Q 1494 397 1959 397 
Q 2419 397 2687 759 
Q 2956 1122 2956 1747 
Q 2956 2369 2687 2733 
Q 2419 3097 1959 3097 
z
M 1959 3584 
Q 2709 3584 3137 3096 
Q 3566 2609 3566 1747 
Q 3566 888 3137 398 
Q 2709 -91 1959 -91 
Q 1206 -91 779 398 
Q 353 888 353 1747 
Q 353 2609 779 3096 
Q 1206 3584 1959 3584 
z
" transform="scale(0.015625)"/>
       <path id="DejaVuSans-67" d="M 2906 1791 
Q 2906 2416 2648 2759 
Q 2391 3103 1925 3103 
Q 1463 3103 1205 2759 
Q 947 2416 947 1791 
Q 947 1169 1205 825 
Q 1463 481 1925 481 
Q 2391 481 2648 825 
Q 2906 1169 2906 1791 
z
M 3481 434 
Q 3481 -459 3084 -895 
Q 2688 -1331 1869 -1331 
Q 1566 -1331 1297 -1286 
Q 1028 -1241 775 -1147 
L 775 -588 
Q 1028 -725 1275 -790 
Q 1522 -856 1778 -856 
Q 2344 -856 2625 -561 
Q 2906 -266 2906 331 
L 2906 616 
Q 2728 306 2450 153 
Q 2172 0 1784 0 
Q 1141 0 747 490 
Q 353 981 353 1791 
Q 353 2603 747 3093 
Q 1141 3584 1784 3584 
Q 2172 3584 2450 3431 
Q 2728 3278 2906 2969 
L 2906 3500 
L 3481 3500 
L 3481 434 
z
" transform="scale(0.015625)"/>
       <path id="DejaVuSans-64" d="M 2906 2969 
L 2906 4863 
L 3481 4863 
L 3481 0 
L 2906 0 
L 2906 525 
Q 2725 213 2448 61 
Q 2172 -91 1784 -91 
Q 1150 -91 751 415 
Q 353 922 353 1747 
Q 353 2572 751 3078 
Q 1150 3584 1784 3584 
Q 2172 3584 2448 3432 
Q 2725 3281 2906 2969 
z
M 947 1747 
Q 947 1113 1208 752 
Q 1469 391 1925 391 
Q 2381 391 2643 752 
Q 2906 1113 2906 1747 
Q 2906 2381 2643 2742 
Q 2381 3103 1925 3103 
Q 1469 3103 1208 2742 
Q 947 2381 947 1747 
z
" transform="scale(0.015625)"/>
       <path id="DejaVuSans-53" d="M 3425 4513 
L 3425 3897 
Q 3066 4069 2747 4153 
Q 2428 4238 2131 4238 
Q 1616 4238 1336 4038 
Q 1056 3838 1056 3469 
Q 1056 3159 1242 3001 
Q 1428 2844 1947 2747 
L 2328 2669 
Q 3034 2534 3370 2195 
Q 3706 1856 3706 1288 
Q 3706 609 3251 259 
Q 2797 -91 1919 -91 
Q 1588 -91 1214 -16 
Q 841 59 441 206 
L 441 856 
Q 825 641 1194 531 
Q 1563 422 1919 422 
Q 2459 422 2753 634 
Q 3047 847 3047 1241 
Q 3047 1584 2836 1778 
Q 2625 1972 2144 2069 
L 1759 2144 
Q 1053 2284 737 2584 
Q 422 2884 422 3419 
Q 422 4038 858 4394 
Q 1294 4750 2059 4750 
Q 2388 4750 2728 4690 
Q 3069 4631 3425 4513 
z
" transform="scale(0.015625)"/>
       <path id="DejaVuSans-50" d="M 1259 4147 
L 1259 2394 
L 2053 2394 
Q 2494 2394 2734 2622 
Q 2975 2850 2975 3272 
Q 2975 3691 2734 3919 
Q 2494 4147 2053 4147 
L 1259 4147 
z
M 628 4666 
L 2053 4666 
Q 2838 4666 3239 4311 
Q 3641 3956 3641 3272 
Q 3641 2581 3239 2228 
Q 2838 1875 2053 1875 
L 1259 1875 
L 1259 0 
L 628 0 
L 628 4666 
z
" transform="scale(0.015625)"/>
       <path id="DejaVuSans-4e" d="M 628 4666 
L 1478 4666 
L 3547 763 
L 3547 4666 
L 4159 4666 
L 4159 0 
L 3309 0 
L 1241 3903 
L 1241 0 
L 628 0 
L 628 4666 
z
" transform="scale(0.015625)"/>
       <path id="DejaVuSans-2f" d="M 1625 4666 
L 2156 4666 
L 531 -594 
L 0 -594 
L 1625 4666 
z
" transform="scale(0.015625)"/>
       <path id="DejaVuSans-76" d="M 191 3500 
L 800 3500 
L 1894 563 
L 2988 3500 
L 3597 3500 
L 2284 0 
L 1503 0 
L 191 3500 
z
" transform="scale(0.015625)"/>
       <path id="DejaVuSans-79" d="M 2059 -325 
Q 1816 -950 1584 -1140 
Q 1353 -1331 966 -1331 
L 506 -1331 
L 506 -850 
L 844 -850 
Q 1081 -850 1212 -737 
Q 1344 -625 1503 -206 
L 1606 56 
L 191 3500 
L 800 3500 
L 1894 763 
L 2988 3500 
L 3597 3500 
L 2059 -325 
z
" transform="scale(0.015625)"/>
      </defs>
      <use xlink:href="#DejaVuSans-6c"/>
      <use xlink:href="#DejaVuSans-6f" transform="translate(27.783203 0)"/>
      <use xlink:href="#DejaVuSans-67" transform="translate(88.964844 0)"/>
      <use xlink:href="#DejaVuSans-28" transform="translate(152.441406 0)"/>
      <use xlink:href="#DejaVuSans-64" transform="translate(191.455078 0)"/>
      <use xlink:href="#DejaVuSans-53" transform="translate(254.931641 0)"/>
      <use xlink:href="#DejaVuSans-50" transform="translate(318.408203 0)"/>
      <use xlink:href="#DejaVuSans-4e" transform="translate(378.710938 0)"/>
      <use xlink:href="#DejaVuSans-2f" transform="translate(453.515625 0)"/>
      <use xlink:href="#DejaVuSans-69" transform="translate(487.207031 0)"/>
      <use xlink:href="#DejaVuSans-53" transform="translate(514.990234 0)"/>
      <use xlink:href="#DejaVuSans-50" transform="translate(578.466797 0)"/>
      <use xlink:href="#DejaVuSans-4e" transform="translate(638.769531 0)"/>
      <use xlink:href="#DejaVuSans-20" transform="translate(713.574219 0)"/>
      <use xlink:href="#DejaVuSans-61" transform="translate(745.361328 0)"/>
      <use xlink:href="#DejaVuSans-63" transform="translate(806.640625 0)"/>
      <use xlink:href="#DejaVuSans-74" transform="translate(861.621094 0)"/>
      <use xlink:href="#DejaVuSans-69" transform="translate(900.830078 0)"/>
      <use xlink:href="#DejaVuSans-76" transform="translate(928.613281 0)"/>
      <use xlink:href="#DejaVuSans-69" transform="translate(987.792969 0)"/>
      <use xlink:href="#DejaVuSans-74" transform="translate(1015.576172 0)"/>
      <use xlink:href="#DejaVuSans-79" transform="translate(1054.785156 0)"/>
      <use xlink:href="#DejaVuSans-29" transform="translate(1113.964844 0)"/>
     </g>
    </g>
   </g>
   <g id="line2d_9">
    <path d="M 50.329091 41.803543 
L 50.624107 41.151783 
L 51.214138 38.989214 
L 52.394201 34.231087 
L 52.984233 32.849287 
L 53.426756 32.274267 
L 53.86928 31.971061 
L 54.311803 31.918036 
L 54.606819 32.084839 
L 54.901835 32.506147 
L 55.196851 33.285075 
L 55.639374 35.346397 
L 56.081898 38.696627 
L 56.671929 45.194945 
L 57.851992 62.064097 
L 58.884547 75.229674 
L 59.769595 83.402182 
L 60.654642 89.567253 
L 61.097166 92.102653 
M 76.880507 98.712675 
L 77.323032 98.48877 
L 77.765555 98.535475 
L 78.503094 98.919816 
M 104.021958 63.695253 
L 104.759496 61.487087 
L 105.939558 58.810577 
L 108.152178 53.672641 
L 111.102332 46.402905 
L 112.724921 42.636987 
L 114.05249 40.109769 
L 115.085048 38.580909 
L 115.970095 37.609039 
L 116.707633 37.065716 
L 117.445175 36.780691 
L 118.330222 36.712818 
L 119.952803 36.672847 
L 121.722903 36.256711 
L 123.788011 35.876443 
L 125.115584 35.85253 
L 128.21325 36.174057 
L 131.310909 36.594099 
L 131.310909 36.594099 
" clip-path="url(#p833c439e8d)" style="fill: none; stroke: #30123b; stroke-width: 1.5; stroke-linecap: square"/>
   </g>
   <g id="line2d_10">
    <path d="M 50.329091 22.937086 
L 51.361646 19.13204 
L 51.80417 18.183402 
L 52.099185 17.896889 
L 52.394201 17.892202 
L 52.689217 18.146142 
L 53.13174 18.909559 
L 54.016788 21.117097 
L 55.049343 24.204017 
L 55.639374 26.813094 
L 56.229406 30.706141 
L 56.819437 36.187593 
L 57.704484 46.962828 
L 59.327071 67.298057 
L 60.212118 75.269012 
L 61.097166 81.160354 
L 61.982213 85.644597 
L 62.86726 88.931798 
L 63.604799 90.823479 
L 64.194831 91.75495 
L 64.489847 91.971694 
L 64.784862 91.972978 
L 65.079878 91.716558 
L 65.374894 91.167665 
L 65.817418 89.771605 
L 66.407449 87.025 
L 67.440004 82.097947 
L 67.882528 81.039743 
L 68.177543 80.872297 
L 68.472559 81.116713 
L 68.915083 82.078711 
L 70.095145 85.242395 
L 70.537669 85.726283 
L 70.832685 85.755164 
L 71.127701 85.587355 
L 71.717732 84.879929 
L 73.045303 83.125941 
L 74.520382 81.419869 
L 75.257922 80.13002 
L 76.290476 77.806602 
L 77.618048 74.904492 
L 78.208078 74.035546 
L 78.798109 73.560261 
L 79.240634 73.482467 
L 79.683158 73.647642 
L 80.125681 74.058004 
L 80.715712 74.995785 
L 81.305744 76.39654 
L 82.043283 78.800296 
L 82.780823 81.85688 
M 109.774763 58.591183 
L 113.019936 47.209414 
L 114.05249 44.245195 
L 114.93754 42.281797 
L 115.822587 40.788738 
L 116.855144 39.474015 
L 118.035206 38.346036 
L 119.215268 37.50989 
L 120.542841 36.844764 
L 121.870407 36.442327 
L 123.050469 36.309963 
L 127.180693 36.122425 
L 130.130847 35.747325 
L 131.310909 35.733185 
L 131.310909 35.733185 
" clip-path="url(#p833c439e8d)" style="fill: none; stroke: #466be3; stroke-width: 1.5; stroke-linecap: square"/>
   </g>
   <g id="line2d_11">
    <path d="M 50.329091 19.653323 
L 51.509154 21.389379 
L 52.394201 22.649303 
L 52.836725 22.961933 
L 53.13174 22.980752 
L 53.574264 22.713261 
L 54.164296 21.941203 
L 54.901835 20.974735 
L 55.196851 20.859818 
L 55.491866 21.052669 
L 55.786882 21.657497 
L 56.081898 22.769732 
L 56.524422 25.552849 
L 56.966945 29.772856 
L 57.704484 39.630377 
L 59.622087 67.904857 
L 60.359626 74.985911 
L 61.097166 79.750603 
L 61.687197 82.34174 
L 62.277229 84.143227 
L 62.86726 85.345259 
L 63.604799 86.285381 
L 64.784862 87.60031 
L 65.374894 88.72419 
L 66.112433 90.755748 
L 67.292496 94.219675 
L 67.73502 95.030603 
L 68.177543 95.399193 
L 68.472559 95.392317 
L 68.767575 95.196521 
L 69.210098 94.592283 
L 69.80013 93.325281 
L 70.685177 90.796488 
L 72.160256 86.514479 
L 72.897795 85.026033 
L 73.635335 84.004672 
L 75.257922 81.95004 
L 76.880507 79.216563 
L 79.240634 75.397504 
L 79.830665 74.847622 
L 80.273188 74.732267 
L 80.715712 74.910258 
L 81.158237 75.368659 
L 81.748268 76.320153 
L 83.370854 79.625386 
L 85.435964 84.005303 
M 110.069778 66.8932 
L 111.692367 57.879159 
L 112.872429 52.502643 
L 114.05249 48.141575 
L 115.232556 44.615945 
L 116.26511 42.254198 
L 117.15016 40.76278 
L 118.18271 39.479958 
L 119.362772 38.388222 
L 120.39533 37.706077 
L 121.427888 37.279926 
L 122.607949 37.044142 
L 125.263089 36.636595 
L 129.835832 35.498144 
L 131.310909 35.447154 
L 131.310909 35.447154 
" clip-path="url(#p833c439e8d)" style="fill: none; stroke: #28bceb; stroke-width: 1.5; stroke-linecap: square"/>
   </g>
   <g id="line2d_12">
    <path d="M 50.329091 24.569883 
L 50.624107 24.390261 
L 51.214138 23.642506 
L 52.394201 22.012945 
L 53.574264 20.862588 
L 54.606819 20.036891 
L 54.901835 19.962144 
L 55.196851 20.079811 
L 55.491866 20.492377 
L 55.786882 21.312925 
L 56.229406 23.544664 
L 56.671929 27.203406 
L 57.261961 34.325886 
L 58.442024 52.878749 
L 59.327071 65.375319 
L 60.06461 72.766887 
L 60.654642 76.833333 
L 61.392181 80.316265 
L 62.129721 82.765132 
L 66.849973 96.579074 
L 68.030035 99.772071 
L 68.620067 100.846951 
L 69.06259 101.214993 
L 69.357607 101.177815 
L 69.652622 100.871893 
L 69.947638 100.27062 
L 70.390162 98.794458 
L 70.980193 95.859064 
L 72.897795 85.032608 
L 73.487828 83.305467 
L 74.077858 82.370719 
L 75.40543 80.750956 
L 76.142968 79.30485 
L 77.47054 76.676385 
L 78.060571 75.935196 
L 78.798109 75.395169 
L 79.53565 75.132006 
L 80.273188 75.068612 
L 81.010729 75.234953 
L 81.748268 75.649298 
L 82.780823 76.541615 
L 83.960885 77.842689 
L 84.845933 79.092966 
L 85.73098 80.740624 
L 86.616028 82.878833 
L 87.501074 85.596656 
L 88.386121 89.116029 
L 88.828644 91.242956 
M 108.889716 84.459932 
L 111.544859 67.999328 
L 112.872429 61.560337 
L 114.642521 54.142152 
L 115.970095 49.489449 
L 117.15016 46.146137 
L 118.330222 43.439917 
L 119.362772 41.598448 
L 120.39533 40.228345 
L 121.427888 39.24076 
L 122.460438 38.538376 
L 123.788011 37.919436 
L 125.558104 37.36167 
L 127.475708 36.973666 
L 129.098297 36.867653 
L 131.310909 36.952954 
L 131.310909 36.952954 
" clip-path="url(#p833c439e8d)" style="fill: none; stroke: #32f298; stroke-width: 1.5; stroke-linecap: square"/>
   </g>
   <g id="line2d_13">
    <path d="M 50.329091 16.400575 
L 50.919122 16.848975 
L 51.214138 16.885765 
L 51.509154 16.74976 
L 51.951678 16.255072 
L 53.426756 14.228846 
L 54.459311 13.488515 
L 55.049343 13.245455 
L 55.344359 13.362768 
L 55.639374 13.806645 
L 55.93439 14.724882 
L 56.376914 17.286701 
L 56.819437 21.52216 
L 57.409469 29.732092 
L 58.73704 53.403587 
L 59.622087 66.874821 
L 60.359626 74.733239 
L 61.097166 79.964202 
L 61.834705 83.421744 
L 62.572244 85.801118 
L 63.457291 87.880518 
L 64.93237 90.676075 
L 66.112433 92.532612 
L 66.702465 93.141299 
L 67.144988 93.35974 
L 67.587512 93.297872 
L 67.882528 93.058474 
L 68.325052 92.329757 
L 68.767575 91.076922 
L 69.357607 88.520597 
L 70.390162 82.431722 
L 70.980193 79.410478 
L 71.422717 78.158849 
L 71.717732 77.97811 
L 72.012748 78.34745 
L 72.307764 79.225304 
L 72.897795 82.095106 
L 74.077858 88.363098 
L 74.520382 89.719025 
L 74.815397 90.182947 
L 75.110413 90.30251 
L 75.40543 90.10936 
L 75.847953 89.340437 
L 76.437984 87.727565 
L 78.208078 82.575034 
L 78.945619 81.119409 
L 79.683158 80.090038 
L 80.420696 79.406031 
L 81.158237 78.997876 
L 81.895775 78.821384 
L 82.633316 78.866049 
L 83.518362 79.187492 
L 85.435964 80.285222 
L 86.46852 81.006072 
L 87.206059 81.832026 
L 87.943597 83.09547 
L 88.681136 84.841422 
L 89.713694 87.910283 
L 91.336279 92.713638 
L 91.92631 93.888737 
L 92.516341 94.584897 
L 92.958867 94.831427 
M 111.544859 70.646672 
L 112.872429 66.122677 
L 114.347506 60.751695 
L 116.117602 54.407136 
L 117.297664 51.067708 
L 118.772741 47.633937 
L 120.39533 44.36459 
L 121.722903 42.146635 
L 122.755454 40.800364 
L 123.788011 39.796619 
L 124.820569 39.092581 
L 126.44315 38.314968 
L 128.950785 37.306604 
L 130.130847 37.136107 
L 131.310909 37.116741 
L 131.310909 37.116741 
" clip-path="url(#p833c439e8d)" style="fill: none; stroke: #a4fc3c; stroke-width: 1.5; stroke-linecap: square"/>
   </g>
   <g id="line2d_14">
    <path d="M 50.329091 15.455792 
L 50.624107 15.259795 
L 50.919122 15.303717 
L 51.214138 15.591105 
L 51.656662 16.415734 
L 52.541709 18.794249 
L 53.574264 21.354605 
L 54.754327 24.176062 
L 55.344359 26.210307 
L 55.93439 29.038842 
L 56.524422 32.995087 
L 57.114453 38.372146 
L 57.9995 48.880512 
L 59.474579 66.824275 
L 60.212118 73.268653 
L 60.949658 77.837832 
L 61.687197 80.997711 
L 62.424736 83.173076 
L 63.162276 84.687847 
L 64.194831 86.247649 
L 65.522401 88.299223 
L 67.73502 92.175819 
L 68.177543 92.375042 
L 68.472559 92.279453 
L 68.915083 91.794351 
L 69.505114 90.678021 
L 70.390162 88.989929 
L 70.832685 88.595199 
L 71.127701 88.576406 
L 71.422717 88.748997 
L 71.86524 89.304202 
L 73.930351 92.587521 
L 74.372874 92.830166 
L 74.815397 92.859071 
L 75.257922 92.695478 
L 75.847953 92.215779 
L 76.585492 91.240734 
L 77.323032 89.853816 
L 78.208078 87.641341 
L 80.420696 81.598316 
L 81.010729 80.755479 
L 81.453252 80.460705 
L 81.895775 80.421664 
L 82.485806 80.655938 
L 84.108393 81.527486 
L 84.698426 81.486458 
L 85.288457 81.183376 
L 87.353567 79.800916 
L 87.943597 79.821374 
L 88.681136 80.126804 
L 89.713694 80.841481 
L 90.59874 81.688117 
L 91.336279 82.718068 
L 91.92631 83.883248 
L 92.516341 85.464588 
L 93.253883 88.207115 
L 93.991421 91.964665 
L 95.023976 98.649367 
L 96.05653 105.354545 
M 114.642521 75.199539 
L 115.822587 68.430137 
L 117.887695 58.153454 
L 119.067757 53.136535 
L 120.100314 49.675544 
L 120.985361 47.398173 
L 122.017919 45.334601 
L 123.19798 43.48032 
L 124.525553 41.83476 
L 126.295646 40.057894 
L 128.21325 38.399869 
L 129.540816 37.53894 
L 130.573374 37.139106 
L 131.310909 37.037886 
L 131.310909 37.037886 
" clip-path="url(#p833c439e8d)" style="fill: none; stroke: #eecf3a; stroke-width: 1.5; stroke-linecap: square"/>
   </g>
   <g id="line2d_15">
    <path d="M 50.329091 27.947298 
L 51.361646 27.354681 
L 51.951678 27.302291 
L 53.13174 27.390144 
L 53.426756 27.194398 
L 53.86928 26.532151 
L 54.311803 25.366705 
L 55.639374 21.114418 
L 55.786882 20.985903 
L 55.93439 21.014481 
L 56.081898 21.221103 
L 56.376914 22.240674 
L 56.671929 24.144194 
L 57.114453 28.677644 
L 57.704484 37.317226 
L 59.474579 65.536941 
L 60.212118 72.952728 
L 60.80215 76.941414 
L 61.539689 80.402955 
L 62.719752 84.549552 
L 66.112433 95.657561 
L 66.849973 96.982981 
L 67.440004 97.550021 
L 67.882528 97.69674 
L 68.325052 97.641619 
L 68.915083 97.321849 
L 69.505114 96.750193 
L 70.095145 95.823393 
L 70.537669 94.748923 
L 71.127701 92.60469 
L 71.86524 88.823592 
L 72.750287 84.266753 
L 73.19281 82.921205 
L 73.487828 82.557859 
L 73.782843 82.621466 
L 74.077858 83.049755 
L 74.667889 84.575786 
L 75.552938 86.884425 
L 75.995461 87.573043 
L 76.437984 87.915684 
L 76.880507 87.988749 
L 77.47054 87.813849 
L 79.388142 86.939608 
L 80.125681 86.970043 
L 81.453252 87.136935 
L 81.895775 86.993676 
L 82.338298 86.656315 
L 82.928331 85.842023 
L 83.518362 84.585775 
L 84.255901 82.464689 
L 87.058551 73.547724 
L 87.648582 72.47785 
L 88.238613 71.851964 
L 88.681136 71.673472 
L 89.123663 71.739338 
L 89.566186 72.044681 
L 90.156217 72.813064 
L 90.746248 73.978639 
L 91.483787 75.967793 
L 92.368833 79.079962 
L 93.843914 85.356318 
L 95.171483 90.671734 
L 96.351545 94.475607 
L 97.089087 96.580381 
M 115.527571 75.013323 
L 117.740191 63.074035 
L 118.477726 60.407185 
L 119.067757 59.025026 
L 119.657788 58.176581 
L 121.280376 56.346715 
L 121.870407 55.191311 
L 122.755454 52.890339 
L 124.525553 48.156653 
L 125.705615 45.77464 
L 127.475708 42.754246 
L 128.65577 41.100282 
L 129.540816 40.199436 
L 130.278358 39.703953 
L 131.015894 39.451644 
L 131.310909 39.421099 
L 131.310909 39.421099 
" clip-path="url(#p833c439e8d)" style="fill: none; stroke: #fb7e21; stroke-width: 1.5; stroke-linecap: square"/>
   </g>
   <g id="line2d_16">
    <path d="M 50.329091 28.41531 
L 50.624107 28.616027 
L 50.919122 28.363159 
L 51.214138 27.715723 
L 51.80417 25.62974 
L 53.13174 20.631981 
L 54.016788 18.33814 
L 55.196851 15.816372 
L 55.491866 15.501792 
L 55.786882 15.550221 
L 56.081898 16.12349 
L 56.376914 17.376578 
L 56.819437 20.767747 
L 57.261961 26.037351 
L 57.9995 37.990481 
L 59.327071 59.822879 
L 59.917103 66.427465 
L 60.507134 70.868595 
L 61.097166 73.725665 
L 61.834705 76.057836 
L 64.194831 82.433738 
L 65.66991 87.56594 
L 66.849973 92.363696 
L 68.620067 100.050986 
L 69.06259 101.144393 
L 69.357607 101.493791 
L 69.652622 101.513505 
L 69.947638 101.210345 
L 70.390162 100.230742 
L 71.127701 97.776565 
L 71.86524 95.472227 
L 72.307764 94.64168 
L 72.602779 94.394781 
L 72.897795 94.391353 
L 73.19281 94.602268 
L 73.635335 95.211427 
L 74.815397 97.063798 
L 75.257922 97.356683 
L 75.700445 97.334924 
L 76.142968 97.056324 
L 76.880507 96.278321 
L 77.913063 94.874935 
L 78.503094 93.742256 
L 79.240634 91.760138 
L 80.420696 87.688295 
L 81.453252 84.367244 
L 82.338298 82.231073 
L 83.518362 80.085148 
L 84.993441 77.309682 
L 86.321012 74.881764 
L 87.206059 73.753319 
L 88.238613 72.813991 
L 89.418678 72.010173 
L 90.156217 71.777253 
L 90.746248 71.824546 
L 91.336279 72.088084 
L 92.073817 72.685624 
L 92.81136 73.565656 
L 93.548898 74.783324 
L 94.433945 76.747925 
L 96.94158 82.836732 
L 97.531611 83.480436 
L 97.974134 83.625262 
L 98.416657 83.510918 
L 99.006688 83.081183 
L 99.449211 82.668274 
M 119.805299 69.22382 
L 120.690345 65.275853 
L 122.017919 60.538421 
L 123.345485 56.451968 
L 124.525553 53.579436 
L 126.000631 49.998192 
L 128.803281 42.574377 
L 129.540816 41.314029 
L 130.278358 40.487464 
L 130.868389 40.131491 
L 131.310909 40.03551 
L 131.310909 40.03551 
" clip-path="url(#p833c439e8d)" style="fill: none; stroke: #d02f05; stroke-width: 1.5; stroke-linecap: square"/>
   </g>
   <g id="line2d_17">
    <path d="M 50.329091 24.943993 
L 50.919122 23.01243 
L 51.214138 22.593466 
L 51.509154 22.619851 
L 51.80417 23.065076 
L 52.246693 24.307074 
L 53.279248 27.524162 
L 53.721772 28.26107 
L 54.164296 28.585903 
L 54.901835 28.973214 
L 55.196851 29.381085 
L 55.491866 30.083821 
L 55.93439 31.86025 
L 56.376914 34.660279 
L 56.966945 40.050605 
L 57.851992 50.803503 
L 59.179563 66.834828 
L 59.917103 73.077365 
L 60.654642 77.259663 
L 61.244673 79.497035 
L 61.982213 81.415813 
L 62.572244 82.644344 
M 86.173503 79.920111 
L 88.238613 82.989043 
L 88.681136 83.224125 
L 89.123663 83.171674 
L 89.566186 82.853988 
L 90.303725 81.963696 
L 91.336279 80.755208 
L 92.073817 80.222997 
L 93.253883 79.440502 
L 93.991421 78.634619 
L 95.023976 77.477828 
L 95.466499 77.311934 
L 95.761514 77.414452 
L 96.05653 77.727081 
L 96.499056 78.642936 
L 96.94158 80.132938 
L 97.531611 83.009987 
L 98.269149 87.856271 
L 99.006688 93.640619 
M 125.705615 61.201902 
L 126.738166 56.955529 
L 128.065739 52.38458 
L 128.950785 49.92328 
L 129.688328 48.436187 
L 130.278358 47.653913 
L 130.868389 47.215707 
L 131.310909 47.098474 
L 131.310909 47.098474 
" clip-path="url(#p833c439e8d)" style="fill: none; stroke: #7a0403; stroke-width: 1.5; stroke-linecap: square"/>
   </g>
   <g id="patch_5">
    <path d="M 46.28 109.96 
L 46.28 8.64 
" style="fill: none; stroke: #000000; stroke-width: 0.8; stroke-linejoin: miter; stroke-linecap: square"/>
   </g>
   <g id="patch_6">
    <path d="M 135.36 109.96 
L 135.36 8.64 
" style="fill: none; stroke: #000000; stroke-width: 0.8; stroke-linejoin: miter; stroke-linecap: square"/>
   </g>
   <g id="patch_7">
    <path d="M 46.28 109.96 
L 135.36 109.96 
" style="fill: none; stroke: #000000; stroke-width: 0.8; stroke-linejoin: miter; stroke-linecap: square"/>
   </g>
   <g id="patch_8">
    <path d="M 46.28 8.64 
L 135.36 8.64 
" style="fill: none; stroke: #000000; stroke-width: 0.8; stroke-linejoin: miter; stroke-linecap: square"/>
   </g>
  </g>
 </g>
 <defs>
  <clipPath id="p833c439e8d">
   <rect x="46.28" y="8.64" width="89.08" height="101.32"/>
  </clipPath>
 </defs>
</svg>
