<?xml version="1.0" encoding="utf-8" standalone="no"?>
<!DOCTYPE svg PUBLIC "-//W3C//DTD SVG 1.1//EN"
  "http://www.w3.org/Graphics/SVG/1.1/DTD/svg11.dtd">
<svg xmlns:xlink="http://www.w3.org/1999/xlink" width="129.6pt" height="108pt" viewBox="0 0 129.6 108" xmlns="http://www.w3.org/2000/svg" version="1.1">
 <metadata>
  <rdf:RDF xmlns:dc="http://purl.org/dc/elements/1.1/" xmlns:cc="http://creativecommons.org/ns#" xmlns:rdf="http://www.w3.org/1999/02/22-rdf-syntax-ns#">
   <cc:Work>
    <dc:type rdf:resource="http://purl.org/dc/dcmitype/StillImage"/>
    <dc:date>2025-06-05T18:00:57.897404</dc:date>
    <dc:format>image/svg+xml</dc:format>
    <dc:creator>
     <cc:Agent>
      <dc:title>Matplotlib v3.10.0, https://matplotlib.org/</dc:title>
     </cc:Agent>
    </dc:creator>
   </cc:Work>
  </rdf:RDF>
 </metadata>
 <defs>
  <style type="text/css">*{stroke-linejoin: round; stroke-linecap: butt}</style>
 </defs>
 <g id="figure_1">
  <g id="patch_1">
   <path d="M 0 108 
L 129.6 108 
L 129.6 0 
L 0 0 
z
" style="fill: #ffffff"/>
  </g>
  <g id="axes_1">
   <g id="patch_2">
    <path d="M 42.80375 73.92625 
L 120.96 73.92625 
L 120.96 10.108593 
L 42.80375 10.108593 
z
" style="fill: #ffffff"/>
   </g>
   <g id="patch_3">
    <path d="M 46.356307 73.92625 
L 49.926716 73.92625 
L 49.926716 10.108593 
L 46.356307 10.108593 
z
" clip-path="url(#pf63a417b0a)" style="fill: #ff0000; opacity: 0.2; stroke: #ff0000; stroke-linejoin: miter"/>
   </g>
   <g id="patch_4">
    <path d="M 55.282329 73.92625 
L 99.912439 73.92625 
L 99.912439 10.108593 
L 55.282329 10.108593 
z
" clip-path="url(#pf63a417b0a)" style="fill: #808080; opacity: 0.2; stroke: #808080; stroke-linejoin: miter"/>
   </g>
   <g id="matplotlib.axis_1">
    <g id="xtick_1">
     <g id="line2d_1">
      <defs>
       <path id="mbc9d93ae0b" d="M 0 0 
L 0 3.5 
" style="stroke: #000000; stroke-width: 0.8"/>
      </defs>
      <g>
       <use xlink:href="#mbc9d93ae0b" x="46.356307" y="73.92625" style="stroke: #000000; stroke-width: 0.8"/>
      </g>
     </g>
     <g id="text_1">
      <!-- 0 -->
      <g transform="translate(44.131932 86.6525) scale(0.08 -0.08)">
       <defs>
        <path id="ArialMT-30" d="M 266 2259 
Q 266 3072 433 3567 
Q 600 4063 929 4331 
Q 1259 4600 1759 4600 
Q 2128 4600 2406 4451 
Q 2684 4303 2865 4023 
Q 3047 3744 3150 3342 
Q 3253 2941 3253 2259 
Q 3253 1453 3087 958 
Q 2922 463 2592 192 
Q 2263 -78 1759 -78 
Q 1097 -78 719 397 
Q 266 969 266 2259 
z
M 844 2259 
Q 844 1131 1108 757 
Q 1372 384 1759 384 
Q 2147 384 2411 759 
Q 2675 1134 2675 2259 
Q 2675 3391 2411 3762 
Q 2147 4134 1753 4134 
Q 1366 4134 1134 3806 
Q 844 3388 844 2259 
z
" transform="scale(0.015625)"/>
       </defs>
       <use xlink:href="#ArialMT-30"/>
      </g>
     </g>
    </g>
    <g id="xtick_2">
     <g id="line2d_2">
      <g>
       <use xlink:href="#mbc9d93ae0b" x="82.060395" y="73.92625" style="stroke: #000000; stroke-width: 0.8"/>
      </g>
     </g>
     <g id="text_2">
      <!-- 1 -->
      <g transform="translate(79.83602 86.6525) scale(0.08 -0.08)">
       <defs>
        <path id="ArialMT-31" d="M 2384 0 
L 1822 0 
L 1822 3584 
Q 1619 3391 1289 3197 
Q 959 3003 697 2906 
L 697 3450 
Q 1169 3672 1522 3987 
Q 1875 4303 2022 4600 
L 2384 4600 
L 2384 0 
z
" transform="scale(0.015625)"/>
       </defs>
       <use xlink:href="#ArialMT-31"/>
      </g>
     </g>
    </g>
    <g id="xtick_3">
     <g id="line2d_3">
      <g>
       <use xlink:href="#mbc9d93ae0b" x="117.764484" y="73.92625" style="stroke: #000000; stroke-width: 0.8"/>
      </g>
     </g>
     <g id="text_3">
      <!-- 2 -->
      <g transform="translate(115.540109 86.6525) scale(0.08 -0.08)">
       <defs>
        <path id="ArialMT-32" d="M 3222 541 
L 3222 0 
L 194 0 
Q 188 203 259 391 
Q 375 700 629 1000 
Q 884 1300 1366 1694 
Q 2113 2306 2375 2664 
Q 2638 3022 2638 3341 
Q 2638 3675 2398 3904 
Q 2159 4134 1775 4134 
Q 1369 4134 1125 3890 
Q 881 3647 878 3216 
L 300 3275 
Q 359 3922 746 4261 
Q 1134 4600 1788 4600 
Q 2447 4600 2831 4234 
Q 3216 3869 3216 3328 
Q 3216 3053 3103 2787 
Q 2991 2522 2730 2228 
Q 2469 1934 1863 1422 
Q 1356 997 1212 845 
Q 1069 694 975 541 
L 3222 541 
z
" transform="scale(0.015625)"/>
       </defs>
       <use xlink:href="#ArialMT-32"/>
      </g>
     </g>
    </g>
    <g id="text_4">
     <!-- time after cue (s) -->
     <g transform="translate(51.87625 98.06625) scale(0.08 -0.08)">
      <defs>
       <path id="ArialMT-74" d="M 1650 503 
L 1731 6 
Q 1494 -44 1306 -44 
Q 1000 -44 831 53 
Q 663 150 594 308 
Q 525 466 525 972 
L 525 2881 
L 113 2881 
L 113 3319 
L 525 3319 
L 525 4141 
L 1084 4478 
L 1084 3319 
L 1650 3319 
L 1650 2881 
L 1084 2881 
L 1084 941 
Q 1084 700 1114 631 
Q 1144 563 1211 522 
Q 1278 481 1403 481 
Q 1497 481 1650 503 
z
" transform="scale(0.015625)"/>
       <path id="ArialMT-69" d="M 425 3934 
L 425 4581 
L 988 4581 
L 988 3934 
L 425 3934 
z
M 425 0 
L 425 3319 
L 988 3319 
L 988 0 
L 425 0 
z
" transform="scale(0.015625)"/>
       <path id="ArialMT-6d" d="M 422 0 
L 422 3319 
L 925 3319 
L 925 2853 
Q 1081 3097 1340 3245 
Q 1600 3394 1931 3394 
Q 2300 3394 2536 3241 
Q 2772 3088 2869 2813 
Q 3263 3394 3894 3394 
Q 4388 3394 4653 3120 
Q 4919 2847 4919 2278 
L 4919 0 
L 4359 0 
L 4359 2091 
Q 4359 2428 4304 2576 
Q 4250 2725 4106 2815 
Q 3963 2906 3769 2906 
Q 3419 2906 3187 2673 
Q 2956 2441 2956 1928 
L 2956 0 
L 2394 0 
L 2394 2156 
Q 2394 2531 2256 2718 
Q 2119 2906 1806 2906 
Q 1569 2906 1367 2781 
Q 1166 2656 1075 2415 
Q 984 2175 984 1722 
L 984 0 
L 422 0 
z
" transform="scale(0.015625)"/>
       <path id="ArialMT-65" d="M 2694 1069 
L 3275 997 
Q 3138 488 2766 206 
Q 2394 -75 1816 -75 
Q 1088 -75 661 373 
Q 234 822 234 1631 
Q 234 2469 665 2931 
Q 1097 3394 1784 3394 
Q 2450 3394 2872 2941 
Q 3294 2488 3294 1666 
Q 3294 1616 3291 1516 
L 816 1516 
Q 847 969 1125 678 
Q 1403 388 1819 388 
Q 2128 388 2347 550 
Q 2566 713 2694 1069 
z
M 847 1978 
L 2700 1978 
Q 2663 2397 2488 2606 
Q 2219 2931 1791 2931 
Q 1403 2931 1139 2672 
Q 875 2413 847 1978 
z
" transform="scale(0.015625)"/>
       <path id="ArialMT-20" transform="scale(0.015625)"/>
       <path id="ArialMT-61" d="M 2588 409 
Q 2275 144 1986 34 
Q 1697 -75 1366 -75 
Q 819 -75 525 192 
Q 231 459 231 875 
Q 231 1119 342 1320 
Q 453 1522 633 1644 
Q 813 1766 1038 1828 
Q 1203 1872 1538 1913 
Q 2219 1994 2541 2106 
Q 2544 2222 2544 2253 
Q 2544 2597 2384 2738 
Q 2169 2928 1744 2928 
Q 1347 2928 1158 2789 
Q 969 2650 878 2297 
L 328 2372 
Q 403 2725 575 2942 
Q 747 3159 1072 3276 
Q 1397 3394 1825 3394 
Q 2250 3394 2515 3294 
Q 2781 3194 2906 3042 
Q 3031 2891 3081 2659 
Q 3109 2516 3109 2141 
L 3109 1391 
Q 3109 606 3145 398 
Q 3181 191 3288 0 
L 2700 0 
Q 2613 175 2588 409 
z
M 2541 1666 
Q 2234 1541 1622 1453 
Q 1275 1403 1131 1340 
Q 988 1278 909 1158 
Q 831 1038 831 891 
Q 831 666 1001 516 
Q 1172 366 1500 366 
Q 1825 366 2078 508 
Q 2331 650 2450 897 
Q 2541 1088 2541 1459 
L 2541 1666 
z
" transform="scale(0.015625)"/>
       <path id="ArialMT-66" d="M 556 0 
L 556 2881 
L 59 2881 
L 59 3319 
L 556 3319 
L 556 3672 
Q 556 4006 616 4169 
Q 697 4388 901 4523 
Q 1106 4659 1475 4659 
Q 1713 4659 2000 4603 
L 1916 4113 
Q 1741 4144 1584 4144 
Q 1328 4144 1222 4034 
Q 1116 3925 1116 3625 
L 1116 3319 
L 1763 3319 
L 1763 2881 
L 1116 2881 
L 1116 0 
L 556 0 
z
" transform="scale(0.015625)"/>
       <path id="ArialMT-72" d="M 416 0 
L 416 3319 
L 922 3319 
L 922 2816 
Q 1116 3169 1280 3281 
Q 1444 3394 1641 3394 
Q 1925 3394 2219 3213 
L 2025 2691 
Q 1819 2813 1613 2813 
Q 1428 2813 1281 2702 
Q 1134 2591 1072 2394 
Q 978 2094 978 1738 
L 978 0 
L 416 0 
z
" transform="scale(0.015625)"/>
       <path id="ArialMT-63" d="M 2588 1216 
L 3141 1144 
Q 3050 572 2676 248 
Q 2303 -75 1759 -75 
Q 1078 -75 664 370 
Q 250 816 250 1647 
Q 250 2184 428 2587 
Q 606 2991 970 3192 
Q 1334 3394 1763 3394 
Q 2303 3394 2647 3120 
Q 2991 2847 3088 2344 
L 2541 2259 
Q 2463 2594 2264 2762 
Q 2066 2931 1784 2931 
Q 1359 2931 1093 2626 
Q 828 2322 828 1663 
Q 828 994 1084 691 
Q 1341 388 1753 388 
Q 2084 388 2306 591 
Q 2528 794 2588 1216 
z
" transform="scale(0.015625)"/>
       <path id="ArialMT-75" d="M 2597 0 
L 2597 488 
Q 2209 -75 1544 -75 
Q 1250 -75 995 37 
Q 741 150 617 320 
Q 494 491 444 738 
Q 409 903 409 1263 
L 409 3319 
L 972 3319 
L 972 1478 
Q 972 1038 1006 884 
Q 1059 663 1231 536 
Q 1403 409 1656 409 
Q 1909 409 2131 539 
Q 2353 669 2445 892 
Q 2538 1116 2538 1541 
L 2538 3319 
L 3100 3319 
L 3100 0 
L 2597 0 
z
" transform="scale(0.015625)"/>
       <path id="ArialMT-28" d="M 1497 -1347 
Q 1031 -759 709 28 
Q 388 816 388 1659 
Q 388 2403 628 3084 
Q 909 3875 1497 4659 
L 1900 4659 
Q 1522 4009 1400 3731 
Q 1209 3300 1100 2831 
Q 966 2247 966 1656 
Q 966 153 1900 -1347 
L 1497 -1347 
z
" transform="scale(0.015625)"/>
       <path id="ArialMT-73" d="M 197 991 
L 753 1078 
Q 800 744 1014 566 
Q 1228 388 1613 388 
Q 2000 388 2187 545 
Q 2375 703 2375 916 
Q 2375 1106 2209 1216 
Q 2094 1291 1634 1406 
Q 1016 1563 777 1677 
Q 538 1791 414 1992 
Q 291 2194 291 2438 
Q 291 2659 392 2848 
Q 494 3038 669 3163 
Q 800 3259 1026 3326 
Q 1253 3394 1513 3394 
Q 1903 3394 2198 3281 
Q 2494 3169 2634 2976 
Q 2775 2784 2828 2463 
L 2278 2388 
Q 2241 2644 2061 2787 
Q 1881 2931 1553 2931 
Q 1166 2931 1000 2803 
Q 834 2675 834 2503 
Q 834 2394 903 2306 
Q 972 2216 1119 2156 
Q 1203 2125 1616 2013 
Q 2213 1853 2448 1751 
Q 2684 1650 2818 1456 
Q 2953 1263 2953 975 
Q 2953 694 2789 445 
Q 2625 197 2315 61 
Q 2006 -75 1616 -75 
Q 969 -75 630 194 
Q 291 463 197 991 
z
" transform="scale(0.015625)"/>
       <path id="ArialMT-29" d="M 791 -1347 
L 388 -1347 
Q 1322 153 1322 1656 
Q 1322 2244 1188 2822 
Q 1081 3291 891 3722 
Q 769 4003 388 4659 
L 791 4659 
Q 1378 3875 1659 3084 
Q 1900 2403 1900 1659 
Q 1900 816 1576 28 
Q 1253 -759 791 -1347 
z
" transform="scale(0.015625)"/>
      </defs>
      <use xlink:href="#ArialMT-74"/>
      <use xlink:href="#ArialMT-69" transform="translate(27.783203 0)"/>
      <use xlink:href="#ArialMT-6d" transform="translate(50 0)"/>
      <use xlink:href="#ArialMT-65" transform="translate(133.300781 0)"/>
      <use xlink:href="#ArialMT-20" transform="translate(188.916016 0)"/>
      <use xlink:href="#ArialMT-61" transform="translate(216.699219 0)"/>
      <use xlink:href="#ArialMT-66" transform="translate(272.314453 0)"/>
      <use xlink:href="#ArialMT-74" transform="translate(300.097656 0)"/>
      <use xlink:href="#ArialMT-65" transform="translate(327.880859 0)"/>
      <use xlink:href="#ArialMT-72" transform="translate(383.496094 0)"/>
      <use xlink:href="#ArialMT-20" transform="translate(416.796875 0)"/>
      <use xlink:href="#ArialMT-63" transform="translate(444.580078 0)"/>
      <use xlink:href="#ArialMT-75" transform="translate(494.580078 0)"/>
      <use xlink:href="#ArialMT-65" transform="translate(550.195312 0)"/>
      <use xlink:href="#ArialMT-20" transform="translate(605.810547 0)"/>
      <use xlink:href="#ArialMT-28" transform="translate(633.59375 0)"/>
      <use xlink:href="#ArialMT-73" transform="translate(666.894531 0)"/>
      <use xlink:href="#ArialMT-29" transform="translate(716.894531 0)"/>
     </g>
    </g>
   </g>
   <g id="matplotlib.axis_2">
    <g id="ytick_1">
     <g id="line2d_4">
      <defs>
       <path id="m8809767bbf" d="M 0 0 
L -3.5 0 
" style="stroke: #000000; stroke-width: 0.8"/>
      </defs>
      <g>
       <use xlink:href="#m8809767bbf" x="42.80375" y="44.907791" style="stroke: #000000; stroke-width: 0.8"/>
      </g>
     </g>
     <g id="text_5">
      <!-- −0.5 -->
      <g transform="translate(20.01125 47.770916) scale(0.08 -0.08)">
       <defs>
        <path id="ArialMT-2212" d="M 3381 1997 
L 356 1997 
L 356 2522 
L 3381 2522 
L 3381 1997 
z
" transform="scale(0.015625)"/>
        <path id="ArialMT-2e" d="M 581 0 
L 581 641 
L 1222 641 
L 1222 0 
L 581 0 
z
" transform="scale(0.015625)"/>
        <path id="ArialMT-35" d="M 266 1200 
L 856 1250 
Q 922 819 1161 601 
Q 1400 384 1738 384 
Q 2144 384 2425 690 
Q 2706 997 2706 1503 
Q 2706 1984 2436 2262 
Q 2166 2541 1728 2541 
Q 1456 2541 1237 2417 
Q 1019 2294 894 2097 
L 366 2166 
L 809 4519 
L 3088 4519 
L 3088 3981 
L 1259 3981 
L 1013 2750 
Q 1425 3038 1878 3038 
Q 2478 3038 2890 2622 
Q 3303 2206 3303 1553 
Q 3303 931 2941 478 
Q 2500 -78 1738 -78 
Q 1113 -78 717 272 
Q 322 622 266 1200 
z
" transform="scale(0.015625)"/>
       </defs>
       <use xlink:href="#ArialMT-2212"/>
       <use xlink:href="#ArialMT-30" transform="translate(58.398438 0)"/>
       <use xlink:href="#ArialMT-2e" transform="translate(114.013672 0)"/>
       <use xlink:href="#ArialMT-35" transform="translate(141.796875 0)"/>
      </g>
     </g>
    </g>
    <g id="ytick_2">
     <g id="line2d_5">
      <g>
       <use xlink:href="#m8809767bbf" x="42.80375" y="11.191718" style="stroke: #000000; stroke-width: 0.8"/>
      </g>
     </g>
     <g id="text_6">
      <!-- 0.0 -->
      <g transform="translate(24.68375 14.054843) scale(0.08 -0.08)">
       <use xlink:href="#ArialMT-30"/>
       <use xlink:href="#ArialMT-2e" transform="translate(55.615234 0)"/>
       <use xlink:href="#ArialMT-30" transform="translate(83.398438 0)"/>
      </g>
     </g>
    </g>
    <g id="text_7">
     <!-- dSPN - iSPN activity -->
     <g transform="translate(14.3275 78.470547) rotate(-90) scale(0.08 -0.08)">
      <defs>
       <path id="ArialMT-64" d="M 2575 0 
L 2575 419 
Q 2259 -75 1647 -75 
Q 1250 -75 917 144 
Q 584 363 401 755 
Q 219 1147 219 1656 
Q 219 2153 384 2558 
Q 550 2963 881 3178 
Q 1213 3394 1622 3394 
Q 1922 3394 2156 3267 
Q 2391 3141 2538 2938 
L 2538 4581 
L 3097 4581 
L 3097 0 
L 2575 0 
z
M 797 1656 
Q 797 1019 1065 703 
Q 1334 388 1700 388 
Q 2069 388 2326 689 
Q 2584 991 2584 1609 
Q 2584 2291 2321 2609 
Q 2059 2928 1675 2928 
Q 1300 2928 1048 2622 
Q 797 2316 797 1656 
z
" transform="scale(0.015625)"/>
       <path id="ArialMT-53" d="M 288 1472 
L 859 1522 
Q 900 1178 1048 958 
Q 1197 738 1509 602 
Q 1822 466 2213 466 
Q 2559 466 2825 569 
Q 3091 672 3220 851 
Q 3350 1031 3350 1244 
Q 3350 1459 3225 1620 
Q 3100 1781 2813 1891 
Q 2628 1963 1997 2114 
Q 1366 2266 1113 2400 
Q 784 2572 623 2826 
Q 463 3081 463 3397 
Q 463 3744 659 4045 
Q 856 4347 1234 4503 
Q 1613 4659 2075 4659 
Q 2584 4659 2973 4495 
Q 3363 4331 3572 4012 
Q 3781 3694 3797 3291 
L 3216 3247 
Q 3169 3681 2898 3903 
Q 2628 4125 2100 4125 
Q 1550 4125 1298 3923 
Q 1047 3722 1047 3438 
Q 1047 3191 1225 3031 
Q 1400 2872 2139 2705 
Q 2878 2538 3153 2413 
Q 3553 2228 3743 1945 
Q 3934 1663 3934 1294 
Q 3934 928 3725 604 
Q 3516 281 3123 101 
Q 2731 -78 2241 -78 
Q 1619 -78 1198 103 
Q 778 284 539 648 
Q 300 1013 288 1472 
z
" transform="scale(0.015625)"/>
       <path id="ArialMT-50" d="M 494 0 
L 494 4581 
L 2222 4581 
Q 2678 4581 2919 4538 
Q 3256 4481 3484 4323 
Q 3713 4166 3852 3881 
Q 3991 3597 3991 3256 
Q 3991 2672 3619 2267 
Q 3247 1863 2275 1863 
L 1100 1863 
L 1100 0 
L 494 0 
z
M 1100 2403 
L 2284 2403 
Q 2872 2403 3119 2622 
Q 3366 2841 3366 3238 
Q 3366 3525 3220 3729 
Q 3075 3934 2838 4000 
Q 2684 4041 2272 4041 
L 1100 4041 
L 1100 2403 
z
" transform="scale(0.015625)"/>
       <path id="ArialMT-4e" d="M 488 0 
L 488 4581 
L 1109 4581 
L 3516 984 
L 3516 4581 
L 4097 4581 
L 4097 0 
L 3475 0 
L 1069 3600 
L 1069 0 
L 488 0 
z
" transform="scale(0.015625)"/>
       <path id="ArialMT-2d" d="M 203 1375 
L 203 1941 
L 1931 1941 
L 1931 1375 
L 203 1375 
z
" transform="scale(0.015625)"/>
       <path id="ArialMT-76" d="M 1344 0 
L 81 3319 
L 675 3319 
L 1388 1331 
Q 1503 1009 1600 663 
Q 1675 925 1809 1294 
L 2547 3319 
L 3125 3319 
L 1869 0 
L 1344 0 
z
" transform="scale(0.015625)"/>
       <path id="ArialMT-79" d="M 397 -1278 
L 334 -750 
Q 519 -800 656 -800 
Q 844 -800 956 -737 
Q 1069 -675 1141 -563 
Q 1194 -478 1313 -144 
Q 1328 -97 1363 -6 
L 103 3319 
L 709 3319 
L 1400 1397 
Q 1534 1031 1641 628 
Q 1738 1016 1872 1384 
L 2581 3319 
L 3144 3319 
L 1881 -56 
Q 1678 -603 1566 -809 
Q 1416 -1088 1222 -1217 
Q 1028 -1347 759 -1347 
Q 597 -1347 397 -1278 
z
" transform="scale(0.015625)"/>
      </defs>
      <use xlink:href="#ArialMT-64"/>
      <use xlink:href="#ArialMT-53" transform="translate(55.615234 0)"/>
      <use xlink:href="#ArialMT-50" transform="translate(122.314453 0)"/>
      <use xlink:href="#ArialMT-4e" transform="translate(189.013672 0)"/>
      <use xlink:href="#ArialMT-20" transform="translate(261.230469 0)"/>
      <use xlink:href="#ArialMT-2d" transform="translate(289.013672 0)"/>
      <use xlink:href="#ArialMT-20" transform="translate(322.314453 0)"/>
      <use xlink:href="#ArialMT-69" transform="translate(350.097656 0)"/>
      <use xlink:href="#ArialMT-53" transform="translate(372.314453 0)"/>
      <use xlink:href="#ArialMT-50" transform="translate(439.013672 0)"/>
      <use xlink:href="#ArialMT-4e" transform="translate(505.712891 0)"/>
      <use xlink:href="#ArialMT-20" transform="translate(577.929688 0)"/>
      <use xlink:href="#ArialMT-61" transform="translate(605.712891 0)"/>
      <use xlink:href="#ArialMT-63" transform="translate(661.328125 0)"/>
      <use xlink:href="#ArialMT-74" transform="translate(711.328125 0)"/>
      <use xlink:href="#ArialMT-69" transform="translate(739.111328 0)"/>
      <use xlink:href="#ArialMT-76" transform="translate(761.328125 0)"/>
      <use xlink:href="#ArialMT-69" transform="translate(811.328125 0)"/>
      <use xlink:href="#ArialMT-74" transform="translate(833.544922 0)"/>
      <use xlink:href="#ArialMT-79" transform="translate(861.328125 0)"/>
     </g>
    </g>
   </g>
   <g id="line2d_6">
    <path d="M 46.356307 15.004562 
L 49.212634 16.147518 
L 52.426002 17.715702 
L 59.92386 21.632932 
L 62.780188 23.599307 
L 67.421718 26.821404 
L 72.777333 30.122711 
L 75.633659 31.730057 
L 77.418864 32.471344 
L 78.847028 32.848611 
L 80.632231 33.069068 
L 83.488557 33.119011 
L 85.987846 33.249336 
L 87.773048 33.547966 
L 89.558255 34.081003 
L 90.986417 34.720545 
L 92.41458 35.596364 
L 93.842746 36.740755 
L 95.270908 38.150459 
L 97.413151 40.64209 
L 102.768768 47.095001 
L 106.696218 51.609383 
L 108.481421 54.117954 
L 110.266624 57.113917 
L 112.408871 61.238901 
L 117.050403 70.372634 
L 117.407443 71.025447 
L 117.407443 71.025447 
" clip-path="url(#pf63a417b0a)" style="fill: none; stroke: #30123b; stroke-width: 1.5; stroke-linecap: square"/>
   </g>
   <g id="line2d_7">
    <path d="M 46.356307 13.229706 
L 48.855593 13.7447 
L 50.997838 14.440624 
L 53.497125 15.530004 
L 57.424574 17.269588 
L 60.280901 18.234561 
L 63.851311 19.421784 
L 66.350596 20.49732 
L 72.063252 23.087729 
L 73.848454 23.628647 
L 75.633659 23.941984 
L 77.418864 24.006931 
L 79.204069 23.836188 
L 81.346314 23.384914 
L 84.559683 22.438038 
L 93.128661 19.65647 
L 96.69907 18.348445 
L 98.127237 18.031277 
L 99.555399 17.960867 
L 100.626521 18.111325 
L 101.697642 18.457323 
L 102.768768 19.009329 
L 103.83989 19.771793 
L 105.268052 21.116929 
L 106.696218 22.83368 
L 108.124381 24.911875 
L 109.909583 27.989993 
L 111.69479 31.559674 
L 113.479993 35.585954 
L 115.62224 40.997705 
L 117.407443 45.950325 
L 117.407443 45.950325 
" clip-path="url(#pf63a417b0a)" style="fill: none; stroke: #466be3; stroke-width: 1.5; stroke-linecap: square"/>
   </g>
   <g id="line2d_8">
    <path d="M 46.356307 13.437684 
L 48.855593 13.849027 
L 50.640797 14.337985 
L 53.140084 15.28281 
L 56.353452 16.461095 
L 59.56682 17.306946 
L 62.066106 18.057876 
L 64.208351 18.978759 
L 66.707637 20.338205 
L 70.278047 22.300537 
L 72.420292 23.210073 
L 74.205495 23.752647 
L 76.34774 24.153874 
L 78.489986 24.293006 
L 80.27519 24.193676 
L 82.060395 23.884341 
L 84.202639 23.278404 
L 97.770196 18.916552 
L 99.198358 18.739263 
L 100.626521 18.766177 
L 102.054683 19.009848 
L 103.482849 19.464901 
L 104.911011 20.122844 
L 106.339174 20.989085 
L 107.76734 22.093741 
L 109.195502 23.489413 
L 110.623664 25.234899 
L 112.051831 27.372763 
L 113.479993 29.912115 
L 115.265196 33.605253 
L 117.407443 38.647406 
L 117.407443 38.647406 
" clip-path="url(#pf63a417b0a)" style="fill: none; stroke: #28bceb; stroke-width: 1.5; stroke-linecap: square"/>
   </g>
   <g id="line2d_9">
    <path d="M 46.356307 13.585433 
L 48.855593 13.937554 
L 50.997838 14.490172 
L 54.568247 15.744897 
L 58.852738 17.141346 
L 61.709065 18.163344 
L 64.565392 19.458691 
L 70.635087 22.361845 
L 73.134373 23.237995 
L 75.276619 23.737374 
L 77.418864 23.986177 
L 79.91815 24.010228 
L 83.488557 23.779521 
L 89.558255 23.154608 
L 94.556827 22.419391 
L 104.19693 20.882021 
L 105.982133 20.839536 
L 107.76734 21.02559 
L 109.195502 21.381248 
L 110.623664 21.949937 
L 112.051831 22.751209 
L 113.479993 23.793584 
L 114.908155 25.073527 
L 116.693362 26.992528 
L 117.407443 27.857436 
L 117.407443 27.857436 
" clip-path="url(#pf63a417b0a)" style="fill: none; stroke: #32f298; stroke-width: 1.5; stroke-linecap: square"/>
   </g>
   <g id="line2d_10">
    <path d="M 46.356307 13.258781 
L 48.498552 13.591686 
L 50.283757 14.109357 
L 52.426002 15.004506 
L 56.353452 16.720686 
L 59.56682 17.784861 
L 62.780188 18.917701 
L 65.636515 20.200967 
L 70.635087 22.495353 
L 73.848454 23.695175 
L 77.061823 24.66975 
L 79.561109 25.204271 
L 82.060395 25.487819 
L 84.559683 25.525494 
L 87.058967 25.329686 
L 89.558255 24.915196 
L 96.34203 23.41275 
L 107.053259 21.209068 
L 109.195502 21.140573 
L 110.980705 21.305165 
L 112.765912 21.706237 
L 114.194074 22.228124 
L 115.62224 22.964343 
L 117.050403 23.953212 
L 117.407443 24.244228 
L 117.407443 24.244228 
" clip-path="url(#pf63a417b0a)" style="fill: none; stroke: #a4fc3c; stroke-width: 1.5; stroke-linecap: square"/>
   </g>
   <g id="line2d_11">
    <path d="M 46.356307 13.009396 
L 48.855593 13.428036 
L 50.997838 14.025237 
L 57.424574 16.105975 
L 63.137228 17.460537 
L 64.922432 18.187443 
L 67.064678 19.303685 
L 72.063252 22.023997 
L 74.205495 22.882408 
L 76.34774 23.477343 
L 78.489986 23.80182 
L 80.632231 23.88849 
L 86.701927 23.960841 
L 92.057539 24.290642 
L 94.199787 24.127754 
L 96.34203 23.738315 
L 99.912439 22.802966 
L 103.482849 21.943336 
L 107.410299 21.257966 
L 111.33775 20.743961 
L 113.479993 20.673399 
L 115.265196 20.825838 
L 117.050403 21.185143 
L 117.407443 21.279585 
L 117.407443 21.279585 
" clip-path="url(#pf63a417b0a)" style="fill: none; stroke: #eecf3a; stroke-width: 1.5; stroke-linecap: square"/>
   </g>
   <g id="line2d_12">
    <path d="M 46.356307 13.682091 
L 49.569675 14.137088 
L 52.068961 14.728616 
L 58.852738 16.696822 
L 61.709065 17.768637 
L 71.349168 21.728256 
L 75.633659 23.056249 
L 80.632231 24.439235 
L 82.417436 24.726772 
L 84.202639 24.792266 
L 85.987846 24.638824 
L 89.201215 24.073564 
L 92.057539 23.65116 
L 99.555399 22.76267 
L 103.125809 21.908623 
L 107.410299 20.908913 
L 117.407443 18.976453 
L 117.407443 18.976453 
" clip-path="url(#pf63a417b0a)" style="fill: none; stroke: #fb7e21; stroke-width: 1.5; stroke-linecap: square"/>
   </g>
   <g id="line2d_13">
    <path d="M 46.356307 13.024333 
L 48.498552 13.074275 
L 50.283757 13.322184 
L 52.426002 13.864557 
L 59.56682 16.073663 
L 61.709065 17.01201 
L 64.208351 18.396647 
L 69.206923 21.293456 
L 70.992128 22.040397 
L 72.777333 22.527622 
L 74.562537 22.770639 
L 77.418864 22.877784 
L 80.632231 23.054336 
L 85.987846 23.498157 
L 88.130089 23.393622 
L 99.198358 22.266208 
L 101.697642 21.65859 
L 111.33775 18.791303 
L 115.62224 17.311146 
L 117.407443 16.698537 
L 117.407443 16.698537 
" clip-path="url(#pf63a417b0a)" style="fill: none; stroke: #d02f05; stroke-width: 1.5; stroke-linecap: square"/>
   </g>
   <g id="line2d_14">
    <path d="M 46.356307 13.3338 
L 48.498552 13.808623 
L 50.997838 14.628222 
L 57.424574 16.955152 
L 62.066106 18.394758 
L 64.208351 19.370185 
L 66.350596 20.613536 
L 69.563963 22.803014 
L 72.420292 24.686306 
L 74.205495 25.637929 
L 75.9907 26.357307 
L 78.132945 26.947079 
L 80.27519 27.300759 
L 82.417436 27.435817 
L 84.916724 27.343157 
L 90.986417 26.946377 
L 93.842746 27.07787 
L 97.056111 27.204478 
L 98.841318 27.021625 
L 100.626521 26.579522 
L 103.125809 25.653361 
L 105.625092 24.752023 
L 107.410299 24.36505 
L 108.838462 24.271804 
L 110.623664 24.40145 
L 113.122952 24.863404 
L 117.050403 25.824143 
L 117.407443 25.92444 
L 117.407443 25.92444 
" clip-path="url(#pf63a417b0a)" style="fill: none; stroke: #7a0403; stroke-width: 1.5; stroke-linecap: square"/>
   </g>
   <g id="patch_5">
    <path d="M 42.80375 73.92625 
L 42.80375 10.108593 
" style="fill: none; stroke: #000000; stroke-width: 0.8; stroke-linejoin: miter; stroke-linecap: square"/>
   </g>
   <g id="patch_6">
    <path d="M 120.96 73.92625 
L 120.96 10.108593 
" style="fill: none; stroke: #000000; stroke-width: 0.8; stroke-linejoin: miter; stroke-linecap: square"/>
   </g>
   <g id="patch_7">
    <path d="M 42.80375 73.92625 
L 120.96 73.92625 
" style="fill: none; stroke: #000000; stroke-width: 0.8; stroke-linejoin: miter; stroke-linecap: square"/>
   </g>
   <g id="patch_8">
    <path d="M 42.80375 10.108593 
L 120.96 10.108593 
" style="fill: none; stroke: #000000; stroke-width: 0.8; stroke-linejoin: miter; stroke-linecap: square"/>
   </g>
  </g>
 </g>
 <defs>
  <clipPath id="pf63a417b0a">
   <rect x="42.80375" y="10.108593" width="78.15625" height="63.817657"/>
  </clipPath>
 </defs>
</svg>
