<?xml version="1.0" encoding="utf-8" standalone="no"?>
<!DOCTYPE svg PUBLIC "-//W3C//DTD SVG 1.1//EN"
  "http://www.w3.org/Graphics/SVG/1.1/DTD/svg11.dtd">
<svg xmlns:xlink="http://www.w3.org/1999/xlink" width="366.48pt" height="108pt" viewBox="0 0 366.48 108" xmlns="http://www.w3.org/2000/svg" version="1.1">
 <metadata>
  <rdf:RDF xmlns:dc="http://purl.org/dc/elements/1.1/" xmlns:cc="http://creativecommons.org/ns#" xmlns:rdf="http://www.w3.org/1999/02/22-rdf-syntax-ns#">
   <cc:Work>
    <dc:type rdf:resource="http://purl.org/dc/dcmitype/StillImage"/>
    <dc:date>2025-02-06T15:57:45.356008</dc:date>
    <dc:format>image/svg+xml</dc:format>
    <dc:creator>
     <cc:Agent>
      <dc:title>Matplotlib v3.10.0, https://matplotlib.org/</dc:title>
     </cc:Agent>
    </dc:creator>
   </cc:Work>
  </rdf:RDF>
 </metadata>
 <defs>
  <style type="text/css">*{stroke-linejoin: round; stroke-linecap: butt}</style>
 </defs>
 <g id="figure_1">
  <g id="patch_1">
   <path d="M 0 108 
L 366.48 108 
L 366.48 0 
L 0 0 
z
" style="fill: #ffffff"/>
  </g>
  <g id="axes_1">
   <g id="patch_2">
    <path d="M 38.048998 65.53375 
L 103.520682 65.53375 
L 103.520682 21.12 
L 38.048998 21.12 
z
" style="fill: #ffffff"/>
   </g>
   <g id="patch_3">
    <path d="M 70.78484 65.53375 
L 103.520682 65.53375 
L 103.520682 21.12 
L 70.78484 21.12 
z
" clip-path="url(#p230c3f06c1)" style="fill: #008000; opacity: 0.2; stroke: #008000; stroke-linejoin: miter"/>
   </g>
   <g id="patch_4">
    <path d="M 48.960945 65.53375 
L 68.056853 65.53375 
L 68.056853 21.12 
L 48.960945 21.12 
z
" clip-path="url(#p230c3f06c1)" style="fill: #0000ff; opacity: 0.2; stroke: #0000ff; stroke-linejoin: miter"/>
   </g>
   <g id="patch_5">
    <path d="M 38.048998 65.53375 
L 39.140192 65.53375 
L 39.140192 21.12 
L 38.048998 21.12 
z
" clip-path="url(#p230c3f06c1)" style="fill: #ff0000; opacity: 0.2; stroke: #ff0000; stroke-linejoin: miter"/>
   </g>
   <g id="matplotlib.axis_1">
    <g id="xtick_1">
     <g id="line2d_1">
      <defs>
       <path id="mb9ab1c25f7" d="M 0 0 
L 0 3.5 
" style="stroke: #000000; stroke-width: 0.8"/>
      </defs>
      <g>
       <use xlink:href="#mb9ab1c25f7" x="38.048998" y="65.53375" style="stroke: #000000; stroke-width: 0.8"/>
      </g>
     </g>
     <g id="text_1">
      <!-- 0 -->
      <g transform="translate(35.824623 78.26) scale(0.08 -0.08)">
       <defs>
        <path id="ArialMT-30" d="M 266 2259 
Q 266 3072 433 3567 
Q 600 4063 929 4331 
Q 1259 4600 1759 4600 
Q 2128 4600 2406 4451 
Q 2684 4303 2865 4023 
Q 3047 3744 3150 3342 
Q 3253 2941 3253 2259 
Q 3253 1453 3087 958 
Q 2922 463 2592 192 
Q 2263 -78 1759 -78 
Q 1097 -78 719 397 
Q 266 969 266 2259 
z
M 844 2259 
Q 844 1131 1108 757 
Q 1372 384 1759 384 
Q 2147 384 2411 759 
Q 2675 1134 2675 2259 
Q 2675 3391 2411 3762 
Q 2147 4134 1753 4134 
Q 1366 4134 1134 3806 
Q 844 3388 844 2259 
z
" transform="scale(0.015625)"/>
       </defs>
       <use xlink:href="#ArialMT-30"/>
      </g>
     </g>
    </g>
    <g id="xtick_2">
     <g id="line2d_2">
      <g>
       <use xlink:href="#mb9ab1c25f7" x="70.78484" y="65.53375" style="stroke: #000000; stroke-width: 0.8"/>
      </g>
     </g>
     <g id="text_2">
      <!-- 3 -->
      <g transform="translate(68.560465 78.26) scale(0.08 -0.08)">
       <defs>
        <path id="ArialMT-33" d="M 269 1209 
L 831 1284 
Q 928 806 1161 595 
Q 1394 384 1728 384 
Q 2125 384 2398 659 
Q 2672 934 2672 1341 
Q 2672 1728 2419 1979 
Q 2166 2231 1775 2231 
Q 1616 2231 1378 2169 
L 1441 2663 
Q 1497 2656 1531 2656 
Q 1891 2656 2178 2843 
Q 2466 3031 2466 3422 
Q 2466 3731 2256 3934 
Q 2047 4138 1716 4138 
Q 1388 4138 1169 3931 
Q 950 3725 888 3313 
L 325 3413 
Q 428 3978 793 4289 
Q 1159 4600 1703 4600 
Q 2078 4600 2393 4439 
Q 2709 4278 2876 4000 
Q 3044 3722 3044 3409 
Q 3044 3113 2884 2869 
Q 2725 2625 2413 2481 
Q 2819 2388 3044 2092 
Q 3269 1797 3269 1353 
Q 3269 753 2831 336 
Q 2394 -81 1725 -81 
Q 1122 -81 723 278 
Q 325 638 269 1209 
z
" transform="scale(0.015625)"/>
       </defs>
       <use xlink:href="#ArialMT-33"/>
      </g>
     </g>
    </g>
    <g id="xtick_3">
     <g id="line2d_3">
      <g>
       <use xlink:href="#mb9ab1c25f7" x="103.520682" y="65.53375" style="stroke: #000000; stroke-width: 0.8"/>
      </g>
     </g>
     <g id="text_3">
      <!-- 6 -->
      <g transform="translate(101.296307 78.26) scale(0.08 -0.08)">
       <defs>
        <path id="ArialMT-36" d="M 3184 3459 
L 2625 3416 
Q 2550 3747 2413 3897 
Q 2184 4138 1850 4138 
Q 1581 4138 1378 3988 
Q 1113 3794 959 3422 
Q 806 3050 800 2363 
Q 1003 2672 1297 2822 
Q 1591 2972 1913 2972 
Q 2475 2972 2870 2558 
Q 3266 2144 3266 1488 
Q 3266 1056 3080 686 
Q 2894 316 2569 119 
Q 2244 -78 1831 -78 
Q 1128 -78 684 439 
Q 241 956 241 2144 
Q 241 3472 731 4075 
Q 1159 4600 1884 4600 
Q 2425 4600 2770 4297 
Q 3116 3994 3184 3459 
z
M 888 1484 
Q 888 1194 1011 928 
Q 1134 663 1356 523 
Q 1578 384 1822 384 
Q 2178 384 2434 671 
Q 2691 959 2691 1453 
Q 2691 1928 2437 2201 
Q 2184 2475 1800 2475 
Q 1419 2475 1153 2201 
Q 888 1928 888 1484 
z
" transform="scale(0.015625)"/>
       </defs>
       <use xlink:href="#ArialMT-36"/>
      </g>
     </g>
    </g>
    <g id="text_4">
     <!-- Response time -->
     <g transform="translate(44.106715 89.57625) scale(0.08 -0.08)">
      <defs>
       <path id="ArialMT-52" d="M 503 0 
L 503 4581 
L 2534 4581 
Q 3147 4581 3465 4457 
Q 3784 4334 3975 4021 
Q 4166 3709 4166 3331 
Q 4166 2844 3850 2509 
Q 3534 2175 2875 2084 
Q 3116 1969 3241 1856 
Q 3506 1613 3744 1247 
L 4541 0 
L 3778 0 
L 3172 953 
Q 2906 1366 2734 1584 
Q 2563 1803 2427 1890 
Q 2291 1978 2150 2013 
Q 2047 2034 1813 2034 
L 1109 2034 
L 1109 0 
L 503 0 
z
M 1109 2559 
L 2413 2559 
Q 2828 2559 3062 2645 
Q 3297 2731 3419 2920 
Q 3541 3109 3541 3331 
Q 3541 3656 3305 3865 
Q 3069 4075 2559 4075 
L 1109 4075 
L 1109 2559 
z
" transform="scale(0.015625)"/>
       <path id="ArialMT-65" d="M 2694 1069 
L 3275 997 
Q 3138 488 2766 206 
Q 2394 -75 1816 -75 
Q 1088 -75 661 373 
Q 234 822 234 1631 
Q 234 2469 665 2931 
Q 1097 3394 1784 3394 
Q 2450 3394 2872 2941 
Q 3294 2488 3294 1666 
Q 3294 1616 3291 1516 
L 816 1516 
Q 847 969 1125 678 
Q 1403 388 1819 388 
Q 2128 388 2347 550 
Q 2566 713 2694 1069 
z
M 847 1978 
L 2700 1978 
Q 2663 2397 2488 2606 
Q 2219 2931 1791 2931 
Q 1403 2931 1139 2672 
Q 875 2413 847 1978 
z
" transform="scale(0.015625)"/>
       <path id="ArialMT-73" d="M 197 991 
L 753 1078 
Q 800 744 1014 566 
Q 1228 388 1613 388 
Q 2000 388 2187 545 
Q 2375 703 2375 916 
Q 2375 1106 2209 1216 
Q 2094 1291 1634 1406 
Q 1016 1563 777 1677 
Q 538 1791 414 1992 
Q 291 2194 291 2438 
Q 291 2659 392 2848 
Q 494 3038 669 3163 
Q 800 3259 1026 3326 
Q 1253 3394 1513 3394 
Q 1903 3394 2198 3281 
Q 2494 3169 2634 2976 
Q 2775 2784 2828 2463 
L 2278 2388 
Q 2241 2644 2061 2787 
Q 1881 2931 1553 2931 
Q 1166 2931 1000 2803 
Q 834 2675 834 2503 
Q 834 2394 903 2306 
Q 972 2216 1119 2156 
Q 1203 2125 1616 2013 
Q 2213 1853 2448 1751 
Q 2684 1650 2818 1456 
Q 2953 1263 2953 975 
Q 2953 694 2789 445 
Q 2625 197 2315 61 
Q 2006 -75 1616 -75 
Q 969 -75 630 194 
Q 291 463 197 991 
z
" transform="scale(0.015625)"/>
       <path id="ArialMT-70" d="M 422 -1272 
L 422 3319 
L 934 3319 
L 934 2888 
Q 1116 3141 1344 3267 
Q 1572 3394 1897 3394 
Q 2322 3394 2647 3175 
Q 2972 2956 3137 2557 
Q 3303 2159 3303 1684 
Q 3303 1175 3120 767 
Q 2938 359 2589 142 
Q 2241 -75 1856 -75 
Q 1575 -75 1351 44 
Q 1128 163 984 344 
L 984 -1272 
L 422 -1272 
z
M 931 1641 
Q 931 1000 1190 694 
Q 1450 388 1819 388 
Q 2194 388 2461 705 
Q 2728 1022 2728 1688 
Q 2728 2322 2467 2637 
Q 2206 2953 1844 2953 
Q 1484 2953 1207 2617 
Q 931 2281 931 1641 
z
" transform="scale(0.015625)"/>
       <path id="ArialMT-6f" d="M 213 1659 
Q 213 2581 725 3025 
Q 1153 3394 1769 3394 
Q 2453 3394 2887 2945 
Q 3322 2497 3322 1706 
Q 3322 1066 3130 698 
Q 2938 331 2570 128 
Q 2203 -75 1769 -75 
Q 1072 -75 642 372 
Q 213 819 213 1659 
z
M 791 1659 
Q 791 1022 1069 705 
Q 1347 388 1769 388 
Q 2188 388 2466 706 
Q 2744 1025 2744 1678 
Q 2744 2294 2464 2611 
Q 2184 2928 1769 2928 
Q 1347 2928 1069 2612 
Q 791 2297 791 1659 
z
" transform="scale(0.015625)"/>
       <path id="ArialMT-6e" d="M 422 0 
L 422 3319 
L 928 3319 
L 928 2847 
Q 1294 3394 1984 3394 
Q 2284 3394 2536 3286 
Q 2788 3178 2913 3003 
Q 3038 2828 3088 2588 
Q 3119 2431 3119 2041 
L 3119 0 
L 2556 0 
L 2556 2019 
Q 2556 2363 2490 2533 
Q 2425 2703 2258 2804 
Q 2091 2906 1866 2906 
Q 1506 2906 1245 2678 
Q 984 2450 984 1813 
L 984 0 
L 422 0 
z
" transform="scale(0.015625)"/>
       <path id="ArialMT-20" transform="scale(0.015625)"/>
       <path id="ArialMT-74" d="M 1650 503 
L 1731 6 
Q 1494 -44 1306 -44 
Q 1000 -44 831 53 
Q 663 150 594 308 
Q 525 466 525 972 
L 525 2881 
L 113 2881 
L 113 3319 
L 525 3319 
L 525 4141 
L 1084 4478 
L 1084 3319 
L 1650 3319 
L 1650 2881 
L 1084 2881 
L 1084 941 
Q 1084 700 1114 631 
Q 1144 563 1211 522 
Q 1278 481 1403 481 
Q 1497 481 1650 503 
z
" transform="scale(0.015625)"/>
       <path id="ArialMT-69" d="M 425 3934 
L 425 4581 
L 988 4581 
L 988 3934 
L 425 3934 
z
M 425 0 
L 425 3319 
L 988 3319 
L 988 0 
L 425 0 
z
" transform="scale(0.015625)"/>
       <path id="ArialMT-6d" d="M 422 0 
L 422 3319 
L 925 3319 
L 925 2853 
Q 1081 3097 1340 3245 
Q 1600 3394 1931 3394 
Q 2300 3394 2536 3241 
Q 2772 3088 2869 2813 
Q 3263 3394 3894 3394 
Q 4388 3394 4653 3120 
Q 4919 2847 4919 2278 
L 4919 0 
L 4359 0 
L 4359 2091 
Q 4359 2428 4304 2576 
Q 4250 2725 4106 2815 
Q 3963 2906 3769 2906 
Q 3419 2906 3187 2673 
Q 2956 2441 2956 1928 
L 2956 0 
L 2394 0 
L 2394 2156 
Q 2394 2531 2256 2718 
Q 2119 2906 1806 2906 
Q 1569 2906 1367 2781 
Q 1166 2656 1075 2415 
Q 984 2175 984 1722 
L 984 0 
L 422 0 
z
" transform="scale(0.015625)"/>
      </defs>
      <use xlink:href="#ArialMT-52"/>
      <use xlink:href="#ArialMT-65" transform="translate(72.216797 0)"/>
      <use xlink:href="#ArialMT-73" transform="translate(127.832031 0)"/>
      <use xlink:href="#ArialMT-70" transform="translate(177.832031 0)"/>
      <use xlink:href="#ArialMT-6f" transform="translate(233.447266 0)"/>
      <use xlink:href="#ArialMT-6e" transform="translate(289.0625 0)"/>
      <use xlink:href="#ArialMT-73" transform="translate(344.677734 0)"/>
      <use xlink:href="#ArialMT-65" transform="translate(394.677734 0)"/>
      <use xlink:href="#ArialMT-20" transform="translate(450.292969 0)"/>
      <use xlink:href="#ArialMT-74" transform="translate(478.076172 0)"/>
      <use xlink:href="#ArialMT-69" transform="translate(505.859375 0)"/>
      <use xlink:href="#ArialMT-6d" transform="translate(528.076172 0)"/>
      <use xlink:href="#ArialMT-65" transform="translate(611.376953 0)"/>
     </g>
     <!-- after cue (s) -->
     <g transform="translate(49.446715 98.15475) scale(0.08 -0.08)">
      <defs>
       <path id="ArialMT-61" d="M 2588 409 
Q 2275 144 1986 34 
Q 1697 -75 1366 -75 
Q 819 -75 525 192 
Q 231 459 231 875 
Q 231 1119 342 1320 
Q 453 1522 633 1644 
Q 813 1766 1038 1828 
Q 1203 1872 1538 1913 
Q 2219 1994 2541 2106 
Q 2544 2222 2544 2253 
Q 2544 2597 2384 2738 
Q 2169 2928 1744 2928 
Q 1347 2928 1158 2789 
Q 969 2650 878 2297 
L 328 2372 
Q 403 2725 575 2942 
Q 747 3159 1072 3276 
Q 1397 3394 1825 3394 
Q 2250 3394 2515 3294 
Q 2781 3194 2906 3042 
Q 3031 2891 3081 2659 
Q 3109 2516 3109 2141 
L 3109 1391 
Q 3109 606 3145 398 
Q 3181 191 3288 0 
L 2700 0 
Q 2613 175 2588 409 
z
M 2541 1666 
Q 2234 1541 1622 1453 
Q 1275 1403 1131 1340 
Q 988 1278 909 1158 
Q 831 1038 831 891 
Q 831 666 1001 516 
Q 1172 366 1500 366 
Q 1825 366 2078 508 
Q 2331 650 2450 897 
Q 2541 1088 2541 1459 
L 2541 1666 
z
" transform="scale(0.015625)"/>
       <path id="ArialMT-66" d="M 556 0 
L 556 2881 
L 59 2881 
L 59 3319 
L 556 3319 
L 556 3672 
Q 556 4006 616 4169 
Q 697 4388 901 4523 
Q 1106 4659 1475 4659 
Q 1713 4659 2000 4603 
L 1916 4113 
Q 1741 4144 1584 4144 
Q 1328 4144 1222 4034 
Q 1116 3925 1116 3625 
L 1116 3319 
L 1763 3319 
L 1763 2881 
L 1116 2881 
L 1116 0 
L 556 0 
z
" transform="scale(0.015625)"/>
       <path id="ArialMT-72" d="M 416 0 
L 416 3319 
L 922 3319 
L 922 2816 
Q 1116 3169 1280 3281 
Q 1444 3394 1641 3394 
Q 1925 3394 2219 3213 
L 2025 2691 
Q 1819 2813 1613 2813 
Q 1428 2813 1281 2702 
Q 1134 2591 1072 2394 
Q 978 2094 978 1738 
L 978 0 
L 416 0 
z
" transform="scale(0.015625)"/>
       <path id="ArialMT-63" d="M 2588 1216 
L 3141 1144 
Q 3050 572 2676 248 
Q 2303 -75 1759 -75 
Q 1078 -75 664 370 
Q 250 816 250 1647 
Q 250 2184 428 2587 
Q 606 2991 970 3192 
Q 1334 3394 1763 3394 
Q 2303 3394 2647 3120 
Q 2991 2847 3088 2344 
L 2541 2259 
Q 2463 2594 2264 2762 
Q 2066 2931 1784 2931 
Q 1359 2931 1093 2626 
Q 828 2322 828 1663 
Q 828 994 1084 691 
Q 1341 388 1753 388 
Q 2084 388 2306 591 
Q 2528 794 2588 1216 
z
" transform="scale(0.015625)"/>
       <path id="ArialMT-75" d="M 2597 0 
L 2597 488 
Q 2209 -75 1544 -75 
Q 1250 -75 995 37 
Q 741 150 617 320 
Q 494 491 444 738 
Q 409 903 409 1263 
L 409 3319 
L 972 3319 
L 972 1478 
Q 972 1038 1006 884 
Q 1059 663 1231 536 
Q 1403 409 1656 409 
Q 1909 409 2131 539 
Q 2353 669 2445 892 
Q 2538 1116 2538 1541 
L 2538 3319 
L 3100 3319 
L 3100 0 
L 2597 0 
z
" transform="scale(0.015625)"/>
       <path id="ArialMT-28" d="M 1497 -1347 
Q 1031 -759 709 28 
Q 388 816 388 1659 
Q 388 2403 628 3084 
Q 909 3875 1497 4659 
L 1900 4659 
Q 1522 4009 1400 3731 
Q 1209 3300 1100 2831 
Q 966 2247 966 1656 
Q 966 153 1900 -1347 
L 1497 -1347 
z
" transform="scale(0.015625)"/>
       <path id="ArialMT-29" d="M 791 -1347 
L 388 -1347 
Q 1322 153 1322 1656 
Q 1322 2244 1188 2822 
Q 1081 3291 891 3722 
Q 769 4003 388 4659 
L 791 4659 
Q 1378 3875 1659 3084 
Q 1900 2403 1900 1659 
Q 1900 816 1576 28 
Q 1253 -759 791 -1347 
z
" transform="scale(0.015625)"/>
      </defs>
      <use xlink:href="#ArialMT-61"/>
      <use xlink:href="#ArialMT-66" transform="translate(55.615234 0)"/>
      <use xlink:href="#ArialMT-74" transform="translate(83.398438 0)"/>
      <use xlink:href="#ArialMT-65" transform="translate(111.181641 0)"/>
      <use xlink:href="#ArialMT-72" transform="translate(166.796875 0)"/>
      <use xlink:href="#ArialMT-20" transform="translate(200.097656 0)"/>
      <use xlink:href="#ArialMT-63" transform="translate(227.880859 0)"/>
      <use xlink:href="#ArialMT-75" transform="translate(277.880859 0)"/>
      <use xlink:href="#ArialMT-65" transform="translate(333.496094 0)"/>
      <use xlink:href="#ArialMT-20" transform="translate(389.111328 0)"/>
      <use xlink:href="#ArialMT-28" transform="translate(416.894531 0)"/>
      <use xlink:href="#ArialMT-73" transform="translate(450.195312 0)"/>
      <use xlink:href="#ArialMT-29" transform="translate(500.195312 0)"/>
     </g>
    </g>
   </g>
   <g id="matplotlib.axis_2">
    <g id="ytick_1">
     <g id="line2d_4">
      <defs>
       <path id="mf006d1888d" d="M 0 0 
L -3.5 0 
" style="stroke: #000000; stroke-width: 0.8"/>
      </defs>
      <g>
       <use xlink:href="#mf006d1888d" x="38.048998" y="63.594738" style="stroke: #000000; stroke-width: 0.8"/>
      </g>
     </g>
     <g id="text_5">
      <!-- 0.0 -->
      <g transform="translate(19.928998 66.457863) scale(0.08 -0.08)">
       <defs>
        <path id="ArialMT-2e" d="M 581 0 
L 581 641 
L 1222 641 
L 1222 0 
L 581 0 
z
" transform="scale(0.015625)"/>
       </defs>
       <use xlink:href="#ArialMT-30"/>
       <use xlink:href="#ArialMT-2e" transform="translate(55.615234 0)"/>
       <use xlink:href="#ArialMT-30" transform="translate(83.398438 0)"/>
      </g>
     </g>
    </g>
    <g id="ytick_2">
     <g id="line2d_5">
      <g>
       <use xlink:href="#mf006d1888d" x="38.048998" y="43.366772" style="stroke: #000000; stroke-width: 0.8"/>
      </g>
     </g>
     <g id="text_6">
      <!-- 0.5 -->
      <g transform="translate(19.928998 46.229897) scale(0.08 -0.08)">
       <defs>
        <path id="ArialMT-35" d="M 266 1200 
L 856 1250 
Q 922 819 1161 601 
Q 1400 384 1738 384 
Q 2144 384 2425 690 
Q 2706 997 2706 1503 
Q 2706 1984 2436 2262 
Q 2166 2541 1728 2541 
Q 1456 2541 1237 2417 
Q 1019 2294 894 2097 
L 366 2166 
L 809 4519 
L 3088 4519 
L 3088 3981 
L 1259 3981 
L 1013 2750 
Q 1425 3038 1878 3038 
Q 2478 3038 2890 2622 
Q 3303 2206 3303 1553 
Q 3303 931 2941 478 
Q 2500 -78 1738 -78 
Q 1113 -78 717 272 
Q 322 622 266 1200 
z
" transform="scale(0.015625)"/>
       </defs>
       <use xlink:href="#ArialMT-30"/>
       <use xlink:href="#ArialMT-2e" transform="translate(55.615234 0)"/>
       <use xlink:href="#ArialMT-35" transform="translate(83.398438 0)"/>
      </g>
     </g>
    </g>
    <g id="ytick_3">
     <g id="line2d_6">
      <g>
       <use xlink:href="#mf006d1888d" x="38.048998" y="23.138807" style="stroke: #000000; stroke-width: 0.8"/>
      </g>
     </g>
     <g id="text_7">
      <!-- 1.0 -->
      <g transform="translate(19.928998 26.001932) scale(0.08 -0.08)">
       <defs>
        <path id="ArialMT-31" d="M 2384 0 
L 1822 0 
L 1822 3584 
Q 1619 3391 1289 3197 
Q 959 3003 697 2906 
L 697 3450 
Q 1169 3672 1522 3987 
Q 1875 4303 2022 4600 
L 2384 4600 
L 2384 0 
z
" transform="scale(0.015625)"/>
       </defs>
       <use xlink:href="#ArialMT-31"/>
       <use xlink:href="#ArialMT-2e" transform="translate(55.615234 0)"/>
       <use xlink:href="#ArialMT-30" transform="translate(83.398438 0)"/>
      </g>
     </g>
    </g>
    <g id="text_8">
     <!-- Proportion (CDF) -->
     <g transform="translate(14.245248 73.77625) rotate(-90) scale(0.08 -0.08)">
      <defs>
       <path id="ArialMT-50" d="M 494 0 
L 494 4581 
L 2222 4581 
Q 2678 4581 2919 4538 
Q 3256 4481 3484 4323 
Q 3713 4166 3852 3881 
Q 3991 3597 3991 3256 
Q 3991 2672 3619 2267 
Q 3247 1863 2275 1863 
L 1100 1863 
L 1100 0 
L 494 0 
z
M 1100 2403 
L 2284 2403 
Q 2872 2403 3119 2622 
Q 3366 2841 3366 3238 
Q 3366 3525 3220 3729 
Q 3075 3934 2838 4000 
Q 2684 4041 2272 4041 
L 1100 4041 
L 1100 2403 
z
" transform="scale(0.015625)"/>
       <path id="ArialMT-43" d="M 3763 1606 
L 4369 1453 
Q 4178 706 3683 314 
Q 3188 -78 2472 -78 
Q 1731 -78 1267 223 
Q 803 525 561 1097 
Q 319 1669 319 2325 
Q 319 3041 592 3573 
Q 866 4106 1370 4382 
Q 1875 4659 2481 4659 
Q 3169 4659 3637 4309 
Q 4106 3959 4291 3325 
L 3694 3184 
Q 3534 3684 3231 3912 
Q 2928 4141 2469 4141 
Q 1941 4141 1586 3887 
Q 1231 3634 1087 3207 
Q 944 2781 944 2328 
Q 944 1744 1114 1308 
Q 1284 872 1643 656 
Q 2003 441 2422 441 
Q 2931 441 3284 734 
Q 3638 1028 3763 1606 
z
" transform="scale(0.015625)"/>
       <path id="ArialMT-44" d="M 494 0 
L 494 4581 
L 2072 4581 
Q 2606 4581 2888 4516 
Q 3281 4425 3559 4188 
Q 3922 3881 4101 3404 
Q 4281 2928 4281 2316 
Q 4281 1794 4159 1391 
Q 4038 988 3847 723 
Q 3656 459 3429 307 
Q 3203 156 2883 78 
Q 2563 0 2147 0 
L 494 0 
z
M 1100 541 
L 2078 541 
Q 2531 541 2789 625 
Q 3047 709 3200 863 
Q 3416 1078 3536 1442 
Q 3656 1806 3656 2325 
Q 3656 3044 3420 3430 
Q 3184 3816 2847 3947 
Q 2603 4041 2063 4041 
L 1100 4041 
L 1100 541 
z
" transform="scale(0.015625)"/>
       <path id="ArialMT-46" d="M 525 0 
L 525 4581 
L 3616 4581 
L 3616 4041 
L 1131 4041 
L 1131 2622 
L 3281 2622 
L 3281 2081 
L 1131 2081 
L 1131 0 
L 525 0 
z
" transform="scale(0.015625)"/>
      </defs>
      <use xlink:href="#ArialMT-50"/>
      <use xlink:href="#ArialMT-72" transform="translate(66.699219 0)"/>
      <use xlink:href="#ArialMT-6f" transform="translate(100 0)"/>
      <use xlink:href="#ArialMT-70" transform="translate(155.615234 0)"/>
      <use xlink:href="#ArialMT-6f" transform="translate(211.230469 0)"/>
      <use xlink:href="#ArialMT-72" transform="translate(266.845703 0)"/>
      <use xlink:href="#ArialMT-74" transform="translate(300.146484 0)"/>
      <use xlink:href="#ArialMT-69" transform="translate(327.929688 0)"/>
      <use xlink:href="#ArialMT-6f" transform="translate(350.146484 0)"/>
      <use xlink:href="#ArialMT-6e" transform="translate(405.761719 0)"/>
      <use xlink:href="#ArialMT-20" transform="translate(461.376953 0)"/>
      <use xlink:href="#ArialMT-28" transform="translate(489.160156 0)"/>
      <use xlink:href="#ArialMT-43" transform="translate(522.460938 0)"/>
      <use xlink:href="#ArialMT-44" transform="translate(594.677734 0)"/>
      <use xlink:href="#ArialMT-46" transform="translate(666.894531 0)"/>
      <use xlink:href="#ArialMT-29" transform="translate(727.978516 0)"/>
     </g>
    </g>
   </g>
   <g id="line2d_7">
    <path d="M 45.141763 63.466713 
L 53.653082 63.338688 
L 53.871321 63.210663 
L 57.254025 62.954612 
L 57.363144 62.826587 
L 57.908741 62.698562 
L 59.654652 62.442512 
L 59.872892 62.314487 
L 65.110627 61.290286 
L 65.219747 60.778186 
L 66.529179 59.241885 
L 66.965657 58.985834 
L 67.074776 58.473734 
L 67.293015 58.089659 
L 67.402137 57.705583 
L 67.511256 57.449533 
L 67.620375 57.065458 
L 67.838614 56.681383 
L 67.947734 56.297307 
L 68.275092 56.169282 
L 68.384211 55.657182 
L 68.49333 55.401131 
L 68.60245 54.889031 
L 68.820689 54.632981 
L 68.929808 53.992855 
L 69.257166 53.736806 
L 69.366285 52.840629 
L 69.584524 52.456555 
L 69.693643 52.072479 
L 70.021002 51.560378 
L 70.130121 50.792228 
L 70.239243 50.536178 
L 70.348362 49.768028 
L 70.457482 49.511977 
L 70.566601 48.743826 
L 70.78484 48.359752 
L 70.893959 47.847651 
L 71.439556 47.0795 
L 71.548675 46.31135 
L 71.657795 46.055299 
L 71.766914 45.287149 
L 71.985153 45.031099 
L 72.094272 44.262948 
L 72.312511 43.878873 
L 72.312511 43.494798 
L 72.53075 43.238748 
L 72.639869 42.470597 
L 72.748988 42.214547 
L 72.858108 40.934295 
L 72.967227 40.678244 
L 73.076349 40.29417 
L 73.294588 39.910095 
L 73.403707 39.01392 
L 73.621946 38.629843 
L 73.731065 37.989719 
L 73.949304 37.605642 
L 74.058423 36.709467 
L 74.494901 36.325392 
L 74.60402 35.941318 
L 74.822259 35.685267 
L 74.931378 35.30119 
L 75.149617 34.917116 
L 75.258737 34.276991 
L 75.367856 34.020941 
L 75.476975 33.380814 
L 76.022575 32.612665 
L 76.131694 32.100564 
L 76.677291 31.332413 
L 76.677291 31.204389 
L 77.113768 30.820312 
L 77.222888 30.436237 
L 77.550246 30.308213 
L 77.550246 30.052163 
L 77.768485 29.796113 
L 77.877604 29.540062 
L 77.986723 29.284012 
L 78.53232 28.515861 
L 78.641442 28.25981 
L 78.750562 28.00376 
L 78.750562 27.875736 
L 79.187039 27.491659 
L 79.296158 27.235611 
L 79.514397 26.979561 
L 80.169113 26.083383 
L 80.278233 25.571285 
L 80.82383 25.443258 
L 80.82383 25.315234 
L 81.587668 24.803133 
L 81.696787 24.547083 
L 81.805904 24.419059 
L 82.569742 24.163008 
L 82.787981 23.906958 
L 83.551819 23.650908 
L 83.660936 23.522881 
L 90.317225 23.138807 
L 90.317225 23.138807 
" clip-path="url(#p230c3f06c1)" style="fill: none; stroke: #180c0a; stroke-width: 1.5; stroke-linecap: square"/>
   </g>
   <g id="line2d_8">
    <path d="M 45.141763 63.439734 
L 54.19868 63.284731 
L 54.635157 63.129727 
L 58.34522 62.81972 
L 58.34522 62.664717 
L 63.255595 62.509713 
L 64.346789 62.354709 
L 64.455909 62.199706 
L 65.983582 62.044702 
L 66.092702 61.889699 
L 67.074776 61.424688 
L 67.183895 61.114681 
L 67.293015 60.64967 
L 68.056853 60.494667 
L 68.056853 60.339663 
L 68.49333 60.184659 
L 68.60245 59.719649 
L 69.038927 58.944631 
L 69.038927 58.789627 
L 69.257166 58.634624 
L 69.366285 58.169613 
L 69.693643 57.549599 
L 69.802763 57.084588 
L 70.021002 56.619577 
L 70.130121 55.84456 
L 70.348362 55.534553 
L 70.67572 55.379549 
L 70.78484 54.759534 
L 71.439556 53.67451 
L 71.548675 52.589485 
L 71.876033 52.434481 
L 71.985153 51.50446 
L 72.203392 51.039449 
L 72.312511 50.264431 
L 72.53075 49.79942 
L 72.639869 49.489413 
L 73.185469 48.559392 
L 73.294588 47.784374 
L 73.731065 47.009356 
L 73.840185 46.079335 
L 74.385782 45.149313 
L 74.385782 44.529299 
L 74.60402 44.374296 
L 74.71314 43.754282 
L 75.149617 42.979264 
L 75.258737 42.204245 
L 75.476975 41.739236 
L 75.586095 41.274224 
L 75.695214 40.964217 
L 75.804336 40.344203 
L 76.459052 39.259177 
L 76.568172 38.794168 
L 76.89553 38.174154 
L 77.004649 37.24413 
L 77.441127 36.469114 
L 77.550246 36.004102 
L 78.423201 34.609072 
L 78.423201 34.299065 
L 78.641442 34.14406 
L 78.641442 33.989055 
L 78.859681 33.834053 
L 78.859681 33.679048 
L 79.187039 33.524046 
L 79.296158 33.214039 
L 79.405278 33.059034 
L 79.841755 32.749027 
L 79.950875 32.43902 
L 80.169113 31.974011 
L 80.278233 31.508999 
L 80.496472 31.353997 
L 80.496472 31.198992 
L 80.71471 31.04399 
L 80.82383 30.423973 
L 81.042068 29.958964 
L 81.151188 29.493952 
L 81.915026 28.408929 
L 82.678859 27.943917 
L 82.787981 27.63391 
L 83.224458 27.168901 
L 83.551819 27.013896 
L 83.660936 26.548884 
L 84.861252 25.618863 
L 84.970368 25.463861 
L 87.807477 24.378835 
L 88.025716 24.223833 
L 89.226032 23.913826 
L 98.719425 23.603819 
L 106.357786 23.138807 
L 106.357786 23.138807 
" clip-path="url(#p230c3f06c1)" style="fill: none; stroke: #371000; stroke-width: 1.5; stroke-linecap: square"/>
   </g>
   <g id="line2d_9">
    <path d="M 45.141763 63.408305 
L 57.799622 63.221872 
L 59.109055 63.035439 
L 66.856537 62.849006 
L 67.729495 62.662574 
L 67.947734 62.476141 
L 68.929808 62.103275 
L 69.257166 61.730409 
L 69.693643 61.543976 
L 69.911882 60.984678 
L 70.021002 60.611812 
L 70.348362 60.052513 
L 70.67572 59.866081 
L 70.67572 59.493215 
L 70.893959 59.306782 
L 71.003079 58.374618 
L 72.42163 55.764558 
L 72.42163 55.578125 
L 72.858108 55.205259 
L 72.967227 54.645961 
L 73.731065 53.154498 
L 73.840185 52.5952 
L 74.058423 52.0359 
L 74.058423 51.849468 
L 74.276662 51.663035 
L 74.385782 50.917303 
L 75.258737 49.239408 
L 75.367856 48.680108 
L 75.695214 48.307243 
L 75.804336 47.934378 
L 75.913455 47.561512 
L 76.459052 46.442915 
L 76.568172 45.883616 
L 77.113768 44.765018 
L 77.222888 44.392153 
L 77.332007 44.019288 
L 77.441127 43.646422 
L 77.659365 43.459988 
L 77.768485 42.714258 
L 78.9688 40.477062 
L 79.07792 40.104198 
L 79.405278 39.358465 
L 79.514397 38.4263 
L 79.732636 37.867002 
L 79.841755 37.494138 
L 80.932949 35.81624 
L 81.260307 35.443376 
L 81.369429 34.884078 
L 81.915026 33.765479 
L 82.024143 33.20618 
L 84.861252 28.358927 
L 85.188607 28.172495 
L 85.297729 27.799628 
L 85.515968 27.613196 
L 85.62509 27.24033 
L 85.734206 26.867464 
L 85.734206 26.681032 
L 86.170684 26.494597 
L 86.279806 26.308165 
L 87.698355 25.376 
L 89.11691 25.189568 
L 89.11691 25.003136 
L 89.44427 24.816702 
L 89.553387 24.443838 
L 89.771626 24.257404 
L 89.771626 24.070972 
L 89.989864 23.884537 
L 92.390496 23.511673 
L 102.320366 23.138807 
L 102.320366 23.138807 
" clip-path="url(#p230c3f06c1)" style="fill: none; stroke: #61200b; stroke-width: 1.5; stroke-linecap: square"/>
   </g>
   <g id="line2d_10">
    <path d="M 45.141763 63.364875 
L 69.584524 63.135011 
L 70.130121 62.445422 
L 70.78484 62.215558 
L 70.78484 61.985695 
L 71.112198 61.755832 
L 71.112198 61.296105 
L 71.439556 60.836379 
L 71.548675 60.376653 
L 72.53075 59.227336 
L 72.639869 58.76761 
L 72.967227 57.848157 
L 72.967227 57.618294 
L 73.949304 56.468977 
L 74.058423 56.009251 
L 74.385782 55.089798 
L 74.494901 54.170345 
L 74.822259 53.710618 
L 75.149617 53.250892 
L 75.804336 51.871713 
L 76.677291 51.64185 
L 77.004649 51.182122 
L 77.113768 50.492533 
L 77.441127 49.57308 
L 77.550246 49.113354 
L 77.768485 48.88349 
L 77.768485 48.653627 
L 78.095843 48.423764 
L 78.095843 48.193901 
L 78.423201 47.964038 
L 78.53232 47.50431 
L 78.859681 47.044584 
L 78.859681 46.584858 
L 79.187039 46.125131 
L 79.296158 45.665405 
L 79.405278 45.205678 
L 79.841755 44.975815 
L 79.950875 44.286226 
L 80.278233 43.826498 
L 80.82383 42.677183 
L 81.151188 42.44732 
L 81.151188 42.217457 
L 81.587668 41.757729 
L 81.696787 41.06814 
L 82.024143 40.608414 
L 82.133265 40.148688 
L 82.46062 39.229233 
L 82.46062 38.99937 
L 82.787981 38.769507 
L 82.897103 37.850055 
L 83.551819 37.160466 
L 83.551819 36.9306 
L 83.988297 36.470874 
L 84.097413 35.781285 
L 84.424774 35.321559 
L 84.533891 34.861833 
L 84.643013 34.172242 
L 85.188607 33.25279 
L 85.515968 33.022927 
L 85.62509 32.793064 
L 85.952445 32.563201 
L 85.952445 32.333337 
L 86.388923 32.103474 
L 86.498045 31.873609 
L 86.8254 31.643746 
L 87.916594 29.345113 
L 88.353077 29.11525 
L 88.898671 28.195798 
L 89.553387 27.736072 
L 89.553387 27.506209 
L 90.971941 26.816618 
L 92.281374 26.586755 
L 92.499613 26.356892 
L 92.499613 26.127029 
L 92.717851 25.897166 
L 94.354644 25.437439 
L 94.791122 24.977713 
L 97.191753 24.74785 
L 97.737348 24.517987 
L 98.064708 24.058259 
L 101.447411 23.598533 
L 101.447411 23.36867 
L 101.883889 23.138807 
L 101.883889 23.138807 
" clip-path="url(#p230c3f06c1)" style="fill: none; stroke: #964a36; stroke-width: 1.5; stroke-linecap: square"/>
   </g>
   <g id="line2d_11">
    <path d="M 45.141763 63.323222 
L 70.130121 63.051705 
L 71.657795 62.780189 
L 71.876033 62.508673 
L 71.985153 61.694124 
L 73.840185 59.521993 
L 74.276662 59.250477 
L 74.60402 58.707444 
L 74.71314 58.164412 
L 74.931378 57.349863 
L 74.931378 56.80683 
L 75.258737 56.535313 
L 75.367856 55.992281 
L 75.804336 54.634699 
L 76.568172 54.091667 
L 76.89553 53.820151 
L 76.89553 53.277118 
L 77.113768 53.005601 
L 77.113768 52.734086 
L 77.441127 52.191053 
L 78.314082 50.018922 
L 79.296158 49.475889 
L 79.405278 48.932856 
L 79.732636 48.389824 
L 79.732636 48.118308 
L 80.387352 47.575276 
L 80.496472 47.303759 
L 81.042068 46.760726 
L 81.369429 45.674661 
L 81.478548 45.131628 
L 81.805904 44.860112 
L 82.242381 44.045563 
L 82.569742 43.502531 
L 82.569742 43.231015 
L 83.115342 42.416464 
L 83.115342 42.14495 
L 83.660936 41.873433 
L 83.660936 41.601916 
L 83.879175 41.330399 
L 83.988297 40.244334 
L 84.424774 39.158269 
L 84.861252 38.886752 
L 84.861252 38.615238 
L 85.188607 38.072204 
L 85.297729 36.714622 
L 86.279806 33.99946 
L 86.8254 33.727944 
L 86.8254 33.18491 
L 87.480116 32.641878 
L 87.480116 32.370362 
L 88.025716 32.098845 
L 88.243955 31.827328 
L 88.243955 31.555813 
L 89.11691 30.741263 
L 89.44427 30.198231 
L 89.771626 29.926714 
L 89.771626 29.655198 
L 90.317225 29.383683 
L 90.317225 28.840649 
L 91.517541 28.297618 
L 92.390496 27.483067 
L 92.608735 26.940036 
L 92.93609 26.668519 
L 93.372568 25.853971 
L 93.699928 25.582454 
L 94.900244 25.310937 
L 95.55496 25.03942 
L 95.773199 24.767906 
L 96.427915 24.496389 
L 96.646154 24.224872 
L 97.628231 23.681841 
L 102.538605 23.138807 
L 102.538605 23.138807 
" clip-path="url(#p230c3f06c1)" style="fill: none; stroke: #ca7b71; stroke-width: 1.5; stroke-linecap: square"/>
   </g>
   <g id="line2d_12">
    <path d="M 45.141763 63.257605 
L 71.330437 62.920472 
L 72.53075 62.58334 
L 72.53075 62.246207 
L 72.858108 61.909074 
L 73.076349 61.571941 
L 73.294588 61.234809 
L 73.621946 60.897676 
L 73.621946 60.560543 
L 75.258737 60.22341 
L 75.367856 59.886277 
L 75.804336 59.549145 
L 76.131694 59.212012 
L 76.131694 58.874879 
L 76.240813 58.537747 
L 76.568172 58.200613 
L 76.677291 57.863481 
L 76.78641 57.526348 
L 76.78641 57.189216 
L 76.89553 56.852083 
L 76.89553 56.51495 
L 77.113768 56.177817 
L 77.986723 55.840685 
L 78.095843 55.503552 
L 78.095843 55.166419 
L 78.314082 54.829286 
L 78.423201 54.492154 
L 78.423201 54.155021 
L 78.53232 53.817888 
L 78.53232 53.480755 
L 78.859681 53.143623 
L 78.9688 52.806489 
L 79.07792 52.469357 
L 79.187039 52.132224 
L 79.405278 51.795092 
L 79.405278 51.457958 
L 79.623517 51.120826 
L 79.950875 50.783693 
L 80.71471 50.446561 
L 80.932949 50.109427 
L 81.369429 49.772295 
L 81.369429 49.435162 
L 81.478548 49.09803 
L 81.587668 48.760896 
L 81.587668 48.423764 
L 81.805904 48.086631 
L 82.024143 47.749498 
L 82.351503 47.412365 
L 82.569742 47.075233 
L 82.569742 46.7381 
L 82.678859 46.400967 
L 83.115342 46.063834 
L 83.224458 45.726702 
L 83.33358 45.389569 
L 83.551819 45.052436 
L 83.660936 44.715303 
L 84.206535 44.378171 
L 84.315652 44.041038 
L 84.424774 43.703905 
L 84.643013 43.366772 
L 84.643013 43.02964 
L 84.75213 42.692507 
L 84.970368 42.355375 
L 85.07949 42.01824 
L 85.07949 41.681108 
L 85.188607 41.343975 
L 85.62509 41.006843 
L 85.62509 40.66971 
L 85.62509 40.332578 
L 85.734206 39.995446 
L 85.952445 39.658313 
L 85.952445 39.321178 
L 86.061567 38.984046 
L 86.061567 38.646913 
L 86.170684 38.309781 
L 86.607161 37.972649 
L 87.043639 37.635516 
L 87.261878 37.298384 
L 87.371 36.961249 
L 87.698355 36.624116 
L 87.916594 36.286984 
L 88.025716 35.949852 
L 88.134833 35.612719 
L 88.134833 35.275587 
L 88.353077 34.938454 
L 88.898671 34.601322 
L 89.007793 34.264187 
L 89.007793 33.927054 
L 89.11691 33.589922 
L 89.226032 33.25279 
L 89.335148 32.915657 
L 89.989864 32.578525 
L 90.208103 32.241392 
L 90.317225 31.904257 
L 90.317225 31.567125 
L 90.644581 31.229993 
L 91.517541 30.89286 
L 91.626658 30.555728 
L 91.954018 30.218595 
L 92.172257 29.881463 
L 92.281374 29.54433 
L 92.608735 29.207196 
L 92.93609 28.870063 
L 93.045212 28.532931 
L 93.48169 28.195798 
L 93.809045 27.858666 
L 93.918167 27.521533 
L 94.027289 27.184401 
L 94.463766 26.847266 
L 94.682005 26.510134 
L 95.009361 26.173001 
L 96.100554 25.835869 
L 96.864393 25.498736 
L 97.30087 25.161604 
L 98.828541 24.824471 
L 99.701501 24.487339 
L 100.683573 24.150204 
L 102.320366 23.813072 
L 103.848037 23.475939 
L 108.540178 23.138807 
" clip-path="url(#p230c3f06c1)" style="fill: none; stroke: #ffadad; stroke-width: 1.5; stroke-linecap: square"/>
   </g>
   <g id="patch_6">
    <path d="M 38.048998 65.53375 
L 38.048998 21.12 
" style="fill: none; stroke: #000000; stroke-width: 0.8; stroke-linejoin: miter; stroke-linecap: square"/>
   </g>
   <g id="patch_7">
    <path d="M 103.520682 65.53375 
L 103.520682 21.12 
" style="fill: none; stroke: #000000; stroke-width: 0.8; stroke-linejoin: miter; stroke-linecap: square"/>
   </g>
   <g id="patch_8">
    <path d="M 38.048998 65.53375 
L 103.520682 65.53375 
" style="fill: none; stroke: #000000; stroke-width: 0.8; stroke-linejoin: miter; stroke-linecap: square"/>
   </g>
   <g id="patch_9">
    <path d="M 38.048998 21.12 
L 103.520682 21.12 
" style="fill: none; stroke: #000000; stroke-width: 0.8; stroke-linejoin: miter; stroke-linecap: square"/>
   </g>
   <g id="text_9">
    <!-- inh. dSPN -->
    <g transform="translate(49.17359 15.12) scale(0.096 -0.096)">
     <defs>
      <path id="ArialMT-68" d="M 422 0 
L 422 4581 
L 984 4581 
L 984 2938 
Q 1378 3394 1978 3394 
Q 2347 3394 2619 3248 
Q 2891 3103 3008 2847 
Q 3125 2591 3125 2103 
L 3125 0 
L 2563 0 
L 2563 2103 
Q 2563 2525 2380 2717 
Q 2197 2909 1863 2909 
Q 1613 2909 1392 2779 
Q 1172 2650 1078 2428 
Q 984 2206 984 1816 
L 984 0 
L 422 0 
z
" transform="scale(0.015625)"/>
      <path id="ArialMT-64" d="M 2575 0 
L 2575 419 
Q 2259 -75 1647 -75 
Q 1250 -75 917 144 
Q 584 363 401 755 
Q 219 1147 219 1656 
Q 219 2153 384 2558 
Q 550 2963 881 3178 
Q 1213 3394 1622 3394 
Q 1922 3394 2156 3267 
Q 2391 3141 2538 2938 
L 2538 4581 
L 3097 4581 
L 3097 0 
L 2575 0 
z
M 797 1656 
Q 797 1019 1065 703 
Q 1334 388 1700 388 
Q 2069 388 2326 689 
Q 2584 991 2584 1609 
Q 2584 2291 2321 2609 
Q 2059 2928 1675 2928 
Q 1300 2928 1048 2622 
Q 797 2316 797 1656 
z
" transform="scale(0.015625)"/>
      <path id="ArialMT-53" d="M 288 1472 
L 859 1522 
Q 900 1178 1048 958 
Q 1197 738 1509 602 
Q 1822 466 2213 466 
Q 2559 466 2825 569 
Q 3091 672 3220 851 
Q 3350 1031 3350 1244 
Q 3350 1459 3225 1620 
Q 3100 1781 2813 1891 
Q 2628 1963 1997 2114 
Q 1366 2266 1113 2400 
Q 784 2572 623 2826 
Q 463 3081 463 3397 
Q 463 3744 659 4045 
Q 856 4347 1234 4503 
Q 1613 4659 2075 4659 
Q 2584 4659 2973 4495 
Q 3363 4331 3572 4012 
Q 3781 3694 3797 3291 
L 3216 3247 
Q 3169 3681 2898 3903 
Q 2628 4125 2100 4125 
Q 1550 4125 1298 3923 
Q 1047 3722 1047 3438 
Q 1047 3191 1225 3031 
Q 1400 2872 2139 2705 
Q 2878 2538 3153 2413 
Q 3553 2228 3743 1945 
Q 3934 1663 3934 1294 
Q 3934 928 3725 604 
Q 3516 281 3123 101 
Q 2731 -78 2241 -78 
Q 1619 -78 1198 103 
Q 778 284 539 648 
Q 300 1013 288 1472 
z
" transform="scale(0.015625)"/>
      <path id="ArialMT-4e" d="M 488 0 
L 488 4581 
L 1109 4581 
L 3516 984 
L 3516 4581 
L 4097 4581 
L 4097 0 
L 3475 0 
L 1069 3600 
L 1069 0 
L 488 0 
z
" transform="scale(0.015625)"/>
     </defs>
     <use xlink:href="#ArialMT-69"/>
     <use xlink:href="#ArialMT-6e" transform="translate(22.216797 0)"/>
     <use xlink:href="#ArialMT-68" transform="translate(77.832031 0)"/>
     <use xlink:href="#ArialMT-2e" transform="translate(133.447266 0)"/>
     <use xlink:href="#ArialMT-20" transform="translate(161.230469 0)"/>
     <use xlink:href="#ArialMT-64" transform="translate(189.013672 0)"/>
     <use xlink:href="#ArialMT-53" transform="translate(244.628906 0)"/>
     <use xlink:href="#ArialMT-50" transform="translate(311.328125 0)"/>
     <use xlink:href="#ArialMT-4e" transform="translate(378.027344 0)"/>
    </g>
   </g>
  </g>
  <g id="axes_2">
   <g id="patch_10">
    <path d="M 117.837555 65.53375 
L 183.309239 65.53375 
L 183.309239 21.12 
L 117.837555 21.12 
z
" style="fill: #ffffff"/>
   </g>
   <g id="patch_11">
    <path d="M 150.573397 65.53375 
L 183.309239 65.53375 
L 183.309239 21.12 
L 150.573397 21.12 
z
" clip-path="url(#pd9d277505e)" style="fill: #008000; opacity: 0.2; stroke: #008000; stroke-linejoin: miter"/>
   </g>
   <g id="patch_12">
    <path d="M 128.749502 65.53375 
L 147.84541 65.53375 
L 147.84541 21.12 
L 128.749502 21.12 
z
" clip-path="url(#pd9d277505e)" style="fill: #0000ff; opacity: 0.2; stroke: #0000ff; stroke-linejoin: miter"/>
   </g>
   <g id="patch_13">
    <path d="M 117.837555 65.53375 
L 118.928749 65.53375 
L 118.928749 21.12 
L 117.837555 21.12 
z
" clip-path="url(#pd9d277505e)" style="fill: #ff0000; opacity: 0.2; stroke: #ff0000; stroke-linejoin: miter"/>
   </g>
   <g id="matplotlib.axis_3">
    <g id="xtick_4">
     <g id="line2d_13">
      <g>
       <use xlink:href="#mb9ab1c25f7" x="117.837555" y="65.53375" style="stroke: #000000; stroke-width: 0.8"/>
      </g>
     </g>
     <g id="text_10">
      <!-- 0 -->
      <g transform="translate(115.61318 78.26) scale(0.08 -0.08)">
       <use xlink:href="#ArialMT-30"/>
      </g>
     </g>
    </g>
    <g id="xtick_5">
     <g id="line2d_14">
      <g>
       <use xlink:href="#mb9ab1c25f7" x="150.573397" y="65.53375" style="stroke: #000000; stroke-width: 0.8"/>
      </g>
     </g>
     <g id="text_11">
      <!-- 3 -->
      <g transform="translate(148.349022 78.26) scale(0.08 -0.08)">
       <use xlink:href="#ArialMT-33"/>
      </g>
     </g>
    </g>
    <g id="xtick_6">
     <g id="line2d_15">
      <g>
       <use xlink:href="#mb9ab1c25f7" x="183.309239" y="65.53375" style="stroke: #000000; stroke-width: 0.8"/>
      </g>
     </g>
     <g id="text_12">
      <!-- 6 -->
      <g transform="translate(181.084864 78.26) scale(0.08 -0.08)">
       <use xlink:href="#ArialMT-36"/>
      </g>
     </g>
    </g>
   </g>
   <g id="matplotlib.axis_4">
    <g id="ytick_4">
     <g id="line2d_16">
      <g>
       <use xlink:href="#mf006d1888d" x="117.837555" y="63.594738" style="stroke: #000000; stroke-width: 0.8"/>
      </g>
     </g>
    </g>
    <g id="ytick_5">
     <g id="line2d_17">
      <g>
       <use xlink:href="#mf006d1888d" x="117.837555" y="43.366772" style="stroke: #000000; stroke-width: 0.8"/>
      </g>
     </g>
    </g>
    <g id="ytick_6">
     <g id="line2d_18">
      <g>
       <use xlink:href="#mf006d1888d" x="117.837555" y="23.138807" style="stroke: #000000; stroke-width: 0.8"/>
      </g>
     </g>
    </g>
   </g>
   <g id="line2d_19">
    <path d="M 124.93032 63.466713 
L 133.441639 63.338688 
L 133.659877 63.210663 
L 137.042582 62.954612 
L 137.151701 62.826587 
L 137.697298 62.698562 
L 139.443209 62.442512 
L 139.661449 62.314487 
L 144.899184 61.290286 
L 145.008304 60.778186 
L 146.317736 59.241885 
L 146.754214 58.985834 
L 146.863333 58.473734 
L 147.081572 58.089659 
L 147.190694 57.705583 
L 147.299813 57.449533 
L 147.408932 57.065458 
L 147.627171 56.681383 
L 147.736291 56.297307 
L 148.063649 56.169282 
L 148.172768 55.657182 
L 148.281887 55.401131 
L 148.391007 54.889031 
L 148.609245 54.632981 
L 148.718365 53.992855 
L 149.045723 53.736806 
L 149.154842 52.840629 
L 149.373081 52.456555 
L 149.4822 52.072479 
L 149.809559 51.560378 
L 149.918678 50.792228 
L 150.0278 50.536178 
L 150.136919 49.768028 
L 150.246039 49.511977 
L 150.355158 48.743826 
L 150.573397 48.359752 
L 150.682516 47.847651 
L 151.228113 47.0795 
L 151.337232 46.31135 
L 151.446352 46.055299 
L 151.555471 45.287149 
L 151.77371 45.031099 
L 151.882829 44.262948 
L 152.101068 43.878873 
L 152.101068 43.494798 
L 152.319307 43.238748 
L 152.428426 42.470597 
L 152.537545 42.214547 
L 152.646665 40.934295 
L 152.755784 40.678244 
L 152.864906 40.29417 
L 153.083145 39.910095 
L 153.192264 39.01392 
L 153.410503 38.629843 
L 153.519622 37.989719 
L 153.737861 37.605642 
L 153.84698 36.709467 
L 154.283458 36.325392 
L 154.392577 35.941318 
L 154.610816 35.685267 
L 154.719935 35.30119 
L 154.938174 34.917116 
L 155.047294 34.276991 
L 155.156413 34.020941 
L 155.265532 33.380814 
L 155.811132 32.612665 
L 155.920251 32.100564 
L 156.465848 31.332413 
L 156.465848 31.204389 
L 156.902325 30.820312 
L 157.011445 30.436237 
L 157.338803 30.308213 
L 157.338803 30.052163 
L 157.557042 29.796113 
L 157.666161 29.540062 
L 157.77528 29.284012 
L 158.320877 28.515861 
L 158.429999 28.25981 
L 158.539119 28.00376 
L 158.539119 27.875736 
L 158.975596 27.491659 
L 159.084715 27.235611 
L 159.302954 26.979561 
L 159.95767 26.083383 
L 160.06679 25.571285 
L 160.612387 25.443258 
L 160.612387 25.315234 
L 161.376225 24.803133 
L 161.485344 24.547083 
L 161.594461 24.419059 
L 162.358299 24.163008 
L 162.576538 23.906958 
L 163.340376 23.650908 
L 163.449493 23.522881 
L 170.105782 23.138807 
L 170.105782 23.138807 
" clip-path="url(#pd9d277505e)" style="fill: none; stroke: #180c0a; stroke-width: 1.5; stroke-linecap: square"/>
   </g>
   <g id="line2d_20">
    <path d="M 124.93032 63.496065 
L 132.896042 63.298719 
L 133.114281 63.200046 
L 135.624029 62.904027 
L 138.897612 62.213316 
L 139.33409 62.01597 
L 139.33409 61.917297 
L 141.516479 61.325259 
L 141.843839 61.226586 
L 142.716794 61.02924 
L 142.935033 60.831894 
L 143.044152 60.437202 
L 143.48063 60.239856 
L 143.698869 59.943837 
L 143.807988 59.647818 
L 144.026227 59.351799 
L 144.026227 58.957107 
L 144.244465 58.759761 
L 144.353585 58.365069 
L 144.462707 58.167723 
L 144.571826 57.773031 
L 144.790065 57.575684 
L 144.899184 57.279666 
L 145.008304 57.08232 
L 145.117423 56.687628 
L 145.335662 56.391609 
L 145.444781 56.09559 
L 145.772139 55.700898 
L 145.881259 54.615495 
L 146.099497 54.319475 
L 146.208617 53.727437 
L 146.317736 53.530092 
L 146.426855 52.444688 
L 146.645094 52.247343 
L 146.754214 51.753978 
L 146.972452 51.457958 
L 147.081572 50.865921 
L 147.299813 50.569902 
L 147.408932 49.977863 
L 147.627171 49.681845 
L 147.736291 49.089807 
L 147.954529 48.793787 
L 148.063649 48.004404 
L 148.172768 47.807058 
L 148.281887 46.721655 
L 148.391007 46.524308 
L 148.500126 45.734925 
L 148.609245 45.537579 
L 148.718365 44.846867 
L 148.827484 44.649521 
L 148.936604 43.761464 
L 149.045723 43.564118 
L 149.154842 43.169427 
L 149.263962 42.972081 
L 149.373081 42.774735 
L 149.700439 42.380043 
L 149.809559 41.590658 
L 150.0278 41.294639 
L 150.136919 40.406583 
L 150.246039 40.209237 
L 150.355158 39.617199 
L 150.464277 39.419851 
L 150.573397 38.926487 
L 150.682516 38.729141 
L 150.791635 38.137103 
L 151.009874 37.939758 
L 151.118994 36.953026 
L 151.228113 36.75568 
L 151.337232 36.262316 
L 151.446352 36.06497 
L 151.555471 35.472932 
L 151.77371 35.275587 
L 151.882829 34.782222 
L 152.210187 34.387528 
L 152.210187 34.288855 
L 152.428426 34.091509 
L 152.537545 33.795491 
L 152.755784 33.499472 
L 152.864906 33.10478 
L 153.192264 32.907434 
L 153.301384 32.512743 
L 153.737861 32.019378 
L 153.84698 31.82203 
L 154.065219 31.526011 
L 154.065219 31.229993 
L 154.283458 31.032647 
L 154.392577 30.835301 
L 154.501697 30.637955 
L 154.938174 30.144591 
L 155.047294 29.651226 
L 155.156413 29.453878 
L 155.265532 29.256532 
L 155.374652 29.059186 
L 155.483771 28.86184 
L 155.702012 28.565822 
L 155.702012 28.467149 
L 156.356729 28.072457 
L 156.465848 27.875111 
L 156.574967 27.579093 
L 157.011445 27.085728 
L 157.120564 26.691034 
L 157.338803 26.395015 
L 157.447922 26.197669 
L 157.557042 26.000324 
L 157.557042 25.901651 
L 158.211758 25.506959 
L 158.429999 25.21094 
L 158.539119 25.013594 
L 158.866477 24.717576 
L 159.302954 24.52023 
L 159.302954 24.421557 
L 160.721506 23.730844 
L 164.104209 23.434826 
L 166.50484 23.23748 
L 180.363013 23.138807 
L 180.363013 23.138807 
" clip-path="url(#pd9d277505e)" style="fill: none; stroke: #260d01; stroke-width: 1.5; stroke-linecap: square"/>
   </g>
   <g id="line2d_21">
    <path d="M 124.93032 63.50736 
L 131.695728 63.332604 
L 131.913966 63.157849 
L 134.314595 62.983093 
L 134.641953 62.808338 
L 134.641953 62.72096 
L 136.715224 62.458826 
L 136.715224 62.371448 
L 137.151701 62.196693 
L 138.679374 61.934559 
L 138.788493 61.672426 
L 139.879688 61.49767 
L 140.097927 61.322915 
L 140.861762 61.148159 
L 141.189121 60.798648 
L 141.189121 60.71127 
L 141.73472 60.536514 
L 141.843839 60.361758 
L 142.171197 60.012247 
L 142.280317 59.48798 
L 142.389436 59.313225 
L 142.498556 59.051091 
L 142.607675 58.876336 
L 142.716794 58.439447 
L 142.935033 58.264691 
L 143.044152 58.089935 
L 143.153272 57.915179 
L 143.262391 57.740424 
L 143.371511 57.565668 
L 143.48063 57.390913 
L 143.589749 56.517134 
L 143.698869 56.342379 
L 143.807988 55.90549 
L 143.917107 55.730734 
L 144.026227 55.11909 
L 144.244465 54.856956 
L 144.353585 54.070555 
L 144.462707 53.8958 
L 144.571826 53.109399 
L 144.680946 52.934643 
L 144.790065 52.67251 
L 144.899184 52.497755 
L 145.008304 51.798732 
L 145.117423 51.623977 
L 145.226542 50.66282 
L 145.335662 50.488065 
L 145.444781 49.43953 
L 145.553901 49.264775 
L 145.66302 48.478375 
L 145.772139 48.303619 
L 145.881259 47.167707 
L 145.990378 46.992952 
L 146.099497 46.468685 
L 146.208617 46.293929 
L 146.317736 45.420151 
L 146.426855 45.245395 
L 146.535975 44.371617 
L 146.645094 44.196862 
L 146.754214 43.410461 
L 146.863333 43.235705 
L 146.972452 42.449305 
L 147.081572 42.274549 
L 147.190694 40.963882 
L 147.299813 40.789126 
L 147.408932 39.827972 
L 147.518052 39.653216 
L 147.627171 38.779437 
L 147.736291 38.604681 
L 147.84541 37.993037 
L 147.954529 37.81828 
L 148.063649 37.294014 
L 148.172768 37.119258 
L 148.281887 36.594992 
L 148.500126 36.332858 
L 148.609245 35.721213 
L 148.936604 35.371701 
L 149.045723 34.760057 
L 149.154842 34.585301 
L 149.263962 34.061035 
L 149.918678 33.44939 
L 150.0278 33.274634 
L 150.246039 33.0125 
L 150.355158 32.051346 
L 150.464277 31.876589 
L 150.573397 31.527077 
L 150.900755 31.177567 
L 151.009874 30.915433 
L 151.337232 30.740677 
L 151.446352 30.391167 
L 151.555471 30.216411 
L 151.66459 29.866898 
L 151.77371 29.77952 
L 152.101068 29.604766 
L 152.210187 29.342632 
L 152.319307 29.167876 
L 152.428426 28.730988 
L 154.501697 26.983431 
L 154.610816 26.633921 
L 154.829055 26.371787 
L 155.265532 26.19703 
L 155.374652 26.022274 
L 155.920251 25.498008 
L 156.02937 25.235874 
L 157.338803 24.62423 
L 157.8844 24.187342 
L 158.757357 23.925207 
L 158.975596 23.837829 
L 161.267105 23.663073 
L 163.88597 23.488319 
L 164.540687 23.400941 
L 176.871188 23.138807 
L 176.871188 23.138807 
" clip-path="url(#pd9d277505e)" style="fill: none; stroke: #371000; stroke-width: 1.5; stroke-linecap: square"/>
   </g>
   <g id="line2d_22">
    <path d="M 124.93032 63.511324 
L 131.25925 63.344495 
L 131.368369 63.261081 
L 131.804847 63.177666 
L 133.2234 63.010838 
L 136.496984 62.093281 
L 136.496984 62.009866 
L 137.36994 61.759623 
L 137.479059 61.676209 
L 138.024656 61.509381 
L 138.133777 61.425966 
L 138.897612 61.259138 
L 139.115851 61.092309 
L 139.224971 61.008895 
L 140.207046 60.758652 
L 140.316166 60.34158 
L 140.534404 60.174752 
L 140.643524 59.841095 
L 140.861762 59.674266 
L 140.970882 59.340609 
L 141.29824 59.006952 
L 141.407359 58.506466 
L 141.625601 58.256223 
L 141.73472 57.922566 
L 141.952959 57.672323 
L 142.062078 57.088423 
L 142.171197 56.921595 
L 142.280317 56.170866 
L 142.498556 55.920623 
L 142.607675 55.003066 
L 142.716794 54.836237 
L 142.825914 53.33478 
L 142.935033 53.167952 
L 143.044152 52.667466 
L 143.153272 52.500637 
L 143.262391 52.083565 
L 143.48063 51.833323 
L 143.589749 50.99918 
L 143.698869 50.832351 
L 143.807988 49.83138 
L 143.917107 49.664551 
L 144.026227 48.997237 
L 144.135346 48.830409 
L 144.244465 48.163094 
L 144.353585 47.996266 
L 144.462707 46.411393 
L 144.571826 46.244566 
L 144.680946 45.076765 
L 144.790065 44.909936 
L 144.899184 43.742137 
L 145.008304 43.575308 
L 145.117423 42.574336 
L 145.226542 42.407509 
L 145.335662 40.989464 
L 145.444781 40.822637 
L 145.553901 39.90508 
L 145.66302 39.73825 
L 145.772139 39.154351 
L 145.881259 38.987523 
L 145.990378 37.98655 
L 146.099497 37.819722 
L 146.208617 37.152407 
L 146.317736 36.985579 
L 146.426855 35.650951 
L 146.535975 35.484121 
L 146.645094 34.900222 
L 146.754214 34.733394 
L 146.863333 34.232907 
L 146.972452 34.066079 
L 147.081572 33.649008 
L 147.190694 33.48218 
L 147.299813 32.314379 
L 147.408932 32.147549 
L 147.518052 31.647064 
L 147.627171 31.480236 
L 147.736291 30.896335 
L 147.84541 30.729507 
L 147.954529 30.145608 
L 148.172768 29.895364 
L 148.281887 29.311465 
L 148.609245 29.144635 
L 148.718365 28.977808 
L 149.045723 28.64415 
L 149.154842 28.393906 
L 150.464277 27.309522 
L 150.573397 27.059278 
L 151.555471 26.89245 
L 151.66459 26.475379 
L 152.319307 25.89148 
L 152.319307 25.72465 
L 153.192264 25.307578 
L 153.301384 25.057337 
L 153.628742 24.807093 
L 154.501697 24.556849 
L 154.829055 24.223194 
L 155.374652 24.056364 
L 155.374652 23.97295 
L 155.920251 23.806122 
L 156.902325 23.639292 
L 158.320877 23.389051 
L 160.939745 23.222221 
L 163.122137 23.138807 
L 163.122137 23.138807 
" clip-path="url(#pd9d277505e)" style="fill: none; stroke: #4a1502; stroke-width: 1.5; stroke-linecap: square"/>
   </g>
   <g id="line2d_23">
    <path d="M 124.93032 63.514148 
L 130.931891 63.352969 
L 131.04101 63.27238 
L 133.441639 62.788843 
L 133.441639 62.708253 
L 133.768997 62.547074 
L 134.532834 62.385895 
L 134.641953 62.305306 
L 135.40579 62.063537 
L 135.514909 61.902358 
L 135.733148 61.821769 
L 136.606103 61.66059 
L 136.933462 61.418821 
L 137.697298 61.177053 
L 138.352016 60.854695 
L 138.352016 60.774105 
L 139.006732 60.612926 
L 139.443209 60.209979 
L 139.55233 59.887621 
L 139.879688 59.565263 
L 139.879688 59.162315 
L 140.097927 59.001136 
L 140.207046 58.839957 
L 140.316166 58.517599 
L 140.425285 58.35642 
L 140.534404 57.872883 
L 140.752643 57.711704 
L 140.861762 57.066988 
L 140.970882 56.905809 
L 141.080001 56.583451 
L 141.29824 56.341682 
L 141.407359 55.294019 
L 141.516479 55.13284 
L 141.625601 54.488124 
L 141.73472 54.326945 
L 141.843839 53.118102 
L 141.952959 52.956923 
L 142.062078 51.90926 
L 142.171197 51.748081 
L 142.280317 50.539238 
L 142.389436 50.378059 
L 142.498556 49.733343 
L 142.607675 49.572164 
L 142.716794 48.766269 
L 142.825914 48.60509 
L 142.935033 47.879785 
L 143.044152 47.718606 
L 143.153272 46.509763 
L 143.262391 46.348584 
L 143.371511 45.139742 
L 143.48063 44.978563 
L 143.589749 43.447361 
L 143.698869 43.286182 
L 143.807988 41.674392 
L 144.026227 41.432624 
L 144.135346 40.223782 
L 144.244465 40.062602 
L 144.353585 38.93435 
L 144.462707 38.77317 
L 144.571826 38.128454 
L 144.680946 37.967276 
L 144.790065 37.000202 
L 144.899184 36.839022 
L 145.008304 35.952538 
L 145.226542 35.71077 
L 145.335662 34.501928 
L 145.444781 34.340748 
L 145.553901 33.454264 
L 145.772139 33.212496 
L 145.881259 32.406599 
L 145.990378 32.245422 
L 146.099497 31.681293 
L 146.208617 31.520116 
L 146.317736 30.794809 
L 146.426855 30.633632 
L 146.535975 30.069503 
L 146.645094 29.908325 
L 146.754214 29.344199 
L 146.972452 29.102429 
L 147.081572 28.538303 
L 147.299813 28.296535 
L 147.408932 27.893587 
L 147.518052 27.732409 
L 147.627171 27.168281 
L 147.736291 27.007103 
L 147.84541 26.523565 
L 147.954529 26.362387 
L 148.063649 26.201207 
L 148.281887 25.959439 
L 148.281887 25.878849 
L 148.718365 25.637081 
L 148.936604 25.395313 
L 148.936604 25.314723 
L 149.154842 25.234133 
L 149.809559 25.072955 
L 150.355158 24.670007 
L 151.009874 24.428239 
L 151.228113 24.267059 
L 151.991949 24.025291 
L 151.991949 23.944701 
L 153.9561 23.461165 
L 156.574967 23.219397 
L 159.302954 23.138807 
L 159.302954 23.138807 
" clip-path="url(#pd9d277505e)" style="fill: none; stroke: #61200b; stroke-width: 1.5; stroke-linecap: square"/>
   </g>
   <g id="line2d_24">
    <path d="M 124.93032 63.514943 
L 130.713652 63.355354 
L 130.822771 63.275559 
L 131.695728 63.036175 
L 134.314595 62.158433 
L 135.18755 61.839254 
L 135.40579 61.759459 
L 136.060506 61.59987 
L 136.387864 61.280691 
L 137.042582 61.121101 
L 137.042582 61.041306 
L 137.479059 60.881717 
L 137.479059 60.801922 
L 138.024656 60.642333 
L 138.242896 60.402948 
L 138.352016 60.163564 
L 138.461135 60.003975 
L 138.461135 59.844385 
L 138.897612 59.605001 
L 139.006732 59.285822 
L 139.224971 59.046438 
L 139.33409 58.727259 
L 139.55233 58.487875 
L 139.661449 58.088901 
L 139.770569 57.929312 
L 139.879688 57.530338 
L 139.988807 57.370748 
L 140.097927 56.812185 
L 140.207046 56.652596 
L 140.316166 55.934443 
L 140.425285 55.774854 
L 140.534404 55.056701 
L 140.643524 54.897112 
L 140.752643 53.939575 
L 140.861762 53.779985 
L 140.970882 52.662859 
L 141.080001 52.50327 
L 141.189121 51.625527 
L 141.29824 51.465939 
L 141.407359 50.348811 
L 141.516479 50.189223 
L 141.625601 49.630659 
L 141.73472 49.47107 
L 141.843839 48.034764 
L 141.952959 47.875175 
L 142.062078 46.43887 
L 142.171197 46.27928 
L 142.280317 45.08236 
L 142.389436 44.92277 
L 142.498556 43.725848 
L 142.607675 43.566259 
L 142.716794 42.289542 
L 142.825914 42.129954 
L 142.935033 40.534059 
L 143.044152 40.374471 
L 143.153272 39.177548 
L 143.262391 39.017959 
L 143.371511 37.821039 
L 143.48063 37.661448 
L 143.589749 36.863502 
L 143.698869 36.703911 
L 143.807988 35.746376 
L 143.917107 35.586785 
L 144.026227 34.389865 
L 144.135346 34.230276 
L 144.244465 33.432328 
L 144.462707 33.192944 
L 144.571826 32.47479 
L 144.680946 32.315202 
L 144.790065 31.437459 
L 144.899184 31.27787 
L 145.008304 30.639513 
L 145.117423 30.479922 
L 145.226542 29.921359 
L 145.335662 29.76177 
L 145.444781 28.884027 
L 145.553901 28.724439 
L 145.66302 28.325464 
L 145.772139 28.165876 
L 145.881259 27.607313 
L 145.990378 27.447722 
L 146.099497 27.04875 
L 146.317736 26.809364 
L 146.426855 26.091213 
L 146.535975 25.931621 
L 146.645094 25.772033 
L 146.863333 25.53265 
L 146.863333 25.293264 
L 147.081572 25.133675 
L 147.190694 24.974087 
L 147.299813 24.654907 
L 147.408932 24.495318 
L 147.518052 24.176138 
L 147.84541 23.936755 
L 149.045723 23.69737 
L 149.4822 23.537781 
L 154.501697 23.138807 
L 154.501697 23.138807 
" clip-path="url(#pd9d277505e)" style="fill: none; stroke: #7b321c; stroke-width: 1.5; stroke-linecap: square"/>
   </g>
   <g id="patch_14">
    <path d="M 117.837555 65.53375 
L 117.837555 21.12 
" style="fill: none; stroke: #000000; stroke-width: 0.8; stroke-linejoin: miter; stroke-linecap: square"/>
   </g>
   <g id="patch_15">
    <path d="M 183.309239 65.53375 
L 183.309239 21.12 
" style="fill: none; stroke: #000000; stroke-width: 0.8; stroke-linejoin: miter; stroke-linecap: square"/>
   </g>
   <g id="patch_16">
    <path d="M 117.837555 65.53375 
L 183.309239 65.53375 
" style="fill: none; stroke: #000000; stroke-width: 0.8; stroke-linejoin: miter; stroke-linecap: square"/>
   </g>
   <g id="patch_17">
    <path d="M 117.837555 21.12 
L 183.309239 21.12 
" style="fill: none; stroke: #000000; stroke-width: 0.8; stroke-linejoin: miter; stroke-linecap: square"/>
   </g>
   <g id="text_13">
    <!-- inh. iSPN -->
    <g transform="translate(130.564897 15.12) scale(0.096 -0.096)">
     <use xlink:href="#ArialMT-69"/>
     <use xlink:href="#ArialMT-6e" transform="translate(22.216797 0)"/>
     <use xlink:href="#ArialMT-68" transform="translate(77.832031 0)"/>
     <use xlink:href="#ArialMT-2e" transform="translate(133.447266 0)"/>
     <use xlink:href="#ArialMT-20" transform="translate(161.230469 0)"/>
     <use xlink:href="#ArialMT-69" transform="translate(189.013672 0)"/>
     <use xlink:href="#ArialMT-53" transform="translate(211.230469 0)"/>
     <use xlink:href="#ArialMT-50" transform="translate(277.929688 0)"/>
     <use xlink:href="#ArialMT-4e" transform="translate(344.628906 0)"/>
    </g>
   </g>
  </g>
  <g id="axes_3">
   <g id="patch_18">
    <path d="M 197.626112 65.53375 
L 263.097796 65.53375 
L 263.097796 21.12 
L 197.626112 21.12 
z
" style="fill: #ffffff"/>
   </g>
   <g id="patch_19">
    <path d="M 230.361954 65.53375 
L 263.097796 65.53375 
L 263.097796 21.12 
L 230.361954 21.12 
z
" clip-path="url(#pe9b63bccf1)" style="fill: #008000; opacity: 0.2; stroke: #008000; stroke-linejoin: miter"/>
   </g>
   <g id="patch_20">
    <path d="M 208.538059 65.53375 
L 227.633967 65.53375 
L 227.633967 21.12 
L 208.538059 21.12 
z
" clip-path="url(#pe9b63bccf1)" style="fill: #0000ff; opacity: 0.2; stroke: #0000ff; stroke-linejoin: miter"/>
   </g>
   <g id="patch_21">
    <path d="M 197.626112 65.53375 
L 198.717306 65.53375 
L 198.717306 21.12 
L 197.626112 21.12 
z
" clip-path="url(#pe9b63bccf1)" style="fill: #ff0000; opacity: 0.2; stroke: #ff0000; stroke-linejoin: miter"/>
   </g>
   <g id="matplotlib.axis_5">
    <g id="xtick_7">
     <g id="line2d_25">
      <g>
       <use xlink:href="#mb9ab1c25f7" x="197.626112" y="65.53375" style="stroke: #000000; stroke-width: 0.8"/>
      </g>
     </g>
     <g id="text_14">
      <!-- 0 -->
      <g transform="translate(195.401737 78.26) scale(0.08 -0.08)">
       <use xlink:href="#ArialMT-30"/>
      </g>
     </g>
    </g>
    <g id="xtick_8">
     <g id="line2d_26">
      <g>
       <use xlink:href="#mb9ab1c25f7" x="230.361954" y="65.53375" style="stroke: #000000; stroke-width: 0.8"/>
      </g>
     </g>
     <g id="text_15">
      <!-- 3 -->
      <g transform="translate(228.137579 78.26) scale(0.08 -0.08)">
       <use xlink:href="#ArialMT-33"/>
      </g>
     </g>
    </g>
    <g id="xtick_9">
     <g id="line2d_27">
      <g>
       <use xlink:href="#mb9ab1c25f7" x="263.097796" y="65.53375" style="stroke: #000000; stroke-width: 0.8"/>
      </g>
     </g>
     <g id="text_16">
      <!-- 6 -->
      <g transform="translate(260.873421 78.26) scale(0.08 -0.08)">
       <use xlink:href="#ArialMT-36"/>
      </g>
     </g>
    </g>
   </g>
   <g id="matplotlib.axis_6">
    <g id="ytick_7">
     <g id="line2d_28">
      <g>
       <use xlink:href="#mf006d1888d" x="197.626112" y="63.594738" style="stroke: #000000; stroke-width: 0.8"/>
      </g>
     </g>
    </g>
    <g id="ytick_8">
     <g id="line2d_29">
      <g>
       <use xlink:href="#mf006d1888d" x="197.626112" y="43.366772" style="stroke: #000000; stroke-width: 0.8"/>
      </g>
     </g>
    </g>
    <g id="ytick_9">
     <g id="line2d_30">
      <g>
       <use xlink:href="#mf006d1888d" x="197.626112" y="23.138807" style="stroke: #000000; stroke-width: 0.8"/>
      </g>
     </g>
    </g>
   </g>
   <g id="line2d_31">
    <path d="M 204.718877 63.466713 
L 213.230196 63.338688 
L 213.448434 63.210663 
L 216.831139 62.954612 
L 216.940258 62.826587 
L 217.485855 62.698562 
L 219.231766 62.442512 
L 219.450006 62.314487 
L 224.687741 61.290286 
L 224.796861 60.778186 
L 226.106293 59.241885 
L 226.542771 58.985834 
L 226.65189 58.473734 
L 226.870129 58.089659 
L 226.979251 57.705583 
L 227.08837 57.449533 
L 227.197489 57.065458 
L 227.415728 56.681383 
L 227.524848 56.297307 
L 227.852206 56.169282 
L 227.961325 55.657182 
L 228.070444 55.401131 
L 228.179564 54.889031 
L 228.397802 54.632981 
L 228.506922 53.992855 
L 228.83428 53.736806 
L 228.943399 52.840629 
L 229.161638 52.456555 
L 229.270757 52.072479 
L 229.598116 51.560378 
L 229.707235 50.792228 
L 229.816357 50.536178 
L 229.925476 49.768028 
L 230.034596 49.511977 
L 230.143715 48.743826 
L 230.361954 48.359752 
L 230.471073 47.847651 
L 231.01667 47.0795 
L 231.125789 46.31135 
L 231.234909 46.055299 
L 231.344028 45.287149 
L 231.562267 45.031099 
L 231.671386 44.262948 
L 231.889625 43.878873 
L 231.889625 43.494798 
L 232.107864 43.238748 
L 232.216983 42.470597 
L 232.326102 42.214547 
L 232.435222 40.934295 
L 232.544341 40.678244 
L 232.653463 40.29417 
L 232.871702 39.910095 
L 232.980821 39.01392 
L 233.19906 38.629843 
L 233.308179 37.989719 
L 233.526418 37.605642 
L 233.635537 36.709467 
L 234.072015 36.325392 
L 234.181134 35.941318 
L 234.399373 35.685267 
L 234.508492 35.30119 
L 234.726731 34.917116 
L 234.835851 34.276991 
L 234.94497 34.020941 
L 235.054089 33.380814 
L 235.599689 32.612665 
L 235.708808 32.100564 
L 236.254405 31.332413 
L 236.254405 31.204389 
L 236.690882 30.820312 
L 236.800002 30.436237 
L 237.12736 30.308213 
L 237.12736 30.052163 
L 237.345599 29.796113 
L 237.454718 29.540062 
L 237.563837 29.284012 
L 238.109434 28.515861 
L 238.218556 28.25981 
L 238.327676 28.00376 
L 238.327676 27.875736 
L 238.764153 27.491659 
L 238.873272 27.235611 
L 239.091511 26.979561 
L 239.746227 26.083383 
L 239.855347 25.571285 
L 240.400944 25.443258 
L 240.400944 25.315234 
L 241.164782 24.803133 
L 241.273901 24.547083 
L 241.383018 24.419059 
L 242.146856 24.163008 
L 242.365095 23.906958 
L 243.128933 23.650908 
L 243.23805 23.522881 
L 249.894339 23.138807 
L 249.894339 23.138807 
" clip-path="url(#pe9b63bccf1)" style="fill: none; stroke: #180c0a; stroke-width: 1.5; stroke-linecap: square"/>
   </g>
   <g id="line2d_32">
    <path d="M 204.718877 63.489384 
L 212.793718 63.278676 
L 213.230196 63.173322 
L 215.739944 62.962614 
L 216.285541 62.751906 
L 217.813213 62.541198 
L 219.231766 62.225136 
L 219.777364 62.014428 
L 219.777364 61.909074 
L 221.850635 61.698366 
L 221.850635 61.593012 
L 223.814784 60.539472 
L 223.923903 59.801994 
L 224.142142 59.591286 
L 224.469503 59.16987 
L 224.578622 58.853808 
L 224.796861 58.537747 
L 224.90598 58.221685 
L 225.342458 57.694915 
L 225.342458 57.484206 
L 225.560696 57.273499 
L 225.669816 57.062791 
L 225.778935 56.536021 
L 226.106293 56.325313 
L 226.215412 55.798543 
L 226.324532 55.587835 
L 226.433651 55.166419 
L 226.542771 54.955711 
L 226.65189 54.534295 
L 226.761009 54.323587 
L 226.870129 53.480755 
L 226.979251 53.270047 
L 227.08837 52.637923 
L 227.197489 52.427216 
L 227.306609 51.795092 
L 227.415728 51.584383 
L 227.524848 50.846906 
L 227.743086 50.530844 
L 227.852206 50.214782 
L 227.961325 50.004074 
L 228.070444 49.477303 
L 228.179564 49.266596 
L 228.288683 48.950534 
L 228.397802 48.739826 
L 228.506922 48.107702 
L 228.83428 47.686286 
L 228.943399 46.632746 
L 229.161638 46.316684 
L 229.270757 45.473853 
L 229.379877 45.263144 
L 229.379877 45.157791 
L 229.598116 44.947082 
L 229.707235 44.10425 
L 229.925476 43.788188 
L 230.034596 43.261418 
L 230.143715 43.05071 
L 230.252834 42.418586 
L 230.361954 42.207879 
L 230.471073 41.154339 
L 230.689312 40.838277 
L 230.798431 40.206153 
L 230.907551 39.995446 
L 231.01667 39.679384 
L 231.125789 39.468674 
L 231.234909 38.731198 
L 231.453147 38.415136 
L 231.562267 37.993719 
L 231.671386 37.783012 
L 231.780506 37.045533 
L 231.998744 36.729471 
L 232.107864 36.308054 
L 232.216983 36.097347 
L 232.326102 35.570578 
L 232.544341 35.254516 
L 232.653463 34.622392 
L 233.089941 34.095621 
L 233.19906 33.779559 
L 233.526418 33.358144 
L 233.635537 32.831373 
L 233.962896 32.409958 
L 234.072015 32.199249 
L 234.181134 31.988542 
L 234.290254 31.67248 
L 234.508492 31.356418 
L 234.617612 30.935001 
L 234.94497 30.513587 
L 235.054089 30.197525 
L 235.163209 29.986815 
L 235.272328 29.670753 
L 235.599689 29.249339 
L 235.708808 29.038629 
L 236.690882 27.985091 
L 236.800002 27.563674 
L 236.909121 27.352967 
L 236.909121 27.247612 
L 237.345599 26.93155 
L 237.454718 26.404781 
L 237.672957 26.194072 
L 238.109434 25.983364 
L 238.218556 25.667303 
L 238.436795 25.351241 
L 238.436795 25.245886 
L 239.091511 24.824471 
L 239.091511 24.613762 
L 239.30975 24.403055 
L 239.855347 23.981638 
L 241.383018 23.560224 
L 243.565411 23.349514 
L 246.511636 23.138807 
L 246.511636 23.138807 
" clip-path="url(#pe9b63bccf1)" style="fill: none; stroke: #112732; stroke-width: 1.5; stroke-linecap: square"/>
   </g>
   <g id="line2d_33">
    <path d="M 204.718877 63.500654 
L 212.684599 63.312487 
L 212.902838 63.218404 
L 215.412586 62.936153 
L 218.358811 62.371652 
L 218.467931 62.277568 
L 219.013528 62.089401 
L 219.231766 61.901234 
L 221.086797 61.5249 
L 221.086797 61.430816 
L 222.505351 60.772231 
L 222.614471 60.20773 
L 222.72359 60.113646 
L 223.050948 59.925479 
L 223.050948 59.831396 
L 223.269187 59.643228 
L 223.378306 59.455061 
L 223.487426 58.984644 
L 223.596545 58.796476 
L 223.705664 58.514226 
L 223.814784 58.326059 
L 223.923903 58.043808 
L 224.033022 57.855641 
L 224.142142 57.385223 
L 224.251264 57.197056 
L 224.360383 56.820722 
L 224.469503 56.632555 
L 224.578622 56.444387 
L 224.796861 56.162137 
L 224.90598 55.597635 
L 225.015099 55.409468 
L 225.124219 54.750883 
L 225.233338 54.562716 
L 225.342458 53.715964 
L 225.451577 53.527797 
L 225.560696 52.869212 
L 225.669816 52.681045 
L 225.778935 52.02246 
L 225.888054 51.834293 
L 225.997174 51.175708 
L 226.106293 50.987541 
L 226.215412 50.611206 
L 226.324532 50.423039 
L 226.433651 49.764454 
L 226.65189 49.482204 
L 226.761009 48.729535 
L 226.870129 48.541368 
L 226.979251 47.412365 
L 227.08837 47.224198 
L 227.197489 46.283362 
L 227.415728 46.001112 
L 227.524848 45.060276 
L 227.633967 44.872109 
L 227.743086 43.649023 
L 227.852206 43.460856 
L 227.961325 42.990438 
L 228.070444 42.80227 
L 228.179564 41.673268 
L 228.288683 41.4851 
L 228.397802 40.450183 
L 228.506922 40.262014 
L 228.616041 39.791596 
L 228.725161 39.603431 
L 228.83428 39.227097 
L 228.943399 39.038928 
L 229.052519 38.662595 
L 229.161638 38.474426 
L 229.270757 37.627674 
L 229.488996 37.345425 
L 229.598116 36.875006 
L 229.707235 36.686841 
L 229.816357 36.028255 
L 229.925476 35.840086 
L 230.034596 35.275587 
L 230.143715 35.087418 
L 230.252834 34.899253 
L 230.361954 34.711085 
L 230.471073 34.522919 
L 230.798431 34.146582 
L 230.907551 33.770248 
L 231.01667 33.582083 
L 231.125789 33.205749 
L 231.234909 33.017581 
L 231.344028 32.453078 
L 231.562267 32.170829 
L 231.671386 31.888579 
L 231.889625 31.700411 
L 231.998744 31.418161 
L 232.216983 31.135908 
L 232.326102 30.477325 
L 232.435222 30.289157 
L 232.544341 29.912823 
L 233.19906 29.254239 
L 233.19906 29.160155 
L 233.417299 28.971987 
L 233.526418 28.595653 
L 233.853776 28.219319 
L 233.962896 28.031153 
L 234.072015 27.842985 
L 234.181134 27.654819 
L 234.835851 26.996233 
L 234.835851 26.713983 
L 235.163209 26.525815 
L 235.163209 26.243565 
L 235.38145 26.055397 
L 235.490569 25.773147 
L 235.599689 25.584979 
L 235.708808 25.302729 
L 235.927047 25.114561 
L 236.581763 24.644145 
L 237.018241 24.455977 
L 237.782076 23.891475 
L 239.964466 23.326975 
L 243.783649 23.232891 
L 254.149997 23.138807 
L 254.149997 23.138807 
" clip-path="url(#pe9b63bccf1)" style="fill: none; stroke: #20526a; stroke-width: 1.5; stroke-linecap: square"/>
   </g>
   <g id="line2d_34">
    <path d="M 204.718877 63.507923 
L 211.702523 63.334292 
L 211.811643 63.247477 
L 214.648749 62.900215 
L 215.303466 62.726585 
L 216.722019 62.552954 
L 216.940258 62.379324 
L 218.57705 61.945247 
L 218.686169 61.771617 
L 219.668245 61.511171 
L 219.668245 61.424355 
L 220.432081 61.250725 
L 220.977678 60.990279 
L 220.977678 60.903464 
L 221.414158 60.643018 
L 221.523277 60.469387 
L 221.741516 60.208941 
L 221.850635 59.86168 
L 222.068874 59.601234 
L 222.177993 59.427603 
L 222.287113 59.253973 
L 222.396232 58.819896 
L 222.614471 58.646266 
L 222.72359 58.472635 
L 222.832709 58.038559 
L 223.050948 57.778113 
L 223.160068 57.344036 
L 223.269187 57.170406 
L 223.378306 56.389068 
L 223.487426 56.215437 
L 223.596545 55.60773 
L 223.705664 55.4341 
L 223.814784 55.000023 
L 223.923903 54.826392 
L 224.033022 54.13187 
L 224.142142 53.958239 
L 224.251264 52.569194 
L 224.360383 52.395564 
L 224.469503 52.135118 
L 224.578622 51.961488 
L 224.687741 51.614226 
L 224.796861 51.440595 
L 224.90598 50.311997 
L 225.015099 50.138366 
L 225.124219 49.096582 
L 225.233338 48.922952 
L 225.342458 47.707538 
L 225.451577 47.533907 
L 225.560696 46.492123 
L 225.669816 46.318492 
L 225.778935 45.276709 
L 225.888054 45.103078 
L 225.997174 44.14811 
L 226.106293 43.97448 
L 226.215412 42.932696 
L 226.324532 42.759066 
L 226.433651 41.977727 
L 226.542771 41.804097 
L 226.65189 41.109574 
L 226.761009 40.935944 
L 226.870129 39.894161 
L 226.979251 39.720529 
L 227.08837 38.939192 
L 227.197489 38.765562 
L 227.306609 37.376517 
L 227.415728 37.202887 
L 227.524848 35.813841 
L 227.633967 35.640211 
L 227.743086 34.598426 
L 227.852206 34.424796 
L 227.961325 33.903905 
L 228.179564 33.643459 
L 228.288683 33.383013 
L 228.506922 33.209383 
L 228.616041 32.86212 
L 228.83428 32.601674 
L 228.943399 31.907153 
L 229.598116 31.299445 
L 229.707235 30.778554 
L 229.816357 30.604922 
L 229.816357 30.431292 
L 230.034596 30.257662 
L 230.143715 29.649955 
L 230.471073 29.302693 
L 230.580192 28.955433 
L 231.01667 28.521356 
L 231.125789 28.08728 
L 231.234909 27.91365 
L 231.234909 27.826833 
L 231.453147 27.653203 
L 231.671386 27.392757 
L 231.671386 27.305941 
L 232.107864 27.045494 
L 232.216983 26.871864 
L 232.326102 26.611418 
L 232.653463 26.264158 
L 232.762582 26.090528 
L 232.980821 25.916898 
L 232.980821 25.830081 
L 233.417299 25.656451 
L 233.417299 25.482819 
L 235.38145 24.614666 
L 235.817927 24.267406 
L 236.363524 24.093776 
L 236.800002 23.746513 
L 238.000315 23.572883 
L 242.910694 23.312437 
L 244.547482 23.138807 
L 244.547482 23.138807 
" clip-path="url(#pe9b63bccf1)" style="fill: none; stroke: #3280a6; stroke-width: 1.5; stroke-linecap: square"/>
   </g>
   <g id="line2d_35">
    <path d="M 204.718877 63.512006 
L 211.484285 63.346542 
L 211.484285 63.26381 
L 211.702523 63.181078 
L 213.775794 63.015614 
L 214.539629 62.767418 
L 216.285541 62.519222 
L 216.285541 62.43649 
L 216.722019 62.271027 
L 217.485855 62.105563 
L 218.249692 61.609171 
L 219.122647 61.443707 
L 219.231766 61.360975 
L 220.104723 61.112779 
L 220.213842 60.947315 
L 220.322961 60.616387 
L 220.432081 60.450923 
L 220.5412 60.119995 
L 220.759439 59.871799 
L 220.868558 59.706336 
L 221.086797 59.540872 
L 221.195916 59.375408 
L 221.305036 59.127212 
L 221.523277 58.879016 
L 221.632396 58.63082 
L 221.741516 58.465356 
L 221.850635 57.886232 
L 221.959754 57.720768 
L 222.068874 56.893449 
L 222.177993 56.727985 
L 222.287113 56.148861 
L 222.396232 55.983397 
L 222.505351 55.156077 
L 222.614471 54.990613 
L 222.72359 54.246026 
L 222.832709 54.080562 
L 222.941829 53.501438 
L 223.050948 53.335975 
L 223.160068 52.839583 
L 223.269187 52.674119 
L 223.378306 51.515871 
L 223.487426 51.350407 
L 223.596545 50.440355 
L 223.705664 50.274891 
L 223.814784 49.282108 
L 223.923903 49.116644 
L 224.033022 48.289324 
L 224.142142 48.12386 
L 224.251264 47.213809 
L 224.360383 47.048345 
L 224.469503 45.559169 
L 224.578622 45.393706 
L 224.687741 43.90453 
L 224.796861 43.739066 
L 224.90598 42.663552 
L 225.015099 42.498087 
L 225.124219 41.505303 
L 225.233338 41.33984 
L 225.342458 40.347056 
L 225.451577 40.181591 
L 225.560696 39.188809 
L 225.669816 39.023344 
L 225.778935 38.03056 
L 225.888054 37.865097 
L 225.997174 37.037778 
L 226.106293 36.872313 
L 226.215412 35.300407 
L 226.324532 35.134942 
L 226.433651 34.307623 
L 226.542771 34.142158 
L 226.65189 33.066642 
L 226.979251 32.735714 
L 227.08837 31.825664 
L 227.197489 31.660199 
L 227.306609 30.750149 
L 227.415728 30.584683 
L 227.524848 30.088293 
L 227.633967 29.922827 
L 227.743086 29.260971 
L 227.852206 29.095508 
L 227.961325 28.930043 
L 228.288683 28.599118 
L 228.397802 28.350921 
L 228.83428 28.185456 
L 228.943399 27.854528 
L 229.270757 27.5236 
L 229.379877 27.275406 
L 229.598116 27.027209 
L 229.707235 26.779012 
L 229.816357 26.61355 
L 229.816357 26.448084 
L 230.689312 26.282622 
L 230.689312 26.117156 
L 230.907551 25.951694 
L 231.234909 25.620766 
L 231.344028 25.455303 
L 231.998744 25.124375 
L 232.107864 24.95891 
L 232.216983 24.793447 
L 232.871702 24.627982 
L 233.089941 24.462519 
L 233.526418 24.297054 
L 233.962896 24.048859 
L 234.072015 23.966126 
L 236.800002 23.30427 
L 240.728302 23.138807 
L 240.728302 23.138807 
" clip-path="url(#pe9b63bccf1)" style="fill: none; stroke: #62a6e0; stroke-width: 1.5; stroke-linecap: square"/>
   </g>
   <g id="line2d_36">
    <path d="M 204.718877 63.513338 
L 211.375165 63.350537 
L 211.702523 63.187737 
L 213.557554 62.943536 
L 214.212271 62.699335 
L 215.303466 62.455134 
L 219.231766 60.908529 
L 219.340887 60.745729 
L 219.668245 60.582928 
L 219.777364 60.338727 
L 219.995603 60.094527 
L 220.104723 59.361924 
L 220.322961 59.117724 
L 220.432081 58.873523 
L 220.650319 58.629322 
L 220.759439 58.222321 
L 220.977678 57.97812 
L 221.086797 57.571119 
L 221.195916 57.408318 
L 221.305036 56.919917 
L 221.414158 56.757116 
L 221.523277 55.698912 
L 221.632396 55.536112 
L 221.741516 54.559309 
L 221.850635 54.396508 
L 221.959754 53.419706 
L 222.068874 53.256905 
L 222.177993 52.198701 
L 222.287113 52.0359 
L 222.396232 51.466099 
L 222.505351 51.303298 
L 222.614471 50.000894 
L 222.72359 49.838094 
L 222.832709 49.105491 
L 222.941829 48.94269 
L 223.050948 47.477485 
L 223.160068 47.314685 
L 223.269187 46.093681 
L 223.378306 45.93088 
L 223.487426 44.547076 
L 223.596545 44.384275 
L 223.705664 42.837671 
L 223.814784 42.674871 
L 223.923903 41.779467 
L 224.033022 41.616667 
L 224.142142 39.988662 
L 224.251264 39.825862 
L 224.360383 38.849058 
L 224.469503 38.686257 
L 224.578622 37.221051 
L 224.687741 37.058253 
L 224.796861 36.000049 
L 224.90598 35.837248 
L 225.015099 35.511647 
L 225.124219 35.348846 
L 225.233338 34.697644 
L 225.342458 34.534843 
L 225.451577 33.476641 
L 225.560696 33.31384 
L 225.669816 32.174236 
L 225.778935 32.011435 
L 225.888054 31.604434 
L 225.997174 31.441633 
L 226.106293 31.116032 
L 226.215412 30.953231 
L 226.324532 30.302031 
L 226.433651 30.13923 
L 226.542771 28.999626 
L 226.65189 28.836825 
L 226.761009 28.104222 
L 226.979251 27.941421 
L 227.08837 27.778623 
L 227.197489 27.371621 
L 227.306609 27.208821 
L 227.415728 26.639018 
L 227.524848 26.476218 
L 227.633967 25.825015 
L 227.961325 25.499414 
L 228.070444 25.011012 
L 229.379877 24.441212 
L 229.816357 24.197011 
L 230.252834 23.95281 
L 231.125789 23.790009 
L 231.562267 23.627209 
L 233.417299 23.383008 
L 233.853776 23.220207 
L 234.835851 23.138807 
L 234.835851 23.138807 
" clip-path="url(#pe9b63bccf1)" style="fill: none; stroke: #9eb0ff; stroke-width: 1.5; stroke-linecap: square"/>
   </g>
   <g id="patch_22">
    <path d="M 197.626112 65.53375 
L 197.626112 21.12 
" style="fill: none; stroke: #000000; stroke-width: 0.8; stroke-linejoin: miter; stroke-linecap: square"/>
   </g>
   <g id="patch_23">
    <path d="M 263.097796 65.53375 
L 263.097796 21.12 
" style="fill: none; stroke: #000000; stroke-width: 0.8; stroke-linejoin: miter; stroke-linecap: square"/>
   </g>
   <g id="patch_24">
    <path d="M 197.626112 65.53375 
L 263.097796 65.53375 
" style="fill: none; stroke: #000000; stroke-width: 0.8; stroke-linejoin: miter; stroke-linecap: square"/>
   </g>
   <g id="patch_25">
    <path d="M 197.626112 21.12 
L 263.097796 21.12 
" style="fill: none; stroke: #000000; stroke-width: 0.8; stroke-linejoin: miter; stroke-linecap: square"/>
   </g>
   <g id="text_17">
    <!-- stim. dSPN -->
    <g transform="translate(206.357454 15.12) scale(0.096 -0.096)">
     <use xlink:href="#ArialMT-73"/>
     <use xlink:href="#ArialMT-74" transform="translate(50 0)"/>
     <use xlink:href="#ArialMT-69" transform="translate(77.783203 0)"/>
     <use xlink:href="#ArialMT-6d" transform="translate(100 0)"/>
     <use xlink:href="#ArialMT-2e" transform="translate(183.300781 0)"/>
     <use xlink:href="#ArialMT-20" transform="translate(211.083984 0)"/>
     <use xlink:href="#ArialMT-64" transform="translate(238.867188 0)"/>
     <use xlink:href="#ArialMT-53" transform="translate(294.482422 0)"/>
     <use xlink:href="#ArialMT-50" transform="translate(361.181641 0)"/>
     <use xlink:href="#ArialMT-4e" transform="translate(427.880859 0)"/>
    </g>
   </g>
  </g>
  <g id="axes_4">
   <g id="patch_26">
    <path d="M 277.414669 65.53375 
L 342.886353 65.53375 
L 342.886353 21.12 
L 277.414669 21.12 
z
" style="fill: #ffffff"/>
   </g>
   <g id="patch_27">
    <path d="M 310.150511 65.53375 
L 342.886353 65.53375 
L 342.886353 21.12 
L 310.150511 21.12 
z
" clip-path="url(#p7a7c6931c7)" style="fill: #008000; opacity: 0.2; stroke: #008000; stroke-linejoin: miter"/>
   </g>
   <g id="patch_28">
    <path d="M 288.326616 65.53375 
L 307.422524 65.53375 
L 307.422524 21.12 
L 288.326616 21.12 
z
" clip-path="url(#p7a7c6931c7)" style="fill: #0000ff; opacity: 0.2; stroke: #0000ff; stroke-linejoin: miter"/>
   </g>
   <g id="patch_29">
    <path d="M 277.414669 65.53375 
L 278.505863 65.53375 
L 278.505863 21.12 
L 277.414669 21.12 
z
" clip-path="url(#p7a7c6931c7)" style="fill: #ff0000; opacity: 0.2; stroke: #ff0000; stroke-linejoin: miter"/>
   </g>
   <g id="matplotlib.axis_7">
    <g id="xtick_10">
     <g id="line2d_37">
      <g>
       <use xlink:href="#mb9ab1c25f7" x="277.414669" y="65.53375" style="stroke: #000000; stroke-width: 0.8"/>
      </g>
     </g>
     <g id="text_18">
      <!-- 0 -->
      <g transform="translate(275.190294 78.26) scale(0.08 -0.08)">
       <use xlink:href="#ArialMT-30"/>
      </g>
     </g>
    </g>
    <g id="xtick_11">
     <g id="line2d_38">
      <g>
       <use xlink:href="#mb9ab1c25f7" x="310.150511" y="65.53375" style="stroke: #000000; stroke-width: 0.8"/>
      </g>
     </g>
     <g id="text_19">
      <!-- 3 -->
      <g transform="translate(307.926136 78.26) scale(0.08 -0.08)">
       <use xlink:href="#ArialMT-33"/>
      </g>
     </g>
    </g>
    <g id="xtick_12">
     <g id="line2d_39">
      <g>
       <use xlink:href="#mb9ab1c25f7" x="342.886353" y="65.53375" style="stroke: #000000; stroke-width: 0.8"/>
      </g>
     </g>
     <g id="text_20">
      <!-- 6 -->
      <g transform="translate(340.661978 78.26) scale(0.08 -0.08)">
       <use xlink:href="#ArialMT-36"/>
      </g>
     </g>
    </g>
   </g>
   <g id="matplotlib.axis_8">
    <g id="ytick_10">
     <g id="line2d_40">
      <g>
       <use xlink:href="#mf006d1888d" x="277.414669" y="63.594738" style="stroke: #000000; stroke-width: 0.8"/>
      </g>
     </g>
    </g>
    <g id="ytick_11">
     <g id="line2d_41">
      <g>
       <use xlink:href="#mf006d1888d" x="277.414669" y="43.366772" style="stroke: #000000; stroke-width: 0.8"/>
      </g>
     </g>
    </g>
    <g id="ytick_12">
     <g id="line2d_42">
      <g>
       <use xlink:href="#mf006d1888d" x="277.414669" y="23.138807" style="stroke: #000000; stroke-width: 0.8"/>
      </g>
     </g>
    </g>
   </g>
   <g id="line2d_43">
    <path d="M 284.507434 63.466713 
L 293.018753 63.338688 
L 293.236991 63.210663 
L 296.619696 62.954612 
L 296.728815 62.826587 
L 297.274412 62.698562 
L 299.020323 62.442512 
L 299.238563 62.314487 
L 304.476298 61.290286 
L 304.585418 60.778186 
L 305.89485 59.241885 
L 306.331328 58.985834 
L 306.440447 58.473734 
L 306.658686 58.089659 
L 306.767808 57.705583 
L 306.876927 57.449533 
L 306.986046 57.065458 
L 307.204285 56.681383 
L 307.313405 56.297307 
L 307.640763 56.169282 
L 307.749882 55.657182 
L 307.859001 55.401131 
L 307.968121 54.889031 
L 308.186359 54.632981 
L 308.295479 53.992855 
L 308.622837 53.736806 
L 308.731956 52.840629 
L 308.950195 52.456555 
L 309.059314 52.072479 
L 309.386673 51.560378 
L 309.495792 50.792228 
L 309.604914 50.536178 
L 309.714033 49.768028 
L 309.823153 49.511977 
L 309.932272 48.743826 
L 310.150511 48.359752 
L 310.25963 47.847651 
L 310.805227 47.0795 
L 310.914346 46.31135 
L 311.023466 46.055299 
L 311.132585 45.287149 
L 311.350824 45.031099 
L 311.459943 44.262948 
L 311.678182 43.878873 
L 311.678182 43.494798 
L 311.896421 43.238748 
L 312.00554 42.470597 
L 312.114659 42.214547 
L 312.223779 40.934295 
L 312.332898 40.678244 
L 312.44202 40.29417 
L 312.660259 39.910095 
L 312.769378 39.01392 
L 312.987617 38.629843 
L 313.096736 37.989719 
L 313.314975 37.605642 
L 313.424094 36.709467 
L 313.860572 36.325392 
L 313.969691 35.941318 
L 314.18793 35.685267 
L 314.297049 35.30119 
L 314.515288 34.917116 
L 314.624407 34.276991 
L 314.733527 34.020941 
L 314.842646 33.380814 
L 315.388246 32.612665 
L 315.497365 32.100564 
L 316.042962 31.332413 
L 316.042962 31.204389 
L 316.479439 30.820312 
L 316.588559 30.436237 
L 316.915917 30.308213 
L 316.915917 30.052163 
L 317.134156 29.796113 
L 317.243275 29.540062 
L 317.352394 29.284012 
L 317.897991 28.515861 
L 318.007113 28.25981 
L 318.116233 28.00376 
L 318.116233 27.875736 
L 318.55271 27.491659 
L 318.661829 27.235611 
L 318.880068 26.979561 
L 319.534784 26.083383 
L 319.643904 25.571285 
L 320.189501 25.443258 
L 320.189501 25.315234 
L 320.953339 24.803133 
L 321.062458 24.547083 
L 321.171575 24.419059 
L 321.935413 24.163008 
L 322.153652 23.906958 
L 322.91749 23.650908 
L 323.026607 23.522881 
L 329.682896 23.138807 
L 329.682896 23.138807 
" clip-path="url(#p7a7c6931c7)" style="fill: none; stroke: #180c0a; stroke-width: 1.5; stroke-linecap: square"/>
   </g>
   <g id="line2d_44">
    <path d="M 284.507434 63.419604 
L 297.165293 63.24447 
L 298.474726 63.069336 
L 306.222208 62.894202 
L 306.986046 62.719068 
L 306.986046 62.543935 
L 307.859001 62.368801 
L 307.859001 62.018533 
L 308.295479 61.843399 
L 309.168434 60.267194 
L 309.277553 59.916926 
L 309.823153 58.866123 
L 309.932272 58.340721 
L 311.023466 56.414248 
L 311.132585 55.538578 
L 311.350824 55.013177 
L 311.350824 54.838043 
L 311.569063 54.662909 
L 311.678182 53.787239 
L 311.896421 53.612106 
L 312.00554 52.91157 
L 312.769378 51.510499 
L 312.878498 50.985097 
L 312.987617 50.634829 
L 313.096736 50.284562 
L 313.424094 49.584025 
L 313.533214 49.058625 
L 313.642333 48.708356 
L 313.751453 48.007821 
L 314.078811 47.307285 
L 314.18793 46.256482 
L 314.406169 45.73108 
L 314.406169 45.555946 
L 314.624407 45.380813 
L 314.733527 44.330009 
L 314.951766 43.804607 
L 315.060885 42.403535 
L 315.279126 41.878135 
L 315.715604 41.703001 
L 315.824723 41.352733 
L 316.042962 40.827332 
L 316.152081 39.951662 
L 316.37032 39.426261 
L 316.479439 38.900859 
L 316.806797 38.200322 
L 316.806797 37.850055 
L 317.025036 37.67492 
L 317.134156 37.149518 
L 317.788872 36.624116 
L 317.897991 35.923582 
L 318.55271 35.047913 
L 318.770949 34.872778 
L 318.880068 34.347376 
L 319.098307 34.172242 
L 319.207426 33.64684 
L 319.534784 32.946306 
L 319.643904 32.245769 
L 319.971262 31.895502 
L 320.080381 31.194965 
L 320.625978 30.144164 
L 320.7351 29.618762 
L 320.953339 29.443627 
L 321.062458 29.09336 
L 321.171575 28.743093 
L 321.280697 28.392823 
L 321.826291 28.042556 
L 321.826291 27.867421 
L 322.808368 26.991752 
L 323.135729 26.466351 
L 323.899562 25.940949 
L 324.226922 25.590682 
L 324.772517 24.890145 
L 325.863716 24.715012 
L 326.191071 24.364743 
L 328.373464 24.189611 
L 328.919058 23.839343 
L 334.920631 23.489074 
L 335.029748 23.313942 
L 338.194212 23.138807 
L 338.194212 23.138807 
" clip-path="url(#p7a7c6931c7)" style="fill: none; stroke: #11161b; stroke-width: 1.5; stroke-linecap: square"/>
   </g>
   <g id="line2d_45">
    <path d="M 284.507434 63.376057 
L 309.168434 63.157376 
L 310.696108 62.063973 
L 310.914346 61.845292 
L 311.023466 61.18925 
L 311.350824 60.533208 
L 311.896421 60.095846 
L 312.114659 59.439805 
L 312.223779 58.346401 
L 312.551139 57.690359 
L 312.878498 57.471678 
L 313.205856 56.596955 
L 313.205856 56.159594 
L 313.642333 55.722233 
L 313.642333 55.284871 
L 313.969691 55.06619 
L 314.624407 53.535426 
L 314.733527 52.879383 
L 314.951766 52.660703 
L 314.951766 51.785979 
L 315.279126 51.348619 
L 315.388246 50.911257 
L 315.933843 50.255214 
L 316.042962 49.380492 
L 316.37032 48.94313 
L 316.588559 48.287088 
L 316.697678 47.631047 
L 317.025036 46.756323 
L 317.134156 45.8816 
L 317.352394 45.225558 
L 317.461514 44.569516 
L 318.334471 43.694793 
L 318.443591 43.257432 
L 318.770949 42.38271 
L 318.880068 41.507986 
L 319.425665 40.195902 
L 319.534784 39.321178 
L 319.971262 38.227775 
L 319.971262 38.009094 
L 320.189501 37.790415 
L 320.29862 37.134373 
L 321.498936 34.510204 
L 321.498936 34.291522 
L 321.826291 34.072843 
L 321.935413 33.416801 
L 322.153652 32.760759 
L 322.262774 32.323395 
L 322.590129 31.886035 
L 323.244846 30.355271 
L 323.353968 29.917908 
L 323.572206 29.699229 
L 323.572206 29.261866 
L 323.899562 28.824505 
L 324.6634 27.07506 
L 324.6634 26.856379 
L 324.990761 26.419018 
L 325.099877 26.200336 
L 326.40931 25.544294 
L 326.736671 25.106933 
L 328.264342 24.669573 
L 329.355535 24.23221 
L 331.319689 23.794849 
L 331.537928 23.576167 
L 335.466225 23.357488 
L 336.011825 23.138807 
L 336.011825 23.138807 
" clip-path="url(#p7a7c6931c7)" style="fill: none; stroke: #112732; stroke-width: 1.5; stroke-linecap: square"/>
   </g>
   <g id="line2d_46">
    <path d="M 284.507434 63.321387 
L 310.696108 63.048036 
L 311.569063 62.774685 
L 311.787301 62.227984 
L 312.660259 61.954633 
L 312.769378 61.407931 
L 313.096736 60.587878 
L 313.642333 60.314527 
L 314.406169 58.12772 
L 314.515288 57.581018 
L 314.951766 56.487615 
L 315.279126 56.214264 
L 315.279126 55.940913 
L 315.606484 55.394211 
L 315.824723 54.847509 
L 316.37032 54.574159 
L 317.025036 52.660703 
L 317.025036 52.387351 
L 317.352394 51.84065 
L 317.570633 51.020597 
L 317.570633 50.747247 
L 317.897991 50.200544 
L 318.225352 49.107141 
L 318.661829 48.83379 
L 318.880068 48.56044 
L 318.880068 48.013737 
L 319.098307 47.740386 
L 319.207426 46.920334 
L 321.608052 40.633263 
L 321.608052 40.359913 
L 321.826291 40.086561 
L 321.826291 39.53986 
L 322.153652 39.266508 
L 324.1178 34.072843 
L 324.6634 33.799491 
L 324.881639 33.25279 
L 325.318116 32.979438 
L 325.972832 32.159387 
L 326.081954 31.339333 
L 326.300193 31.065981 
L 326.40931 30.24593 
L 326.845787 29.972579 
L 327.064026 29.425877 
L 327.609626 29.152525 
L 327.718748 28.605824 
L 327.827864 28.332474 
L 328.591702 28.059122 
L 328.700819 27.512421 
L 329.02818 27.239071 
L 329.355535 26.692367 
L 330.337612 26.419018 
L 330.337612 26.145666 
L 332.52 25.872316 
L 333.174716 25.598965 
L 333.611199 25.052263 
L 334.484154 24.505562 
L 335.902703 24.23221 
L 336.230064 23.95886 
L 337.103019 23.685508 
L 342.668114 23.138807 
L 342.668114 23.138807 
" clip-path="url(#p7a7c6931c7)" style="fill: none; stroke: #173c4d; stroke-width: 1.5; stroke-linecap: square"/>
   </g>
   <g id="line2d_47">
    <path d="M 284.507434 63.283538 
L 313.860572 62.972339 
L 314.951766 62.34994 
L 314.951766 62.038741 
L 315.497365 61.105142 
L 315.497365 60.793943 
L 316.261201 60.482743 
L 316.37032 59.860344 
L 316.806797 58.304347 
L 316.806797 57.993147 
L 317.243275 57.681948 
L 317.461514 57.370748 
L 317.461514 57.059549 
L 317.788872 56.748349 
L 317.788872 56.43715 
L 318.007113 56.12595 
L 318.007113 55.814751 
L 318.334471 55.192352 
L 319.316546 52.702756 
L 319.534784 52.391556 
L 319.643904 51.769158 
L 319.753023 51.457958 
L 320.189501 51.146759 
L 320.29862 50.52436 
L 320.953339 48.968362 
L 321.935413 47.412365 
L 322.04453 46.167567 
L 322.91749 43.677972 
L 323.463084 43.055572 
L 323.572206 41.810774 
L 325.318116 36.520384 
L 326.191071 36.209184 
L 326.300193 35.275587 
L 326.518432 34.653188 
L 327.173148 34.341987 
L 327.282265 33.719588 
L 327.391387 33.097189 
L 327.391387 32.785991 
L 327.609626 32.47479 
L 327.718748 31.852391 
L 328.264342 31.229993 
L 328.591702 30.607594 
L 329.137297 29.673997 
L 329.246419 29.362796 
L 330.010252 29.051598 
L 330.010252 28.740397 
L 330.446729 28.429199 
L 330.664973 28.117998 
L 331.647045 27.495599 
L 331.756167 27.184401 
L 332.192644 26.8732 
L 332.301761 26.250801 
L 332.738239 25.939603 
L 333.720315 25.628402 
L 334.702392 25.006004 
L 335.793586 24.694805 
L 336.88478 24.072406 
L 336.993902 23.761206 
L 337.430379 23.450007 
L 339.176289 23.138807 
L 339.176289 23.138807 
" clip-path="url(#p7a7c6931c7)" style="fill: none; stroke: #20526a; stroke-width: 1.5; stroke-linecap: square"/>
   </g>
   <g id="line2d_48">
    <path d="M 284.507434 63.220146 
L 314.951766 62.845554 
L 316.152081 62.470962 
L 316.37032 62.09637 
L 317.243275 61.721778 
L 317.679752 61.347186 
L 317.788872 60.972594 
L 317.788872 60.598002 
L 318.007113 60.22341 
L 318.225352 59.848818 
L 318.334471 59.474226 
L 318.880068 59.099634 
L 318.989187 58.725042 
L 319.098307 58.350451 
L 319.316546 57.975858 
L 319.425665 57.601267 
L 320.080381 57.226675 
L 320.080381 56.852083 
L 320.29862 56.477491 
L 320.29862 56.102899 
L 320.516859 55.728307 
L 320.516859 55.353715 
L 320.625978 54.979123 
L 321.062458 54.604531 
L 321.171575 54.229939 
L 321.498936 53.855347 
L 321.935413 53.480755 
L 321.935413 53.106163 
L 322.04453 52.731572 
L 322.153652 52.356979 
L 322.699251 51.982387 
L 322.91749 51.607795 
L 322.91749 51.233204 
L 323.244846 50.858612 
L 323.244846 50.48402 
L 323.353968 50.109427 
L 323.572206 49.734835 
L 323.681323 49.360244 
L 323.681323 48.985652 
L 323.899562 48.61106 
L 323.899562 48.236467 
L 324.008684 47.861876 
L 324.008684 47.487284 
L 324.008684 47.112692 
L 324.008684 46.7381 
L 324.1178 46.363507 
L 324.226922 45.988916 
L 324.336039 45.614324 
L 324.445161 45.239732 
L 324.554278 44.86514 
L 324.881639 44.490549 
L 325.099877 44.115956 
L 325.099877 43.741364 
L 325.099877 43.366772 
L 325.645477 42.992179 
L 325.863716 42.617589 
L 325.972832 42.242996 
L 326.081954 41.868405 
L 326.845787 41.493813 
L 327.064026 41.11922 
L 327.064026 40.744629 
L 327.282265 40.370036 
L 327.282265 39.995446 
L 327.391387 39.620853 
L 327.391387 39.24626 
L 327.391387 38.871669 
L 327.500504 38.497076 
L 327.609626 38.122486 
L 327.609626 37.747893 
L 327.936986 37.373302 
L 328.046103 36.998709 
L 328.264342 36.624116 
L 328.264342 36.249526 
L 328.591702 35.874933 
L 328.591702 35.500342 
L 328.700819 35.125749 
L 329.02818 34.751157 
L 329.464657 34.376566 
L 329.573774 34.001973 
L 329.682896 33.627383 
L 329.901135 33.25279 
L 330.010252 32.878197 
L 330.010252 32.503606 
L 330.010252 32.129013 
L 330.337612 31.754423 
L 330.555851 31.37983 
L 331.319689 31.005237 
L 331.319689 30.630646 
L 331.537928 30.256053 
L 331.647045 29.881463 
L 331.647045 29.50687 
L 332.301761 29.132277 
L 332.301761 28.757686 
L 332.410883 28.383093 
L 332.84736 28.008503 
L 333.065599 27.63391 
L 333.283838 27.259319 
L 333.829437 26.884727 
L 334.047676 26.510134 
L 334.156793 26.135543 
L 335.029748 25.76095 
L 335.684464 25.38636 
L 335.793586 25.011767 
L 336.88478 24.637174 
L 339.940127 24.262583 
L 340.267483 23.88799 
L 341.358677 23.5134 
L 342.449875 23.138807 
" clip-path="url(#p7a7c6931c7)" style="fill: none; stroke: #296988; stroke-width: 1.5; stroke-linecap: square"/>
   </g>
   <g id="patch_30">
    <path d="M 277.414669 65.53375 
L 277.414669 21.12 
" style="fill: none; stroke: #000000; stroke-width: 0.8; stroke-linejoin: miter; stroke-linecap: square"/>
   </g>
   <g id="patch_31">
    <path d="M 342.886353 65.53375 
L 342.886353 21.12 
" style="fill: none; stroke: #000000; stroke-width: 0.8; stroke-linejoin: miter; stroke-linecap: square"/>
   </g>
   <g id="patch_32">
    <path d="M 277.414669 65.53375 
L 342.886353 65.53375 
" style="fill: none; stroke: #000000; stroke-width: 0.8; stroke-linejoin: miter; stroke-linecap: square"/>
   </g>
   <g id="patch_33">
    <path d="M 277.414669 21.12 
L 342.886353 21.12 
" style="fill: none; stroke: #000000; stroke-width: 0.8; stroke-linejoin: miter; stroke-linecap: square"/>
   </g>
   <g id="text_21">
    <!-- stim. iSPN -->
    <g transform="translate(287.748761 15.12) scale(0.096 -0.096)">
     <use xlink:href="#ArialMT-73"/>
     <use xlink:href="#ArialMT-74" transform="translate(50 0)"/>
     <use xlink:href="#ArialMT-69" transform="translate(77.783203 0)"/>
     <use xlink:href="#ArialMT-6d" transform="translate(100 0)"/>
     <use xlink:href="#ArialMT-2e" transform="translate(183.300781 0)"/>
     <use xlink:href="#ArialMT-20" transform="translate(211.083984 0)"/>
     <use xlink:href="#ArialMT-69" transform="translate(238.867188 0)"/>
     <use xlink:href="#ArialMT-53" transform="translate(261.083984 0)"/>
     <use xlink:href="#ArialMT-50" transform="translate(327.783203 0)"/>
     <use xlink:href="#ArialMT-4e" transform="translate(394.482422 0)"/>
    </g>
   </g>
  </g>
  <g id="axes_5">
   <g id="matplotlib.axis_9">
    <g id="text_22">
     <!--   -->
     <g transform="translate(352.160103 42.215625) rotate(-270) scale(0.08 -0.08)">
      <use xlink:href="#ArialMT-20"/>
     </g>
    </g>
   </g>
   <g id="patch_34">
    <path d="M 277.414669 65.53375 
L 277.414669 21.12 
" style="fill: none; stroke: #000000; stroke-width: 0.8; stroke-linejoin: miter; stroke-linecap: square"/>
   </g>
   <g id="patch_35">
    <path d="M 342.886353 65.53375 
L 342.886353 21.12 
" style="fill: none; stroke: #000000; stroke-width: 0.8; stroke-linejoin: miter; stroke-linecap: square"/>
   </g>
   <g id="patch_36">
    <path d="M 277.414669 65.53375 
L 342.886353 65.53375 
" style="fill: none; stroke: #000000; stroke-width: 0.8; stroke-linejoin: miter; stroke-linecap: square"/>
   </g>
   <g id="patch_37">
    <path d="M 277.414669 21.12 
L 342.886353 21.12 
" style="fill: none; stroke: #000000; stroke-width: 0.8; stroke-linejoin: miter; stroke-linecap: square"/>
   </g>
  </g>
 </g>
 <defs>
  <clipPath id="p230c3f06c1">
   <rect x="38.048998" y="21.12" width="65.471684" height="44.41375"/>
  </clipPath>
  <clipPath id="pd9d277505e">
   <rect x="117.837555" y="21.12" width="65.471684" height="44.41375"/>
  </clipPath>
  <clipPath id="pe9b63bccf1">
   <rect x="197.626112" y="21.12" width="65.471684" height="44.41375"/>
  </clipPath>
  <clipPath id="p7a7c6931c7">
   <rect x="277.414669" y="21.12" width="65.471684" height="44.41375"/>
  </clipPath>
 </defs>
</svg>
